<svg width="1483" height="931" viewBox="0 0 1483 931" fill="none" xmlns="http://www.w3.org/2000/svg">
<rect width="1483" height="931" fill="#E9FF6B"/>
<g filter="url(#filter0_b_3_61)">
<ellipse cx="1219.64" cy="785.409" rx="64.1816" ry="65.4745" fill="#232323" fill-opacity="0.3"/>
</g>
<g filter="url(#filter1_b_3_61)">
<path d="M1363.41 785.409C1363.41 821.569 1334.67 850.883 1299.22 850.883C1263.78 850.883 1235.04 821.569 1235.04 785.409C1235.04 749.248 1263.78 719.934 1299.22 719.934C1334.67 719.934 1363.41 749.248 1363.41 785.409Z" fill="#232323" fill-opacity="0.7"/>
</g>
<g filter="url(#filter2_b_3_61)">
<path d="M1259.43 734.033C1244.57 746.025 1235.04 764.581 1235.04 785.408C1235.04 806.235 1244.57 824.791 1259.43 836.783C1274.29 824.791 1283.82 806.235 1283.82 785.408C1283.82 764.581 1274.29 746.025 1259.43 734.033Z" fill="#232323" fill-opacity="0.6"/>
</g>
<path d="M157.688 639.146V579.661H136.445C134.209 579.661 132.145 580.889 132.145 584.048C132.145 587.206 134.209 588.435 136.445 588.435H149.087V639.146H136.445C134.209 639.146 132.145 640.374 132.145 643.533C132.145 646.691 134.209 647.92 136.445 647.92H170.33C172.566 647.92 174.63 646.691 174.63 643.533V621.423C174.63 618.879 173.512 617.037 170.33 617.037C167.148 617.037 166.03 618.879 166.03 621.423V639.146H157.688Z" fill="#232323"/>
<path d="M202.644 618.177H226.897C229.735 618.177 231.713 617.739 233.863 615.721C236.271 613.439 236.529 611.071 236.529 607.912V589.926C236.529 586.768 236.271 584.399 233.863 582.118C231.713 580.1 229.735 579.661 226.897 579.661H198.344C196.108 579.661 194.043 580.889 194.043 584.048C194.043 587.206 196.108 588.435 198.344 588.435H227.929V609.404H203.762C197.312 609.404 194.043 612.738 194.043 619.318V647.92H232.229C234.465 647.92 236.529 646.691 236.529 643.533C236.529 640.374 234.465 639.146 232.229 639.146H202.644V618.177Z" fill="#232323"/>
<path d="M289.828 588.435V602.999C289.828 607.912 287.936 609.404 285.527 609.404H268.671C266.435 609.404 264.371 610.632 264.371 613.79C264.371 616.949 266.435 618.177 268.671 618.177H285.527C287.936 618.177 289.828 619.669 289.828 624.582V639.146H260.243C258.006 639.146 255.942 640.374 255.942 643.533C255.942 646.691 258.006 647.92 260.243 647.92H289.828C294.73 647.92 298.428 644.147 298.428 639.146V622.301C298.428 618.791 297.74 616.247 295.074 613.79C297.74 611.334 298.428 608.789 298.428 605.28V588.435C298.428 583.434 294.73 579.661 289.828 579.661H260.243C258.006 579.661 255.942 580.889 255.942 584.048C255.942 587.206 258.006 588.435 260.243 588.435H289.828Z" fill="#232323"/>
<path d="M330.742 616.861V584.048C330.742 581.855 329.71 579.661 326.442 579.661C323.173 579.661 322.141 581.855 322.141 584.048V625.635H347.426V643.533C347.426 646.34 348.63 647.92 351.727 647.92C354.823 647.92 356.027 646.34 356.027 643.533V625.635C358.263 625.635 360.327 624.406 360.327 621.248C360.327 618.089 358.263 616.861 356.027 616.861V591.505C356.027 589.312 354.995 587.119 351.727 587.119C348.458 587.119 347.426 589.312 347.426 591.505V616.861H330.742Z" fill="#232323"/>
<path d="M458.754 588.435H479.825C482.061 588.435 484.125 587.206 484.125 584.048C484.125 580.889 482.061 579.661 479.825 579.661H450.153V618.177H475.524V639.146H455.658C454.282 639.146 452.303 637.918 451.099 637.391L448.519 636.251C447.573 635.812 446.799 635.549 445.767 635.549C443.531 635.549 441.639 637.655 441.639 639.936C441.639 643.006 444.219 643.796 446.541 644.849L449.809 646.34C451.959 647.306 453.25 647.92 455.486 647.92H474.578C477.674 647.92 479.911 647.569 482.061 644.937C483.867 642.743 484.125 640.813 484.125 638.093V619.318C484.125 616.247 483.867 614.141 481.459 611.86C479.395 609.842 477.33 609.404 474.578 609.404H458.754V588.435Z" fill="#232323"/>
<path d="M512.138 588.435C514.632 588.435 516.438 586.68 516.438 584.048C516.438 581.767 514.632 579.661 512.396 579.661H507.236C504.226 579.661 503.538 582.03 503.538 584.048V642.392C503.538 646.428 505.086 647.92 509.128 647.92H540.433C544.304 647.92 546.024 646.516 546.024 642.392V622.739C546.024 618.704 545.164 616.861 540.863 616.861H512.138V588.435ZM537.423 625.635V639.146H512.138V625.635H537.423Z" fill="#232323"/>
<path d="M599.322 588.435V600.542C599.322 604.403 599.494 604.315 596.656 606.859L584.788 617.3C582.638 619.23 582.552 619.493 582.552 622.389V643.533C582.552 646.34 583.756 647.92 586.852 647.92C589.948 647.92 591.152 646.34 591.152 643.533V626.512C591.152 623.441 591.324 623.266 593.56 621.248L605.6 610.632C608.009 608.526 607.923 608.175 607.923 605.105V579.661H569.737C566.985 579.661 565.437 582.118 565.437 584.048V588.435C565.437 590.365 566.985 592.822 569.737 592.822C572.489 592.822 574.037 590.365 574.037 588.435H599.322Z" fill="#232323"/>
<path d="M644.536 609.404V588.435H652.621V609.404H644.536ZM640.236 579.661C637.312 579.661 635.936 581.767 635.936 584.048V609.404C633.27 609.404 631.206 610.369 629.658 611.86C628.11 613.352 627.336 615.545 627.336 618.265V639.146C627.336 644.498 630.604 647.92 635.936 647.92H661.221C666.553 647.92 669.821 644.498 669.821 639.146V618.265C669.821 615.545 669.047 613.352 667.499 611.86C665.951 610.369 663.887 609.404 661.221 609.404V584.048C661.221 581.767 659.845 579.661 656.921 579.661H640.236ZM635.936 639.146V618.177H661.221V639.146H635.936Z" fill="#232323"/>
<path d="M785.019 639.146C782.525 639.146 780.719 640.901 780.719 643.533C780.719 645.902 782.439 647.92 785.019 647.92H789.319C791.899 647.92 793.619 645.902 793.619 643.533V584.048C793.619 581.767 791.727 579.661 789.319 579.661H755.434C753.026 579.661 751.134 581.767 751.134 584.048V606.508C751.134 608.789 753.026 610.895 755.434 610.895H785.019V639.146ZM759.734 602.122V588.435H785.019V602.122H759.734Z" fill="#232323"/>
<path d="M821.633 579.661C816.903 579.661 813.032 583.609 813.032 588.435V639.146C813.032 644.059 816.731 647.92 821.633 647.92H846.918C851.82 647.92 855.518 644.059 855.518 639.146V588.435C855.518 583.609 851.648 579.661 846.918 579.661H821.633ZM821.633 639.146V588.435H846.918V639.146H821.633Z" fill="#232323"/>
<path d="M883.532 579.661C878.802 579.661 874.931 583.609 874.931 588.435V639.146C874.931 644.059 878.63 647.92 883.532 647.92H908.817C913.719 647.92 917.417 644.059 917.417 639.146V588.435C917.417 583.609 913.547 579.661 908.817 579.661H883.532ZM883.532 639.146V588.435H908.817V639.146H883.532Z" fill="#232323"/>
<path d="M945.431 579.661C940.7 579.661 936.83 583.609 936.83 588.435V639.146C936.83 644.059 940.528 647.92 945.431 647.92H970.716C975.618 647.92 979.316 644.059 979.316 639.146V588.435C979.316 583.609 975.446 579.661 970.716 579.661H945.431ZM945.431 639.146V588.435H970.716V639.146H945.431Z" fill="#232323"/>
<path d="M1069.23 579.661C1064.5 579.661 1060.63 583.609 1060.63 588.435V639.146C1060.63 644.059 1064.33 647.92 1069.23 647.92H1094.51C1099.42 647.92 1103.11 644.059 1103.11 639.146V588.435C1103.11 583.609 1099.24 579.661 1094.51 579.661H1069.23ZM1069.23 639.146V588.435H1094.51V639.146H1069.23Z" fill="#232323"/>
<path d="M1131.13 579.661C1126.4 579.661 1122.53 583.609 1122.53 588.435V639.146C1122.53 644.059 1126.23 647.92 1131.13 647.92H1156.41C1161.31 647.92 1165.01 644.059 1165.01 639.146V588.435C1165.01 583.609 1161.14 579.661 1156.41 579.661H1131.13ZM1131.13 639.146V588.435H1156.41V639.146H1131.13Z" fill="#232323"/>
<path d="M1193.03 579.661C1188.3 579.661 1184.43 583.609 1184.43 588.435V639.146C1184.43 644.059 1188.12 647.92 1193.03 647.92H1218.31C1223.21 647.92 1226.91 644.059 1226.91 639.146V588.435C1226.91 583.609 1223.04 579.661 1218.31 579.661H1193.03ZM1193.03 639.146V588.435H1218.31V639.146H1193.03Z" fill="#232323"/>
<path d="M1254.93 579.661C1250.19 579.661 1246.32 583.609 1246.32 588.435V639.146C1246.32 644.059 1250.02 647.92 1254.93 647.92H1280.21C1285.11 647.92 1288.81 644.059 1288.81 639.146V588.435C1288.81 583.609 1284.94 579.661 1280.21 579.661H1254.93ZM1254.93 639.146V588.435H1280.21V639.146H1254.93Z" fill="#232323"/>
<path d="M965.379 184.982V196.482H978.64V185.197C982.86 184.688 986.688 183.617 990.125 181.983C995.116 179.566 998.987 176.243 1001.74 172.014C1004.53 167.742 1005.92 162.758 1005.92 157.062C1005.92 150.546 1004.21 145.325 1000.78 141.398C997.358 137.471 991.796 134.343 984.097 132.013L967.283 127.029C962.63 125.605 959.225 123.9 957.067 121.915C954.91 119.93 953.832 117.514 953.832 114.666C953.832 112.076 954.593 109.768 956.116 107.74C957.681 105.668 959.775 104.072 962.397 102.95C965.062 101.785 968.065 101.245 971.407 101.332C974.96 101.375 978.154 102.108 980.988 103.532C983.864 104.956 986.233 106.941 988.094 109.487C989.998 112.033 991.246 114.968 991.838 118.29L1005.35 115.831C1004.17 110.135 1002.03 105.258 998.944 101.202C995.899 97.1459 992.049 94.0389 987.396 91.8813C984.708 90.6232 981.789 89.7172 978.64 89.1633V77.5117H965.379V88.9082C961.66 89.4054 958.276 90.3749 955.227 91.8166C950.575 94.0173 946.958 97.1243 944.378 101.137C941.84 105.151 940.571 109.876 940.571 115.313C940.571 126.834 946.916 134.602 959.606 138.615L981.051 145.347C985.197 146.684 988.179 148.324 989.998 150.266C991.859 152.208 992.79 154.732 992.79 157.839C992.79 162.197 990.971 165.779 987.333 168.584C983.738 171.389 979.063 172.791 973.311 172.791C967.516 172.791 962.545 171.173 958.4 167.937C954.255 164.657 951.547 160.256 950.278 154.732L937.144 156.868C938.117 162.737 940.19 167.829 943.362 172.144C946.577 176.416 950.68 179.717 955.672 182.047C958.664 183.444 961.9 184.423 965.379 184.982Z" fill="url(#paint0_linear_3_61)"/>
<path fill-rule="evenodd" clip-rule="evenodd" d="M1086.79 182.695C1090.22 184.593 1094.47 185.543 1099.54 185.543C1105.93 185.543 1111.3 184.248 1115.66 181.659C1118.95 179.688 1121.81 176.955 1124.23 173.46V183.601H1135.96V140.557C1135.96 137.622 1135.84 134.882 1135.58 132.336C1135.33 129.79 1134.65 127.374 1133.55 125.087C1131.44 120.469 1128.1 117.104 1123.53 114.989C1119 112.832 1113.67 111.753 1107.54 111.753C1099.63 111.753 1093.28 113.522 1088.5 117.06C1083.77 120.599 1080.55 125.367 1078.86 131.365L1091.23 135.249C1092.42 131.322 1094.51 128.517 1097.51 126.834C1100.52 125.108 1103.82 124.245 1107.41 124.245C1113.12 124.245 1117.14 125.583 1119.47 128.258C1121.54 130.556 1122.67 133.938 1122.87 138.406C1120.27 138.777 1117.66 139.149 1115.03 139.521C1110.8 140.125 1106.76 140.772 1102.91 141.463C1099.06 142.153 1095.61 142.952 1092.56 143.858C1089.05 145.023 1086.09 146.555 1083.68 148.454C1081.27 150.309 1079.45 152.575 1078.23 155.25C1077 157.925 1076.39 161.032 1076.39 164.571C1076.39 168.368 1077.25 171.863 1078.99 175.057C1080.76 178.207 1083.36 180.753 1086.79 182.695ZM1111.6 172.468C1108.89 173.805 1105.66 174.474 1101.89 174.474C1099.06 174.474 1096.73 174.021 1094.91 173.115C1093.09 172.209 1091.74 171 1090.85 169.49C1089.96 167.937 1089.52 166.254 1089.52 164.441C1089.52 162.586 1089.92 161.011 1090.72 159.716C1091.57 158.422 1092.69 157.321 1094.09 156.415C1095.53 155.509 1097.15 154.732 1098.97 154.085C1101.13 153.394 1103.58 152.812 1106.33 152.337C1109.13 151.819 1112.23 151.302 1115.66 150.784C1117.86 150.451 1120.22 150.092 1122.73 149.706C1122.7 150.846 1122.65 152.155 1122.58 153.632C1122.49 156.221 1122.09 158.551 1121.37 160.622C1120.86 162.909 1119.78 165.11 1118.14 167.225C1116.49 169.339 1114.31 171.087 1111.6 172.468Z" fill="url(#paint1_linear_3_61)"/>
<path d="M1168.49 183.601L1143.62 113.695H1157L1175.22 166.642L1193.43 113.695H1206.81L1181.94 183.601H1168.49Z" fill="url(#paint2_linear_3_61)"/>
<path d="M1211.9 113.695L1236.77 183.601H1250.22L1275.1 113.695H1261.71L1243.5 166.642L1225.29 113.695H1211.9Z" fill="url(#paint3_linear_3_61)"/>
<path d="M1295.17 214.67L1306.47 183.301L1278.74 113.695H1292.57L1312.83 166.237L1332.16 113.695H1345.61L1307.8 214.67H1295.17Z" fill="url(#paint4_linear_3_61)"/>
<path d="M1347.68 169.296V183.601H1361.7V169.296H1347.68Z" fill="url(#paint5_linear_3_61)"/>
<path d="M1018.59 172.871C1016.07 169.455 1014.45 165.444 1013.69 160.873L1013.44 159.388L1026.02 157.345L1026.33 158.696C1027.2 162.487 1029.04 165.452 1031.84 167.666C1034.64 169.849 1038.02 170.964 1042.04 170.964C1046.09 170.964 1049.23 169.981 1051.59 168.144L1051.6 168.139C1053.97 166.314 1055.07 164.08 1055.07 161.345C1055.07 159.366 1054.49 157.885 1053.41 156.761L1053.4 156.749C1052.3 155.57 1050.35 154.448 1047.37 153.487L1047.36 153.485L1031.41 148.485C1026.51 146.937 1022.69 144.621 1020.1 141.45C1017.49 138.259 1016.22 134.323 1016.22 129.745C1016.22 125.458 1017.22 121.657 1019.29 118.402L1019.29 118.392C1021.37 115.157 1024.29 112.673 1027.97 110.931C1031.66 109.188 1035.93 108.34 1040.72 108.34H1040.73L1040.74 108.341C1045.35 108.407 1049.49 109.273 1053.13 110.976C1056.8 112.678 1059.86 115.137 1062.27 118.348C1064.72 121.561 1066.39 125.398 1067.32 129.82L1067.63 131.328L1054.65 133.687L1054.39 132.225C1053.99 129.975 1053.15 128.016 1051.88 126.321L1051.87 126.309C1050.63 124.613 1049.05 123.29 1047.12 122.333L1047.11 122.329C1045.22 121.381 1043.06 120.877 1040.61 120.847L1040.6 120.847L1040.59 120.847C1038.28 120.787 1036.26 121.16 1034.5 121.929L1034.49 121.934C1032.74 122.679 1031.4 123.715 1030.41 125.027C1029.47 126.269 1029.01 127.664 1029.01 129.264C1029.01 130.938 1029.62 132.337 1030.93 133.542C1032.3 134.802 1034.6 135.988 1037.97 137.02L1050.48 140.724C1056.34 142.494 1060.77 144.925 1063.58 148.136C1066.42 151.388 1067.77 155.651 1067.77 160.768C1067.77 165.262 1066.67 169.26 1064.41 172.705C1062.2 176.098 1059.11 178.736 1055.18 180.634L1055.17 180.638C1051.23 182.511 1046.68 183.423 1041.57 183.423C1036.67 183.423 1032.24 182.524 1028.31 180.691C1024.39 178.862 1021.14 176.259 1018.6 172.884L1018.59 172.871Z" fill="url(#paint6_linear_3_61)"/>
<path d="M398.883 332.615C405.979 342.196 409.779 353.898 409.691 365.906C409.604 377.914 405.635 389.557 398.4 399.03" stroke="url(#paint7_linear_3_61)" stroke-width="7.75865" stroke-linecap="round"/>
<path d="M424.621 312.777C435.998 328.138 442.089 346.899 441.949 366.151C441.809 385.403 435.446 404.07 423.846 419.256" stroke="url(#paint8_linear_3_61)" stroke-width="7.75865" stroke-linecap="round"/>
<path d="M450.028 293.192C465.631 314.259 473.984 339.988 473.792 366.392C473.6 392.795 464.873 418.395 448.965 439.223" stroke="url(#paint9_linear_3_61)" stroke-width="7.75865" stroke-linecap="round"/>
<rect x="107.333" y="269.81" width="228.154" height="185.473" rx="25.8622" fill="#D7D7D7"/>
<rect x="107.333" y="269.81" width="228.154" height="185.473" rx="25.8622" fill="url(#paint10_linear_3_61)"/>
<line x1="188.033" y1="455.282" x2="188.033" y2="269.81" stroke="#CDC7C7" stroke-width="2.58622"/>
<path d="M246.365 453.464V340.726H333.705" stroke="#CDC7C7" stroke-width="2.58622"/>
<path d="M246.365 397.095H335.487" stroke="#CDC7C7" stroke-width="2.58622"/>
<path d="M187.543 306.177H107.333" stroke="#CDC7C7" stroke-width="2.58622"/>
<path d="M187.543 360.728H107.333" stroke="#CDC7C7" stroke-width="2.58622"/>
<path d="M187.543 415.279H107.333" stroke="#CDC7C7" stroke-width="2.58622"/>
<defs>
<filter id="filter0_b_3_61" x="1030.67" y="595.149" width="377.934" height="380.519" filterUnits="userSpaceOnUse" color-interpolation-filters="sRGB">
<feFlood flood-opacity="0" result="BackgroundImageFix"/>
<feGaussianBlur in="BackgroundImage" stdDeviation="62.3926"/>
<feComposite in2="SourceAlpha" operator="in" result="effect1_backgroundBlur_3_61"/>
<feBlend mode="normal" in="SourceGraphic" in2="effect1_backgroundBlur_3_61" result="shape"/>
</filter>
<filter id="filter1_b_3_61" x="1110.26" y="595.149" width="377.934" height="380.519" filterUnits="userSpaceOnUse" color-interpolation-filters="sRGB">
<feFlood flood-opacity="0" result="BackgroundImageFix"/>
<feGaussianBlur in="BackgroundImage" stdDeviation="62.3926"/>
<feComposite in2="SourceAlpha" operator="in" result="effect1_backgroundBlur_3_61"/>
<feBlend mode="normal" in="SourceGraphic" in2="effect1_backgroundBlur_3_61" result="shape"/>
</filter>
<filter id="filter2_b_3_61" x="1110.26" y="609.248" width="298.348" height="352.32" filterUnits="userSpaceOnUse" color-interpolation-filters="sRGB">
<feFlood flood-opacity="0" result="BackgroundImageFix"/>
<feGaussianBlur in="BackgroundImage" stdDeviation="62.3926"/>
<feComposite in2="SourceAlpha" operator="in" result="effect1_backgroundBlur_3_61"/>
<feBlend mode="normal" in="SourceGraphic" in2="effect1_backgroundBlur_3_61" result="shape"/>
</filter>
<linearGradient id="paint0_linear_3_61" x1="1040.61" y1="108.34" x2="1040.61" y2="183.423" gradientUnits="userSpaceOnUse">
<stop stop-color="#010101"/>
<stop offset="1" stop-color="#222222"/>
</linearGradient>
<linearGradient id="paint1_linear_3_61" x1="1040.61" y1="108.34" x2="1040.61" y2="183.423" gradientUnits="userSpaceOnUse">
<stop stop-color="#010101"/>
<stop offset="1" stop-color="#222222"/>
</linearGradient>
<linearGradient id="paint2_linear_3_61" x1="1040.61" y1="108.34" x2="1040.61" y2="183.423" gradientUnits="userSpaceOnUse">
<stop stop-color="#010101"/>
<stop offset="1" stop-color="#222222"/>
</linearGradient>
<linearGradient id="paint3_linear_3_61" x1="1040.61" y1="108.34" x2="1040.61" y2="183.423" gradientUnits="userSpaceOnUse">
<stop stop-color="#010101"/>
<stop offset="1" stop-color="#222222"/>
</linearGradient>
<linearGradient id="paint4_linear_3_61" x1="1040.61" y1="108.34" x2="1040.61" y2="183.423" gradientUnits="userSpaceOnUse">
<stop stop-color="#010101"/>
<stop offset="1" stop-color="#222222"/>
</linearGradient>
<linearGradient id="paint5_linear_3_61" x1="1040.61" y1="108.34" x2="1040.61" y2="183.423" gradientUnits="userSpaceOnUse">
<stop stop-color="#010101"/>
<stop offset="1" stop-color="#222222"/>
</linearGradient>
<linearGradient id="paint6_linear_3_61" x1="1040.61" y1="108.34" x2="1040.61" y2="183.423" gradientUnits="userSpaceOnUse">
<stop stop-color="#010101"/>
<stop offset="1" stop-color="#222222"/>
</linearGradient>
<linearGradient id="paint7_linear_3_61" x1="323.982" y1="321.978" x2="390.102" y2="407.756" gradientUnits="userSpaceOnUse">
<stop stop-color="#F4F4F4"/>
<stop offset="1" stop-color="#BFBCBC"/>
</linearGradient>
<linearGradient id="paint8_linear_3_61" x1="304.537" y1="295.723" x2="410.542" y2="433.246" gradientUnits="userSpaceOnUse">
<stop stop-color="#F4F4F4"/>
<stop offset="1" stop-color="#BFBCBC"/>
</linearGradient>
<linearGradient id="paint9_linear_3_61" x1="285.338" y1="269.804" x2="430.72" y2="458.409" gradientUnits="userSpaceOnUse">
<stop stop-color="#F4F4F4"/>
<stop offset="1" stop-color="#BFBCBC"/>
</linearGradient>
<linearGradient id="paint10_linear_3_61" x1="103.22" y1="276.693" x2="352.039" y2="384.324" gradientUnits="userSpaceOnUse">
<stop stop-color="#F5F5F5"/>
<stop offset="1" stop-color="#E6E6E6" stop-opacity="0"/>
</linearGradient>
</defs>
</svg>
