<svg width="1483" height="931" viewBox="0 0 1483 931" fill="none" xmlns="http://www.w3.org/2000/svg">
<rect width="1483" height="931" fill="black"/>
<mask id="mask0_3_171" style="mask-type:alpha" maskUnits="userSpaceOnUse" x="0" y="0" width="1483" height="931">
<rect width="1483" height="931" fill="black"/>
</mask>
<g mask="url(#mask0_3_171)">
<path d="M1560 -317.232L1266.81 22.4043L1266.81 192.223L1560 443.412L1422.23 669.837L1514.08 1009.47L1005.41 974.095L1005.41 1200.52L676.901 1267.74L313.065 1112.07L178.834 1426.94L-750.183 1550.77L-750.183 882.11L-976.255 793.663L-976.255 305.435L-817.298 79.0103L-1053.97 -441.059L-884.413 -610.877L-442.865 -610.877L-206.195 -780.695L178.835 -610.877L563.864 -610.877L676.901 -893.908L1266.81 -893.907L1560 -317.232Z" stroke="#373737" stroke-width="3"/>
<path d="M361.502 200.652L392.876 262.073L392.876 343.089L333.529 399.611L259.44 414.307L245.076 447.843L145.661 461.032L145.661 389.814L138.479 304.277L113.153 248.885L131.297 230.797L178.548 230.797L286.279 230.797L298.375 200.652L361.502 200.652Z" stroke="#373737" stroke-width="3"/>
<path d="M1470.22 -275.033L1200.79 40.8405L1200.79 203.828L1469.14 437.869L1339.69 649.05L1421.62 963.127L949.237 931.034L948.132 1142.62L641.067 1205.18L301.395 1061.99L177.49 1349.9L-680.064 1461.47L-680.341 840.951L-889.299 756.018L-891.247 301.085L-743.82 91.382L-961.586 -389.377L-803.257 -546.133L-393.857 -546.133L-167.105 -702.888L188.772 -547.292L544.649 -548.451L651.419 -809.71L1198.38 -809.71L1470.22 -275.033Z" stroke="#373737" stroke-width="3"/>
<path d="M1380.44 -232.833L1134.77 59.2764L1134.77 215.433L1378.29 432.326L1257.15 628.264L1329.17 916.779L893.06 887.974L890.85 1084.72L605.231 1142.62L289.723 1011.91L176.143 1272.86L-609.948 1372.16L-610.501 799.792L-802.346 718.373L-806.242 296.735L-670.344 103.753L-869.207 -337.696L-722.103 -481.389L-344.851 -481.389L-128.018 -625.081L198.707 -483.708L525.432 -486.026L625.934 -725.514L1129.94 -725.514L1380.44 -232.833Z" stroke="#373737" stroke-width="3"/>
<path d="M1290.66 -190.633L1068.75 77.7129L1068.75 227.038L1287.43 426.783L1174.61 607.478L1236.71 870.432L836.885 844.914L833.571 1026.83L569.398 1080.05L278.054 961.833L174.799 1195.82L-539.829 1282.86L-540.658 758.634L-715.388 680.728L-721.233 292.385L-596.865 116.126L-776.825 -286.014L-640.946 -416.644L-295.842 -416.644L-88.9271 -547.273L208.645 -420.122L506.218 -423.601L600.453 -641.316L1061.51 -641.316L1290.66 -190.633Z" stroke="#373737" stroke-width="3"/>
<path d="M1200.88 -148.433L1002.73 96.1492L1002.73 238.644L1196.58 421.24L1092.08 586.691L1144.26 824.085L780.71 801.853L776.29 968.928L533.565 1017.49L266.384 911.753L173.455 1118.78L-469.711 1193.55L-470.816 717.475L-628.433 643.083L-636.226 288.035L-523.387 128.497L-684.444 -234.333L-559.79 -351.9L-246.834 -351.9L-49.8374 -469.466L218.583 -356.537L487.003 -361.175L574.971 -557.119L993.08 -557.119L1200.88 -148.433Z" stroke="#373737" stroke-width="3"/>
<path d="M1111.1 -106.234L936.713 114.585L936.713 250.248L1105.72 415.696L1009.53 565.904L1051.8 777.737L724.533 758.792L719.008 911.029L497.729 954.931L254.711 861.672L172.108 1041.74L-399.595 1104.25L-400.976 676.316L-541.479 605.437L-551.22 283.685L-449.911 140.868L-592.064 -182.652L-478.636 -287.156L-197.828 -287.156L-10.7498 -391.659L228.518 -292.953L467.786 -298.75L549.486 -472.923L924.646 -472.923L1111.1 -106.234Z" stroke="#373737" stroke-width="3"/>
<path d="M1021.32 -64.0344L870.695 133.021L870.695 261.854L1014.87 410.153L926.994 545.118L959.35 731.391L668.357 715.732L661.728 853.131L461.895 892.37L243.041 811.593L170.763 964.704L-329.477 1014.94L-331.134 635.157L-454.523 567.793L-466.212 279.335L-376.433 153.24L-499.683 -130.971L-397.481 -222.412L-148.82 -222.412L28.3398 -313.852L238.455 -229.368L448.57 -236.325L524.004 -388.726L856.214 -388.726L1021.32 -64.0344Z" stroke="#373737" stroke-width="3"/>
<path d="M931.548 -21.8354L804.677 151.457L804.677 273.458L924.017 404.609L844.456 524.331L866.898 685.043L612.183 672.67L604.448 795.232L426.062 829.807L231.372 761.512L169.419 887.663L-259.358 925.64L-261.291 593.998L-367.566 530.147L-381.204 274.985L-302.954 165.611L-407.301 -79.2902L-316.323 -157.668L-99.8108 -157.668L67.4305 -236.046L248.393 -165.784L429.356 -173.9L498.522 -304.53L787.783 -304.53L931.548 -21.8354Z" stroke="#373737" stroke-width="3"/>
<path d="M841.77 20.3639L738.659 169.892L738.659 285.063L833.163 399.066L761.917 503.544L774.444 638.695L556.008 629.609L547.168 737.334L390.228 767.246L219.702 711.432L168.075 810.623L-189.239 836.335L-191.449 552.839L-280.61 492.502L-296.196 270.634L-229.475 177.982L-314.919 -27.6093L-235.167 -92.9241L-50.8026 -92.9241L106.52 -158.239L258.331 -102.2L410.141 -111.475L473.04 -220.333L719.352 -220.333L841.77 20.3639Z" stroke="#373737" stroke-width="3"/>
<path d="M751.989 62.5641L672.638 188.329L672.638 296.668L742.307 393.523L679.375 482.758L681.988 592.348L499.83 586.549L489.886 679.436L354.392 704.684L208.03 661.352L166.728 733.583L-119.124 747.031L-121.61 511.68L-193.656 454.857L-211.19 266.285L-155.999 190.355L-222.54 24.0725L-154.014 -28.1794L-1.7967 -28.1793L145.608 -80.4312L268.266 -38.6142L390.924 -49.0491L447.556 -136.136L650.917 -136.136L751.989 62.5641Z" stroke="#373737" stroke-width="3"/>
<path d="M662.211 104.764L606.62 206.765L606.62 308.273L651.453 387.98L596.836 461.971L589.534 546.001L443.655 543.489L432.605 621.538L318.558 642.123L196.36 611.272L165.383 656.543L-49.0052 657.727L-51.7675 470.522L-106.7 417.212L-126.182 261.935L-82.5213 202.726L-130.159 75.7538L-72.8575 36.5649L47.2114 36.5649L184.698 -2.62391L278.203 24.9706L371.709 13.3763L422.073 -51.9385L582.486 -51.9385L662.211 104.764Z" stroke="#373737" stroke-width="3"/>
<path d="M572.434 146.963L540.602 225.201L540.602 319.878L560.6 382.436L514.297 441.184L497.082 499.653L387.48 500.428L375.326 563.64L282.726 579.561L184.691 561.192L164.04 579.503L21.1141 568.422L18.0755 429.363L-19.7435 379.567L-41.1734 257.585L-9.04206 215.098L-37.7764 127.435L8.2995 101.309L96.2206 101.309L223.789 75.1831L288.142 88.5552L352.494 75.8015L396.592 32.2583L514.055 32.2583L572.434 146.963Z" stroke="#373737" stroke-width="3"/>
<path d="M482.654 189.163L474.582 243.637L474.582 331.484L469.744 376.893L431.756 420.398L404.626 453.306L331.303 457.368L318.044 505.742L246.89 516.999L173.018 511.112L162.693 502.463L91.2301 479.118L87.9153 388.204L67.2103 341.922L43.8322 253.235L64.4339 227.469L54.6028 179.116L89.4534 166.053L145.227 166.053L262.876 152.99L298.077 152.14L333.277 138.227L371.108 116.455L445.621 116.455L482.654 189.163Z" stroke="#373737" stroke-width="3"/>
</g>
<path d="M169.124 630.839V643.245H183.743V631.071C188.394 630.522 192.613 629.366 196.402 627.603C201.904 624.996 206.171 621.411 209.202 616.849C212.279 612.24 213.818 606.863 213.818 600.718C213.818 593.689 211.929 588.056 208.153 583.82C204.376 579.583 198.244 576.208 189.758 573.694L171.223 568.317C166.094 566.781 162.34 564.942 159.962 562.801C157.584 560.659 156.395 558.052 156.395 554.98C156.395 552.186 157.234 549.696 158.913 547.508C160.638 545.273 162.946 543.551 165.837 542.34C168.775 541.083 172.085 540.501 175.769 540.595C179.686 540.641 183.206 541.432 186.33 542.969C189.501 544.505 192.112 546.646 194.164 549.393C196.262 552.14 197.638 555.305 198.291 558.89L213.188 556.237C211.883 550.091 209.528 544.831 206.124 540.455C202.767 536.079 198.524 532.727 193.395 530.399C190.431 529.042 187.214 528.065 183.743 527.467V514.897H169.124V527.192C165.024 527.728 161.294 528.774 157.934 530.329C152.805 532.704 148.818 536.056 145.973 540.385C143.176 544.715 141.777 549.812 141.777 555.678C141.777 568.108 148.771 576.487 162.76 580.817L186.4 588.079C190.97 589.522 194.257 591.291 196.262 593.386C198.314 595.481 199.34 598.205 199.34 601.556C199.34 606.258 197.335 610.122 193.325 613.148C189.361 616.174 184.209 617.687 177.867 617.687C171.479 617.687 166 615.941 161.431 612.45C156.861 608.912 153.877 604.163 152.478 598.205L138 600.509C139.072 606.84 141.357 612.334 144.854 616.989C148.398 621.598 152.921 625.159 158.423 627.673C161.722 629.18 165.289 630.236 169.124 630.839Z" fill="#E9FF6B"/>
<path fill-rule="evenodd" clip-rule="evenodd" d="M302.96 628.371C306.737 630.42 311.423 631.444 317.019 631.444C324.06 631.444 329.981 630.047 334.784 627.254C338.415 625.128 341.563 622.179 344.226 618.408V629.349H357.166V582.912C357.166 579.746 357.026 576.79 356.746 574.043C356.466 571.297 355.72 568.69 354.508 566.222C352.177 561.241 348.493 557.61 343.457 555.329C338.468 553.001 332.593 551.837 325.831 551.837C317.112 551.837 310.118 553.746 304.849 557.563C299.626 561.381 296.083 566.525 294.217 572.996L307.856 577.186C309.162 572.949 311.47 569.923 314.781 568.108C318.091 566.246 321.728 565.314 325.692 565.314C331.986 565.314 336.416 566.758 338.981 569.644C341.26 572.123 342.509 575.772 342.728 580.591C339.864 580.992 336.983 581.393 334.085 581.794C329.422 582.446 324.969 583.144 320.726 583.889C316.482 584.634 312.682 585.495 309.325 586.473C305.455 587.73 302.191 589.383 299.533 591.431C296.875 593.433 294.87 595.877 293.518 598.763C292.166 601.649 291.49 605.001 291.49 608.819C291.49 612.915 292.445 616.686 294.357 620.131C296.316 623.53 299.183 626.276 302.96 628.371ZM330.308 617.338C327.324 618.781 323.757 619.503 319.607 619.503C316.482 619.503 313.918 619.014 311.913 618.036C309.908 617.059 308.416 615.755 307.437 614.126C306.457 612.45 305.968 610.634 305.968 608.679C305.968 606.677 306.411 604.978 307.297 603.581C308.229 602.185 309.465 600.998 311.004 600.02C312.589 599.042 314.384 598.205 316.389 597.506C318.767 596.761 321.472 596.133 324.503 595.621C327.58 595.062 331.007 594.504 334.784 593.945C337.209 593.586 339.808 593.199 342.579 592.782C342.545 594.012 342.488 595.424 342.408 597.017C342.315 599.811 341.872 602.325 341.079 604.559C340.519 607.026 339.33 609.401 337.512 611.682C335.693 613.963 333.292 615.848 330.308 617.338Z" fill="#E9FF6B"/>
<path d="M393.019 629.349L365.602 553.932H380.359L400.433 611.053L420.507 553.932H435.264L407.847 629.349H393.019Z" fill="#E9FF6B"/>
<path d="M440.872 553.932L468.289 629.349H483.117L510.535 553.932H495.777L475.703 611.053L455.63 553.932H440.872Z" fill="#E9FF6B"/>
<path d="M532.665 662.867L545.116 629.025L514.55 553.932H529.797L552.127 610.616L573.442 553.932H588.27L546.584 662.867H532.665Z" fill="#E9FF6B"/>
<path d="M590.543 613.916V629.349H606V613.916H590.543Z" fill="#E9FF6B"/>
<path d="M227.779 617.773C225.007 614.088 223.215 609.761 222.378 604.829L222.106 603.227L235.967 601.024L236.31 602.481C237.271 606.57 239.297 609.77 242.385 612.158C245.472 614.512 249.194 615.716 253.633 615.716C258.095 615.716 261.556 614.656 264.156 612.674L264.163 612.668C266.776 610.7 267.998 608.289 267.998 605.339C267.998 603.204 267.357 601.606 266.168 600.394L266.156 600.381C264.936 599.108 262.79 597.898 259.503 596.861L259.496 596.859L241.914 591.465C236.512 589.795 232.302 587.297 229.443 583.876C226.566 580.433 225.166 576.187 225.166 571.247C225.166 566.623 226.274 562.522 228.546 559.01L228.553 559C230.849 555.509 234.059 552.83 238.123 550.951C242.192 549.07 246.89 548.156 252.175 548.156H252.187L252.198 548.156C257.274 548.228 261.838 549.162 265.855 550.999C269.905 552.835 273.272 555.489 275.934 558.952C278.634 562.419 280.477 566.558 281.492 571.328L281.838 572.955L267.531 575.5L267.244 573.923C266.801 571.495 265.876 569.382 264.478 567.554L264.467 567.54C263.099 565.712 261.361 564.284 259.227 563.252L259.218 563.248C257.135 562.224 254.757 561.681 252.052 561.648L252.041 561.648L252.031 561.648C249.486 561.584 247.258 561.986 245.315 562.816L245.304 562.821C243.382 563.624 241.901 564.743 240.806 566.158C239.777 567.498 239.267 569.003 239.267 570.729C239.267 572.535 239.942 574.044 241.388 575.344C242.899 576.703 245.426 577.983 249.144 579.096L262.938 583.092C269.393 585.001 274.279 587.625 277.371 591.088C280.503 594.597 281.995 599.196 281.995 604.716C281.995 609.564 280.775 613.877 278.29 617.595C275.855 621.254 272.443 624.1 268.115 626.148L268.105 626.153C263.758 628.173 258.747 629.157 253.112 629.157C247.712 629.157 242.829 628.187 238.494 626.209C234.171 624.237 230.593 621.429 227.79 617.787L227.779 617.773Z" fill="#E9FF6B"/>
<path d="M1249.51 180.339C1250.89 182.063 1251.93 184.132 1252.62 186.201C1253.31 188.27 1253.65 190.683 1253.65 193.097C1253.65 195.511 1253.31 197.924 1252.62 199.993C1251.93 202.062 1250.89 204.131 1249.51 205.855C1247.79 208.269 1248.13 211.717 1250.55 213.441C1252.96 215.165 1256.41 214.82 1258.13 212.407C1260.2 209.648 1261.58 206.89 1262.96 203.441C1264.34 199.993 1264.69 196.545 1264.69 193.097C1264.69 189.649 1264 186.201 1262.96 182.753C1261.93 179.649 1260.2 176.546 1258.13 173.787C1256.41 171.374 1252.96 171.029 1250.55 172.753C1248.13 174.477 1247.79 177.925 1249.51 180.339Z" fill="#FAFAFA"/>
<path d="M1268.48 170.339C1272.62 176.891 1275.03 184.821 1275.03 193.097C1275.03 201.373 1272.62 209.303 1268.48 215.855C1266.76 218.268 1267.79 221.717 1270.21 223.441C1272.96 225.165 1276.07 224.13 1277.79 221.717C1282.97 213.441 1286.07 203.786 1286.07 193.097C1286.07 182.753 1282.97 172.753 1277.79 164.477C1276.07 162.064 1272.62 161.029 1270.21 162.753C1267.79 164.477 1266.76 167.581 1268.48 170.339Z" fill="#FAFAFA"/>
<path d="M1288.48 159.995C1294.35 169.65 1297.45 181.028 1297.45 193.097C1297.45 205.165 1294 216.544 1288.48 226.199C1287.1 228.958 1287.79 232.061 1290.55 233.785C1293.31 235.164 1296.42 234.475 1298.14 231.716C1305.04 220.337 1308.83 207.234 1308.83 193.097C1308.83 178.96 1305.04 165.857 1298.14 154.478C1296.76 151.719 1293.31 151.03 1290.55 152.409C1287.79 154.133 1287.1 157.236 1288.48 159.995Z" fill="#FAFAFA"/>
<path d="M1308.49 149.65C1315.73 162.408 1320.21 177.235 1320.21 193.097C1320.21 208.958 1316.07 223.785 1308.49 236.544C1307.11 239.302 1307.8 242.405 1310.56 244.13C1313.32 245.509 1316.42 244.819 1318.14 242.061C1326.42 227.578 1331.25 211.027 1331.25 193.097C1331.25 175.167 1326.42 158.615 1318.14 144.133C1316.76 141.375 1313.32 140.685 1310.56 142.064C1307.8 143.444 1307.11 146.892 1308.49 149.65Z" fill="#FAFAFA"/>
<g filter="url(#filter0_b_3_171)">
<ellipse cx="1228.2" cy="757.306" rx="64.344" ry="64.3311" fill="#FAFAFA" fill-opacity="0.3"/>
</g>
<g filter="url(#filter1_b_3_171)">
<path d="M1372.33 757.306C1372.33 792.835 1343.52 821.637 1307.98 821.637C1272.45 821.637 1243.64 792.835 1243.64 757.306C1243.64 721.777 1272.45 692.975 1307.98 692.975C1343.52 692.975 1372.33 721.777 1372.33 757.306Z" fill="#FAFAFA" fill-opacity="0.7"/>
</g>
<g filter="url(#filter2_b_3_171)">
<path d="M1268.09 706.828C1253.2 718.611 1243.64 736.842 1243.64 757.306C1243.64 777.769 1253.2 796.001 1268.09 807.783C1282.99 796.001 1292.54 777.769 1292.54 757.306C1292.54 736.842 1282.99 718.611 1268.09 706.828Z" fill="#FAFAFA" fill-opacity="0.6"/>
</g>
<path d="M146.355 747.284C144.507 747.284 142.796 746.926 141.224 746.208C139.679 745.491 138.409 744.456 137.416 743.104L140.479 739.421C141.279 740.525 142.148 741.352 143.086 741.904C144.052 742.456 145.1 742.732 146.231 742.732C149.239 742.732 150.742 740.952 150.742 737.393V722.411H140.437V717.9H156.123V737.103C156.123 740.525 155.281 743.077 153.598 744.76C151.943 746.443 149.528 747.284 146.355 747.284ZM173.105 747.16C170.843 747.16 168.829 746.677 167.063 745.712C165.297 744.718 163.904 743.366 162.883 741.656C161.862 739.945 161.351 738 161.351 735.82C161.351 733.613 161.862 731.668 162.883 729.985C163.904 728.274 165.297 726.936 167.063 725.97C168.829 725.005 170.843 724.522 173.105 724.522C175.395 724.522 177.423 725.005 179.189 725.97C180.982 726.936 182.376 728.26 183.369 729.943C184.39 731.626 184.9 733.585 184.9 735.82C184.9 738 184.39 739.945 183.369 741.656C182.376 743.366 180.982 744.718 179.189 745.712C177.423 746.677 175.395 747.16 173.105 747.16ZM173.105 742.732C174.374 742.732 175.505 742.456 176.499 741.904C177.492 741.352 178.265 740.552 178.816 739.504C179.396 738.455 179.685 737.227 179.685 735.82C179.685 734.386 179.396 733.158 178.816 732.137C178.265 731.088 177.492 730.288 176.499 729.737C175.505 729.185 174.388 728.909 173.146 728.909C171.877 728.909 170.746 729.185 169.753 729.737C168.787 730.288 168.015 731.088 167.435 732.137C166.856 733.158 166.566 734.386 166.566 735.82C166.566 737.227 166.856 738.455 167.435 739.504C168.015 740.552 168.787 741.352 169.753 741.904C170.746 742.456 171.864 742.732 173.105 742.732ZM191.062 755.189C189.986 755.189 188.91 755.01 187.834 754.651C186.758 754.292 185.861 753.796 185.144 753.161L187.213 749.354C187.737 749.823 188.33 750.195 188.992 750.471C189.655 750.747 190.331 750.885 191.02 750.885C191.958 750.885 192.717 750.65 193.297 750.181C193.876 749.712 194.414 748.926 194.911 747.822L196.194 744.925L196.608 744.304L204.967 724.77H209.934L199.587 748.65C198.898 750.305 198.125 751.616 197.27 752.582C196.442 753.547 195.504 754.223 194.455 754.61C193.435 754.996 192.303 755.189 191.062 755.189ZM195.614 747.657L185.64 724.77H191.02L199.132 743.849L195.614 747.657ZM225.101 746.87V717.9H230.482V742.318H245.629V746.87H225.101ZM263.036 746.87V742.401L262.747 741.449V733.627C262.747 732.109 262.291 730.937 261.381 730.109C260.47 729.254 259.091 728.826 257.242 728.826C256.001 728.826 254.773 729.019 253.559 729.405C252.373 729.792 251.365 730.33 250.538 731.02L248.51 727.253C249.696 726.343 251.103 725.667 252.731 725.225C254.387 724.756 256.097 724.522 257.863 724.522C261.064 724.522 263.533 725.294 265.271 726.84C267.037 728.357 267.92 730.716 267.92 733.917V746.87H263.036ZM256.083 747.16C254.428 747.16 252.98 746.884 251.738 746.332C250.496 745.753 249.531 744.967 248.841 743.973C248.179 742.952 247.848 741.807 247.848 740.538C247.848 739.297 248.137 738.179 248.717 737.186C249.324 736.193 250.303 735.406 251.655 734.827C253.007 734.248 254.8 733.958 257.035 733.958H263.45V737.393H257.408C255.642 737.393 254.456 737.683 253.849 738.262C253.242 738.814 252.938 739.504 252.938 740.331C252.938 741.269 253.311 742.014 254.056 742.566C254.8 743.118 255.835 743.394 257.159 743.394C258.429 743.394 259.56 743.104 260.553 742.525C261.574 741.945 262.305 741.09 262.747 739.959L263.616 743.063C263.119 744.36 262.222 745.367 260.926 746.084C259.656 746.801 258.042 747.16 256.083 747.16ZM274.559 746.87V724.77H279.484V730.854L278.905 729.074C279.567 727.584 280.601 726.453 282.009 725.681C283.443 724.908 285.223 724.522 287.347 724.522V729.447C287.127 729.392 286.92 729.364 286.727 729.364C286.533 729.336 286.34 729.323 286.147 729.323C284.188 729.323 282.629 729.902 281.471 731.061C280.312 732.192 279.732 733.889 279.732 736.151V746.87H274.559ZM301.466 747.16C299.204 747.16 297.19 746.677 295.424 745.712C293.658 744.718 292.265 743.366 291.244 741.656C290.223 739.945 289.713 738 289.713 735.82C289.713 733.613 290.223 731.668 291.244 729.985C292.265 728.274 293.658 726.936 295.424 725.97C297.19 725.005 299.204 724.522 301.466 724.522C303.757 724.522 305.784 725.005 307.55 725.97C309.344 726.936 310.737 728.26 311.73 729.943C312.751 731.626 313.262 733.585 313.262 735.82C313.262 738 312.751 739.945 311.73 741.656C310.737 743.366 309.344 744.718 307.55 745.712C305.784 746.677 303.757 747.16 301.466 747.16ZM301.466 742.732C302.736 742.732 303.867 742.456 304.86 741.904C305.853 741.352 306.626 740.552 307.178 739.504C307.757 738.455 308.047 737.227 308.047 735.82C308.047 734.386 307.757 733.158 307.178 732.137C306.626 731.088 305.853 730.288 304.86 729.737C303.867 729.185 302.749 728.909 301.508 728.909C300.239 728.909 299.107 729.185 298.114 729.737C297.149 730.288 296.376 731.088 295.797 732.137C295.217 733.158 294.927 734.386 294.927 735.82C294.927 737.227 295.217 738.455 295.797 739.504C296.376 740.552 297.149 741.352 298.114 741.904C299.107 742.456 300.225 742.732 301.466 742.732ZM319.423 755.189C318.347 755.189 317.271 755.01 316.195 754.651C315.119 754.292 314.222 753.796 313.505 753.161L315.574 749.354C316.099 749.823 316.692 750.195 317.354 750.471C318.016 750.747 318.692 750.885 319.382 750.885C320.32 750.885 321.079 750.65 321.658 750.181C322.237 749.712 322.775 748.926 323.272 747.822L324.555 744.925L324.969 744.304L333.329 724.77H338.295L327.949 748.65C327.259 750.305 326.486 751.616 325.631 752.582C324.803 753.547 323.865 754.223 322.817 754.61C321.796 754.996 320.665 755.189 319.423 755.189ZM323.976 747.657L314.002 724.77H319.382L327.493 743.849L323.976 747.657Z" fill="#FAFAFA"/>
<path d="M416.868 746.87V719.969L419.227 722.411H410.743V717.9H422.249V746.87H416.868ZM427.623 746.87V743.27L439.128 732.344C440.094 731.433 440.811 730.633 441.28 729.943C441.749 729.254 442.053 728.619 442.191 728.04C442.356 727.433 442.439 726.867 442.439 726.343C442.439 725.019 441.984 723.998 441.073 723.28C440.163 722.535 438.825 722.163 437.059 722.163C435.652 722.163 434.369 722.411 433.21 722.908C432.079 723.404 431.099 724.163 430.272 725.184L426.505 722.287C427.637 720.77 429.154 719.597 431.058 718.769C432.989 717.914 435.141 717.486 437.514 717.486C439.611 717.486 441.432 717.831 442.977 718.521C444.55 719.183 445.75 720.135 446.578 721.377C447.433 722.618 447.861 724.094 447.861 725.805C447.861 726.743 447.737 727.681 447.488 728.619C447.24 729.53 446.771 730.495 446.081 731.516C445.391 732.537 444.384 733.682 443.06 734.951L433.169 744.346L432.051 742.318H448.978V746.87H427.623ZM449.425 751.009L463.082 712.023H467.718L454.06 751.009H449.425ZM467.473 746.87V743.27L478.978 732.344C479.944 731.433 480.661 730.633 481.131 729.943C481.6 729.254 481.903 728.619 482.041 728.04C482.207 727.433 482.289 726.867 482.289 726.343C482.289 725.019 481.834 723.998 480.924 723.28C480.013 722.535 478.675 722.163 476.909 722.163C475.502 722.163 474.219 722.411 473.06 722.908C471.929 723.404 470.95 724.163 470.122 725.184L466.356 722.287C467.487 720.77 469.004 719.597 470.908 718.769C472.84 717.914 474.992 717.486 477.364 717.486C479.461 717.486 481.282 717.831 482.827 718.521C484.4 719.183 485.6 720.135 486.428 721.377C487.283 722.618 487.711 724.094 487.711 725.805C487.711 726.743 487.587 727.681 487.338 728.619C487.09 729.53 486.621 730.495 485.931 731.516C485.242 732.537 484.234 733.682 482.91 734.951L473.019 744.346L471.901 742.318H488.828V746.87H467.473ZM490.913 740.29V736.565L505.192 717.9H510.944L496.873 736.565L494.183 735.738H517.152V740.29H490.913ZM506.806 746.87V740.29L506.971 735.738V729.902H512.02V746.87H506.806Z" fill="#FAFAFA"/>
<defs>
<filter id="filter0_b_3_171" x="991.412" y="520.533" width="473.572" height="473.546" filterUnits="userSpaceOnUse" color-interpolation-filters="sRGB">
<feFlood flood-opacity="0" result="BackgroundImageFix"/>
<feGaussianBlur in="BackgroundImage" stdDeviation="86.2209"/>
<feComposite in2="SourceAlpha" operator="in" result="effect1_backgroundBlur_3_171"/>
<feBlend mode="normal" in="SourceGraphic" in2="effect1_backgroundBlur_3_171" result="shape"/>
</filter>
<filter id="filter1_b_3_171" x="1071.2" y="520.533" width="473.572" height="473.546" filterUnits="userSpaceOnUse" color-interpolation-filters="sRGB">
<feFlood flood-opacity="0" result="BackgroundImageFix"/>
<feGaussianBlur in="BackgroundImage" stdDeviation="86.2209"/>
<feComposite in2="SourceAlpha" operator="in" result="effect1_backgroundBlur_3_171"/>
<feBlend mode="normal" in="SourceGraphic" in2="effect1_backgroundBlur_3_171" result="shape"/>
</filter>
<filter id="filter2_b_3_171" x="1071.2" y="534.386" width="393.785" height="445.839" filterUnits="userSpaceOnUse" color-interpolation-filters="sRGB">
<feFlood flood-opacity="0" result="BackgroundImageFix"/>
<feGaussianBlur in="BackgroundImage" stdDeviation="86.2209"/>
<feComposite in2="SourceAlpha" operator="in" result="effect1_backgroundBlur_3_171"/>
<feBlend mode="normal" in="SourceGraphic" in2="effect1_backgroundBlur_3_171" result="shape"/>
</filter>
</defs>
</svg>
