<svg width="285" height="372" viewBox="0 0 285 372" fill="none" xmlns="http://www.w3.org/2000/svg">
<g clip-path="url(#clip0_106_259)">
<rect width="211.921" height="133.067" transform="matrix(0.707731 0.706482 -0.707731 0.706482 135.251 127.688)" fill="black"/>
<mask id="mask0_106_259" style="mask-type:alpha" maskUnits="userSpaceOnUse" x="41" y="127" width="245" height="245">
<rect width="211.921" height="133.067" transform="matrix(0.707731 0.706482 -0.707731 0.706482 135.251 127.687)" fill="black"/>
</mask>
<g mask="url(#mask0_106_259)">
<path d="M325.111 253.146L261.103 257.842L243.925 274.99L248.168 329.954L211.331 338.909L186.263 382.477L138.398 327.551L115.494 350.415L75.4707 324.037L54.4207 271.587L8.9944 289.83L-97.4874 208.543L-29.8489 141.024L-43.7659 109.269L5.62088 59.9697L44.6011 53.1539L73.2731 -23.2544L107.599 -23.2844L152.255 21.2928L193.369 28.0384L215.131 84.0575L254.071 122.929L294.133 105.761L353.793 165.316L325.111 253.146Z" stroke="#373737" stroke-width="0.428701"/>
<path d="M151.514 184.444L148.474 193.814L140.279 201.995L128.56 201.711L119.58 195.715L114.735 197.651L103.347 188.946L110.551 181.755L118.477 172.393L121.519 164.242L125.183 164.248L129.962 169.018L140.857 179.894L145.13 178.071L151.514 184.444Z" stroke="#373737" stroke-width="0.428701"/>
<path d="M311.762 248.344L252.562 253.039L236.074 269.497L239.54 320.222L205.086 328.477L181.601 368.463L137.073 317.532L115.558 338.786L78.1751 314.102L58.3063 265.352L16.6514 281.915L-81.3624 206.604L-18.622 143.919L-31.1636 114.247L14.6582 68.1127L50.7808 61.8214L77.3883 -8.70911L109.258 -8.55339L150.662 32.7782L189.451 39.8417L209.704 91.4814L245.813 127.293L283.038 111.69L338.355 166.91L311.762 248.344Z" stroke="#373737" stroke-width="0.428701"/>
<path d="M298.414 243.541L244.02 248.235L228.224 264.004L230.912 310.489L198.841 318.045L176.939 354.449L135.747 307.512L115.621 327.156L80.8792 304.167L62.1916 259.116L24.3081 274L-65.2376 204.665L-7.39542 146.814L-18.5616 119.224L23.6952 76.2553L56.9603 70.4884L81.5032 5.83571L110.916 6.17723L149.069 44.2633L185.534 51.6444L204.276 98.905L237.554 131.656L271.944 117.62L322.917 168.503L298.414 243.541Z" stroke="#373737" stroke-width="0.428701"/>
<path d="M285.065 238.739L235.478 243.432L220.373 258.511L222.284 300.757L192.596 307.614L172.277 340.435L134.422 297.493L115.685 315.527L83.5837 294.232L66.0773 252.882L31.9653 266.085L-49.1126 202.727L3.83158 149.709L-5.95921 124.202L32.7326 84.3983L63.1402 79.1559L85.6185 20.381L112.574 20.9083L147.477 55.7488L181.617 63.4477L198.85 106.329L229.297 136.02L260.85 123.549L307.479 170.096L285.065 238.739Z" stroke="#373737" stroke-width="0.428701"/>
<path d="M271.717 233.936L226.936 238.629L212.522 253.017L213.656 291.025L186.351 297.182L167.615 326.421L133.096 287.474L115.749 303.898L86.2881 284.297L69.9629 246.646L39.6223 258.17L-32.9876 200.788L15.0584 152.604L6.64303 129.179L41.7698 92.5409L69.3199 87.8231L89.7336 34.9259L114.233 35.639L145.884 67.234L177.699 75.2506L193.423 113.753L221.039 140.383L249.756 129.478L292.041 171.689L271.717 233.936Z" stroke="#373737" stroke-width="0.428701"/>
<path d="M258.368 229.133L218.394 233.825L204.671 247.524L205.028 281.293L180.106 286.749L162.953 312.407L131.771 277.454L115.812 292.269L88.9923 274.362L73.8484 240.411L47.2792 250.255L-16.8627 198.849L26.2852 155.498L19.2452 134.156L50.807 100.684L75.4995 96.4902L93.8486 49.4708L115.891 50.3697L144.291 78.7191L173.782 87.0535L187.996 121.176L212.78 144.746L238.662 135.407L276.604 173.282L258.368 229.133Z" stroke="#373737" stroke-width="0.428701"/>
<path d="M245.02 224.331L209.853 229.022L196.821 242.031L196.401 271.561L173.861 276.318L158.291 298.394L130.445 267.435L115.876 280.64L91.6967 264.427L77.734 234.176L54.9361 242.34L-0.737724 196.91L37.5121 158.393L31.8475 139.134L59.8443 108.827L81.6793 105.158L97.9638 64.016L117.55 65.1007L142.698 90.2046L169.865 98.8567L182.569 128.6L204.522 149.11L227.568 141.337L261.166 174.876L245.02 224.331Z" stroke="#373737" stroke-width="0.428701"/>
<path d="M231.672 219.528L201.311 224.218L188.97 236.538L187.773 261.829L167.616 265.886L153.629 284.38L129.12 257.415L115.94 269.01L94.4012 254.492L81.6197 227.941L62.5932 234.425L15.3874 194.971L48.7391 161.288L44.4498 144.112L68.8816 116.969L87.8591 113.825L102.079 78.5611L119.208 79.8315L141.105 101.69L165.948 110.66L177.142 136.024L196.265 153.474L216.474 147.266L245.728 176.469L231.672 219.528Z" stroke="#373737" stroke-width="0.428701"/>
<path d="M218.323 214.726L192.77 219.415L181.119 231.045L179.145 252.097L161.371 255.454L148.967 270.366L127.794 247.396L116.004 257.381L97.1057 244.558L85.5054 221.706L70.2504 226.51L31.5125 193.033L59.9661 164.183L57.0522 149.089L77.919 125.112L94.039 122.492L106.194 93.1064L120.867 94.5626L139.513 113.175L162.03 122.463L171.715 143.448L188.007 157.838L205.38 153.195L230.29 178.062L218.323 214.726Z" stroke="#373737" stroke-width="0.428701"/>
<path d="M204.975 209.923L184.228 214.611L173.269 225.551L170.517 242.365L155.126 245.022L144.305 256.352L126.469 237.376L116.067 245.752L99.8098 234.622L89.3907 215.471L77.9071 218.595L47.6372 191.094L71.1927 167.078L69.6543 154.066L86.9561 133.255L100.218 131.16L110.309 107.651L122.525 109.293L137.92 124.661L158.113 134.266L166.288 150.871L179.748 162.201L194.285 159.125L214.852 179.655L204.975 209.923Z" stroke="#373737" stroke-width="0.428701"/>
<path d="M191.626 205.121L175.686 209.808L165.418 220.058L161.889 232.633L148.881 234.59L139.643 242.338L125.143 227.357L116.131 234.123L102.514 224.687L93.2763 209.235L85.5641 210.679L63.7622 189.155L82.4196 169.973L82.2565 159.044L95.9933 141.398L106.398 139.827L114.424 122.196L124.184 124.024L136.327 136.146L154.196 146.069L160.861 158.295L171.49 166.564L183.191 165.054L199.414 181.249L191.626 205.121Z" stroke="#373737" stroke-width="0.428701"/>
<path d="M178.278 200.318L167.144 205.005L157.567 214.565L153.262 222.901L142.636 224.158L134.981 228.324L123.818 217.338L116.194 222.493L105.219 214.752L97.162 203L93.2212 202.764L79.8873 187.216L93.6466 172.868L94.8589 164.021L105.031 149.541L112.578 148.494L118.54 136.741L125.842 138.755L134.734 147.631L150.279 157.872L155.434 165.719L163.233 170.928L172.097 170.983L183.977 182.842L178.278 200.318Z" stroke="#373737" stroke-width="0.428701"/>
<path d="M164.929 195.516L158.602 200.201L149.716 209.072L144.634 213.169L136.391 213.726L130.318 214.31L122.492 207.318L116.258 210.864L107.923 204.818L101.047 196.765L100.878 194.849L96.0121 185.278L104.873 175.763L107.461 168.999L114.068 157.683L118.758 157.162L122.655 151.287L127.501 153.486L133.141 159.117L146.361 169.675L150.007 173.143L154.974 175.292L161.003 176.912L168.539 184.435L164.929 195.516Z" stroke="#373737" stroke-width="0.428701"/>
</g>
<path d="M88.5427 208.462L87.2877 209.714L88.7661 211.19L89.9976 209.961C90.5235 210.375 91.0672 210.684 91.6287 210.889C92.4489 211.181 93.243 211.25 94.011 211.095C94.7885 210.94 95.488 210.553 96.1096 209.932C96.8207 209.222 97.1995 208.463 97.246 207.654C97.2926 206.845 97.0139 205.885 96.4099 204.774L95.0793 202.36C94.716 201.687 94.5224 201.123 94.4985 200.666C94.4746 200.21 94.6181 199.827 94.9289 199.516C95.2114 199.234 95.5482 199.068 95.9393 199.016C96.3398 198.965 96.7475 199.024 97.1623 199.193C97.5866 199.363 97.9802 199.639 98.3434 200.02C98.7348 200.42 99.0108 200.855 99.1713 201.326C99.3366 201.801 99.3841 202.281 99.3137 202.765C99.2481 203.255 99.067 203.713 98.7704 204.141L100.546 205.377C101.035 204.625 101.329 203.856 101.427 203.07C101.531 202.289 101.441 201.523 101.157 200.77C100.995 200.334 100.768 199.91 100.478 199.499L101.749 198.23L100.271 196.754L99.0271 197.996C98.5582 197.636 98.0751 197.365 97.578 197.183C96.8191 196.905 96.0768 196.841 95.3512 196.991C94.6303 197.145 93.9732 197.519 93.3798 198.111C92.1225 199.366 91.9822 200.919 92.959 202.768L94.6153 205.888C94.9314 206.495 95.0849 207.006 95.0758 207.419C95.0714 207.838 94.8996 208.217 94.5606 208.555C94.085 209.03 93.4913 209.218 92.7797 209.118C92.0727 209.024 91.3986 208.656 90.7573 208.016C90.1112 207.371 89.7337 206.642 89.6247 205.828C89.5205 205.009 89.699 204.229 90.1603 203.486L88.463 202.257C87.931 203.004 87.6064 203.79 87.4891 204.613C87.3813 205.436 87.4785 206.252 87.7807 207.062C87.9618 207.547 88.2158 208.013 88.5427 208.462Z" fill="#E9FF6B"/>
<path fill-rule="evenodd" clip-rule="evenodd" d="M102.328 221.724C102.503 222.312 102.873 222.889 103.439 223.454C104.151 224.164 104.891 224.621 105.659 224.824C106.242 224.976 106.858 224.996 107.509 224.884L106.402 225.989L107.711 227.295L112.408 222.606C112.729 222.286 113.013 221.974 113.263 221.668C113.513 221.363 113.701 221.024 113.828 220.653C114.096 219.914 114.091 219.176 113.812 218.437C113.543 217.698 113.066 216.987 112.383 216.305C111.501 215.425 110.6 214.911 109.681 214.765C108.767 214.623 107.888 214.785 107.045 215.25L108.001 217.05C108.561 216.754 109.101 216.681 109.619 216.832C110.142 216.978 110.604 217.251 111.005 217.652C111.642 218.287 111.944 218.88 111.911 219.43C111.891 219.911 111.648 220.405 111.183 220.914C110.853 220.666 110.521 220.415 110.187 220.163C109.65 219.758 109.129 219.379 108.624 219.026C108.12 218.673 107.648 218.376 107.21 218.136C106.691 217.872 106.194 217.709 105.718 217.648C105.247 217.582 104.797 217.626 104.368 217.781C103.939 217.936 103.532 218.206 103.146 218.592C102.731 219.005 102.446 219.483 102.291 220.023C102.146 220.564 102.158 221.131 102.328 221.724ZM106.21 223.371C105.762 223.215 105.328 222.928 104.908 222.509C104.592 222.194 104.383 221.885 104.279 221.584C104.175 221.283 104.156 221.001 104.221 220.737C104.292 220.469 104.426 220.237 104.624 220.039C104.826 219.837 105.043 219.71 105.274 219.659C105.51 219.612 105.755 219.617 106.009 219.673C106.268 219.735 106.535 219.831 106.808 219.963C107.124 220.128 107.461 220.338 107.819 220.592C108.187 220.846 108.59 221.136 109.029 221.461C109.31 221.669 109.612 221.892 109.935 222.13C109.807 222.251 109.658 222.388 109.489 222.541C109.197 222.813 108.898 223.022 108.592 223.168C108.285 223.361 107.925 223.48 107.51 223.527C107.096 223.574 106.662 223.522 106.21 223.371Z" fill="#E9FF6B"/>
<path d="M111.337 230.915L116.193 220.531L117.685 222.021L113.937 229.816L121.746 226.074L123.238 227.564L112.837 232.412L111.337 230.915Z" fill="#E9FF6B"/>
<path d="M123.805 228.13L118.949 238.514L120.449 240.011L130.851 235.163L129.358 233.674L121.55 237.415L125.298 229.62L123.805 228.13Z" fill="#E9FF6B"/>
<path d="M122.07 248.398L126.752 246.237L131.257 235.569L132.799 237.108L129.323 245.086L137.213 241.514L138.712 243.011L123.477 249.803L122.07 248.398Z" fill="#E9FF6B"/>
<path d="M132.875 249.298L131.314 250.856L132.877 252.417L134.438 250.858L132.875 249.298Z" fill="#E9FF6B"/>
<path d="M95.7964 213.064C95.8888 212.412 96.1453 211.794 96.5595 211.212L96.6941 211.022L98.3188 212.199L98.2061 212.381C97.8896 212.891 97.7709 213.419 97.8415 213.971C97.9156 214.521 98.1702 215.018 98.6192 215.466C99.0704 215.917 99.5278 216.159 99.9912 216.221L99.9925 216.222C100.456 216.287 100.823 216.167 101.122 215.869C101.338 215.653 101.435 215.427 101.437 215.185L101.437 215.182C101.442 214.93 101.348 214.592 101.12 214.155L101.12 214.154L99.8872 211.834C99.5097 211.12 99.3367 210.443 99.3936 209.809C99.4508 209.171 99.7387 208.601 100.238 208.102C100.706 207.635 101.233 207.333 101.818 207.208L101.82 207.207C102.405 207.087 103.001 207.14 103.602 207.361C104.204 207.581 104.771 207.963 105.306 208.497L105.307 208.498L105.308 208.499C105.814 209.019 106.181 209.574 106.402 210.165C106.626 210.759 106.698 211.367 106.617 211.986C106.539 212.608 106.307 213.212 105.927 213.797L105.797 213.996L104.093 212.808L104.223 212.62C104.424 212.33 104.544 212.024 104.588 211.698L104.588 211.695C104.635 211.373 104.603 211.053 104.492 210.733L104.492 210.732C104.384 210.418 104.199 210.123 103.929 209.847L103.927 209.846L103.926 209.845C103.676 209.581 103.41 209.397 103.129 209.285L103.127 209.284C102.852 209.171 102.589 209.135 102.335 209.167C102.095 209.198 101.892 209.299 101.717 209.473C101.534 209.656 101.45 209.876 101.465 210.153C101.48 210.443 101.606 210.828 101.87 211.315L102.86 213.111C103.32 213.956 103.549 214.714 103.511 215.376C103.473 216.046 103.159 216.661 102.6 217.219C102.11 217.708 101.55 218.021 100.923 218.145C100.306 218.269 99.6734 218.212 99.0286 217.982L99.027 217.981C98.3831 217.746 97.7768 217.34 97.2069 216.771C96.6608 216.226 96.265 215.635 96.0267 214.997C95.789 214.362 95.7112 213.717 95.796 213.066L95.7964 213.064Z" fill="#E9FF6B"/>
<g clip-path="url(#clip1_106_259)">
<path d="M243.209 271.818C243.175 272.131 243.07 272.444 242.931 272.722C242.791 273 242.582 273.279 242.339 273.522C242.095 273.765 241.816 273.974 241.538 274.113C241.259 274.252 240.946 274.356 240.632 274.391C240.214 274.461 239.901 274.843 239.971 275.26C240.04 275.677 240.423 275.99 240.841 275.921C241.329 275.851 241.747 275.712 242.234 275.503C242.722 275.295 243.105 274.982 243.453 274.634C243.801 274.287 244.08 273.87 244.324 273.418C244.533 273 244.672 272.514 244.742 272.027C244.811 271.61 244.498 271.227 244.08 271.158C243.662 271.088 243.279 271.401 243.209 271.818Z" fill="#FAFAFA"/>
<path d="M246.135 272.722C245.891 273.8 245.334 274.843 244.498 275.677C243.662 276.512 242.617 277.068 241.538 277.311C241.12 277.381 240.876 277.833 240.946 278.25C241.05 278.702 241.468 278.91 241.886 278.841C243.244 278.528 244.533 277.867 245.612 276.79C246.657 275.747 247.354 274.426 247.667 273.07C247.737 272.653 247.493 272.201 247.075 272.131C246.657 272.062 246.239 272.27 246.135 272.722Z" fill="#FAFAFA"/>
<path d="M249.199 273.696C248.816 275.26 247.98 276.72 246.762 277.937C245.543 279.154 244.045 279.953 242.513 280.37C242.095 280.509 241.851 280.892 241.956 281.344C242.095 281.761 242.478 282.004 242.931 281.9C244.776 281.448 246.483 280.509 247.911 279.084C249.339 277.659 250.279 275.955 250.732 274.113C250.871 273.696 250.592 273.279 250.174 273.139C249.722 273.035 249.339 273.279 249.199 273.696Z" fill="#FAFAFA"/>
<path d="M252.264 274.669C251.707 276.685 250.662 278.632 249.06 280.231C247.458 281.83 245.543 282.908 243.488 283.43C243.07 283.569 242.826 283.951 242.931 284.403C243.07 284.82 243.453 285.064 243.906 284.959C246.204 284.333 248.363 283.151 250.174 281.344C251.985 279.536 253.169 277.381 253.796 275.086C253.936 274.669 253.657 274.252 253.239 274.113C252.821 273.974 252.403 274.252 252.264 274.669Z" fill="#FAFAFA"/>
</g>
<g clip-path="url(#clip2_106_259)">
<g filter="url(#filter0_b_106_259)">
<ellipse rx="9.18043" ry="9.18043" transform="matrix(0.707731 0.706482 -0.707731 0.706482 182.785 327.84)" fill="#FAFAFA" fill-opacity="0.3"/>
</g>
<g filter="url(#filter1_b_106_259)">
<path d="M197.339 342.368C193.75 345.95 187.933 345.95 184.344 342.368C180.756 338.786 180.756 332.978 184.344 329.396C187.933 325.814 193.75 325.814 197.339 329.396C200.927 332.978 200.927 338.786 197.339 342.368Z" fill="#FAFAFA" fill-opacity="0.7"/>
</g>
<g filter="url(#filter2_b_106_259)">
<path d="M191.911 326.771C189.217 326.458 186.411 327.333 184.344 329.396C182.278 331.459 181.401 334.26 181.715 336.95C184.409 337.263 187.215 336.388 189.282 334.325C191.349 332.262 192.225 329.461 191.911 326.771Z" fill="#FAFAFA" fill-opacity="0.6"/>
</g>
</g>
<path d="M74.3504 217.988C74.1634 217.801 74.0267 217.592 73.9402 217.361C73.8565 217.133 73.8328 216.9 73.869 216.663L74.5513 216.601C74.5206 216.793 74.5248 216.964 74.5638 217.115C74.6057 217.268 74.6838 217.402 74.7982 217.516C75.1024 217.819 75.4344 217.791 75.7944 217.432L77.3096 215.92L76.2674 214.879L76.7236 214.424L78.3099 216.007L76.3678 217.946C76.0218 218.291 75.6786 218.464 75.3382 218.464C75.0005 218.467 74.6713 218.308 74.3504 217.988ZM77.0683 220.676C76.8394 220.447 76.6846 220.195 76.6037 219.92C76.5255 219.641 76.5213 219.364 76.5911 219.088C76.6609 218.812 76.806 218.564 77.0264 218.344C77.2496 218.122 77.498 217.977 77.7714 217.91C78.0477 217.84 78.3239 217.846 78.6002 217.927C78.8764 218.007 79.129 218.162 79.3578 218.39C79.5894 218.622 79.7456 218.875 79.8265 219.151C79.9103 219.429 79.9172 219.704 79.8475 219.974C79.7805 220.247 79.634 220.496 79.408 220.722C79.1875 220.942 78.9392 221.087 78.663 221.156C78.3895 221.229 78.1119 221.225 77.83 221.144C77.5538 221.063 77.2999 220.907 77.0683 220.676ZM77.5161 220.229C77.6445 220.357 77.7868 220.443 77.943 220.488C78.0993 220.532 78.2584 220.53 78.4202 220.479C78.5848 220.432 78.7383 220.337 78.8806 220.195C79.0257 220.051 79.1206 219.897 79.1652 219.736C79.2155 219.574 79.2182 219.415 79.1736 219.259C79.129 219.103 79.0438 218.963 78.9183 218.837C78.7899 218.709 78.6476 218.623 78.4913 218.578C78.3379 218.537 78.1788 218.539 78.0142 218.587C77.8523 218.631 77.6989 218.726 77.5538 218.871C77.4115 219.013 77.3166 219.166 77.2692 219.33C77.2217 219.495 77.2189 219.654 77.2608 219.807C77.3054 219.963 77.3905 220.103 77.5161 220.229ZM78.0723 223.299C77.9635 223.191 77.8728 223.064 77.8002 222.919C77.7277 222.774 77.6872 222.634 77.6789 222.497L78.2732 222.322C78.2788 222.422 78.3011 222.519 78.3402 222.614C78.3792 222.709 78.4337 222.791 78.5034 222.861C78.5983 222.955 78.6987 223.008 78.8048 223.019C78.9108 223.03 79.0447 223.005 79.2066 222.944L79.6293 222.781L79.734 222.76L82.5551 221.632L83.0573 222.134L79.5958 223.5C79.3587 223.597 79.148 223.652 78.9638 223.663C78.7825 223.677 78.6192 223.65 78.4741 223.583C78.3318 223.519 78.1979 223.425 78.0723 223.299ZM79.2945 222.998L80.6004 219.681L81.1445 220.224L80.0353 222.969L79.2945 222.998ZM82.3562 225.896L85.2861 222.971L85.8302 223.514L83.3607 225.98L84.8927 227.509L84.4323 227.968L82.3562 225.896ZM86.1927 229.726L86.6448 229.275L86.7118 229.149L87.5028 228.36C87.6563 228.206 87.7288 228.042 87.7205 227.866C87.7149 227.688 87.6186 227.506 87.4317 227.319C87.3061 227.194 87.1624 227.089 87.0006 227.006C86.8415 226.925 86.6852 226.878 86.5318 226.864L86.7076 226.279C86.9196 226.307 87.1303 226.38 87.3396 226.5C87.5545 226.62 87.7512 226.769 87.9298 226.947C88.2534 227.27 88.4251 227.598 88.4446 227.929C88.4697 228.261 88.3204 228.588 87.9967 228.911L86.6866 230.219L86.1927 229.726ZM85.4603 229.053C85.2928 228.886 85.1743 228.712 85.1045 228.531C85.0375 228.347 85.0194 228.17 85.0501 228C85.0864 227.83 85.1687 227.681 85.297 227.553C85.4226 227.428 85.5649 227.344 85.724 227.302C85.8858 227.263 86.0644 227.283 86.2597 227.361C86.455 227.439 86.6657 227.591 86.8917 227.816L87.5405 228.464L87.1931 228.811L86.582 228.201C86.4034 228.022 86.2541 227.932 86.1341 227.929C86.0169 227.924 85.9165 227.963 85.8328 228.046C85.7379 228.141 85.7002 228.254 85.7198 228.385C85.7393 228.515 85.816 228.648 85.95 228.782C86.0783 228.91 86.222 228.995 86.3811 229.036C86.5429 229.081 86.7034 229.068 86.8624 228.999L86.6364 229.4C86.455 229.481 86.2625 229.492 86.0588 229.433C85.8579 229.378 85.6584 229.251 85.4603 229.053ZM87.3581 230.889L89.5932 228.658L90.0913 229.155L89.476 229.769L89.5974 229.531C89.815 229.448 90.0341 229.438 90.2545 229.502C90.4777 229.569 90.6968 229.709 90.9117 229.924L90.4136 230.421C90.3968 230.393 90.3787 230.37 90.3592 230.35C90.3424 230.328 90.3243 230.307 90.3047 230.287C90.1066 230.09 89.8904 229.991 89.656 229.991C89.4244 229.988 89.1942 230.101 88.9654 230.329L87.8813 231.411L87.3581 230.889ZM90.0501 233.635C89.8213 233.406 89.6664 233.154 89.5855 232.879C89.5073 232.6 89.5032 232.323 89.5729 232.047C89.6427 231.771 89.7878 231.523 90.0082 231.303C90.2315 231.081 90.4798 230.936 90.7533 230.869C91.0295 230.799 91.3058 230.805 91.582 230.886C91.8582 230.966 92.1108 231.121 92.3396 231.349C92.5712 231.581 92.7275 231.834 92.8084 232.11C92.8921 232.388 92.8991 232.663 92.8293 232.933C92.7623 233.206 92.6158 233.455 92.3898 233.681C92.1694 233.901 91.921 234.046 91.6448 234.115C91.3713 234.188 91.0937 234.184 90.8119 234.103C90.5356 234.022 90.2817 233.866 90.0501 233.635ZM90.4979 233.188C90.6263 233.316 90.7686 233.402 90.9249 233.447C91.0811 233.491 91.2402 233.489 91.402 233.438C91.5667 233.391 91.7201 233.296 91.8624 233.154C92.0075 233.009 92.1024 232.856 92.1471 232.695C92.1973 232.533 92.2001 232.374 92.1554 232.218C92.1108 232.062 92.0257 231.922 91.9001 231.796C91.7717 231.668 91.6294 231.582 91.4732 231.537C91.3197 231.496 91.1607 231.498 90.996 231.546C90.8342 231.59 90.6807 231.685 90.5356 231.83C90.3933 231.972 90.2984 232.125 90.251 232.289C90.2035 232.454 90.2008 232.613 90.2426 232.766C90.2873 232.922 90.3724 233.062 90.4979 233.188ZM91.0541 236.258C90.9453 236.15 90.8546 236.023 90.7821 235.878C90.7095 235.733 90.6691 235.592 90.6607 235.456L91.255 235.281C91.2606 235.381 91.2829 235.478 91.322 235.573C91.3611 235.668 91.4155 235.75 91.4852 235.82C91.5801 235.914 91.6806 235.967 91.7866 235.978C91.8926 235.989 92.0266 235.964 92.1884 235.903L92.6112 235.74L92.7158 235.719L95.5369 234.591L96.0391 235.093L92.5777 236.459C92.3405 236.556 92.1298 236.611 91.9457 236.622C91.7643 236.636 91.601 236.609 91.4559 236.542C91.3136 236.478 91.1797 236.384 91.0541 236.258ZM92.2763 235.957L93.5822 232.64L94.1263 233.183L93.0172 235.928L92.2763 235.957Z" fill="#FAFAFA"/>
<path d="M101.708 245.213L104.428 242.497L104.42 242.982L103.562 242.126L104.018 241.67L105.182 242.832L102.252 245.756L101.708 245.213ZM102.795 246.299L103.159 245.935L105.428 245.994C105.618 246 105.771 245.991 105.888 245.969C106.006 245.947 106.1 245.913 106.173 245.869C106.251 245.824 106.317 245.775 106.37 245.722C106.504 245.589 106.561 245.44 106.541 245.275C106.525 245.108 106.427 244.935 106.248 244.757C106.106 244.615 105.951 244.511 105.784 244.444C105.619 244.38 105.443 244.357 105.256 244.377L105.168 243.704C105.436 243.665 105.708 243.7 105.985 243.809C106.266 243.917 106.527 244.091 106.767 244.331C106.979 244.543 107.129 244.761 107.215 244.987C107.307 245.213 107.332 245.43 107.291 245.639C107.251 245.85 107.145 246.043 106.972 246.215C106.878 246.31 106.77 246.392 106.65 246.462C106.533 246.529 106.388 246.579 106.215 246.612C106.042 246.646 105.824 246.66 105.562 246.654L103.611 246.604L103.704 246.286L105.415 247.995L104.955 248.455L102.795 246.299ZM104.582 248.918L109.906 246.361L110.374 246.829L105.05 249.386L104.582 248.918ZM106.826 250.322L107.19 249.959L109.458 250.017C109.648 250.023 109.801 250.014 109.919 249.992C110.036 249.97 110.131 249.936 110.203 249.892C110.281 249.847 110.347 249.798 110.4 249.745C110.534 249.612 110.591 249.463 110.572 249.298C110.555 249.131 110.457 248.959 110.279 248.78C110.136 248.638 109.981 248.534 109.814 248.467C109.649 248.403 109.474 248.381 109.287 248.4L109.199 247.727C109.467 247.688 109.739 247.723 110.015 247.832C110.297 247.941 110.558 248.115 110.798 248.354C111.01 248.566 111.159 248.785 111.245 249.01C111.338 249.236 111.363 249.453 111.321 249.662C111.282 249.874 111.176 250.066 111.003 250.239C110.908 250.333 110.8 250.415 110.68 250.485C110.563 250.552 110.418 250.602 110.245 250.635C110.072 250.669 109.854 250.683 109.592 250.677L107.642 250.627L107.734 250.31L109.446 252.018L108.985 252.478L106.826 250.322ZM109.862 252.024L110.238 251.648L113.57 251.205L114.152 251.786L110.841 252.25L110.653 251.895L112.976 254.214L112.515 254.673L109.862 252.024ZM110.803 254.293L111.469 253.629L111.946 253.186L112.536 252.597L113.047 253.106L111.331 254.819L110.803 254.293Z" fill="#FAFAFA"/>
</g>
<g clip-path="url(#clip3_106_259)">
<rect width="211.921" height="133.067" transform="matrix(0.966084 -0.258229 0.25941 0.965767 0.00012207 54.7156)" fill="white"/>
<mask id="mask1_106_259" style="mask-type:alpha" maskUnits="userSpaceOnUse" x="0" y="-1" width="240" height="185">
<rect width="211.921" height="133.067" transform="matrix(0.966084 -0.258229 0.25941 0.965767 0 54.7156)" fill="black"/>
</mask>
<g mask="url(#mask1_106_259)">
<path d="M203.601 -46.6395L175.718 11.0616L182.015 34.5027L231.804 58.357L221.18 94.6953L246.452 138.188L174.918 152.075L183.313 183.33L140.453 204.731L84.4524 196.669L77.5959 245.086L-46.0673 296.46L-70.8593 204.161L-105.349 200.295L-123.451 132.901L-109.902 95.781L-161.857 32.7261L-144.746 3.02828L-83.7888 -13.2653L-57.412 -45.4397L2.0392 -36.2067L55.194 -50.4147L60.3051 -93.6543L141.744 -115.423L203.601 -46.6395Z" stroke="#EEEEEE" stroke-width="0.428701"/>
<path d="M57.3463 69.0728L63.9549 76.3934L66.9588 87.5764L60.8614 97.5685L51.1781 102.331L50.4385 107.49L37.2028 112.979L34.5623 103.149L30.3993 91.6065L24.8491 84.8949L26.6834 81.7287L33.2065 79.9851L48.0792 76.0097L48.6314 71.4022L57.3463 69.0728Z" stroke="#EEEEEE" stroke-width="0.428701"/>
<path d="M192.772 -37.5016L167.288 16.0425L173.331 38.5407L219.056 60.9443L209.015 94.8717L231.97 135.202L165.566 148.204L173.258 177.451L133.186 197.417L80.9844 190.187L74.5538 234.501L-39.6984 281.546L-62.7434 195.902L-94.74 191.889L-111.877 129.164L-99.2989 94.7772L-147.188 36.4509L-131.142 8.9705L-74.6225 -6.13679L-49.1307 -36.1421L5.76861 -27.7964L54.8558 -41.0887L59.909 -81.0918L135.419 -101.275L192.772 -37.5016Z" stroke="#EEEEEE" stroke-width="0.428701"/>
<path d="M181.942 -28.3634L158.857 21.0237L164.647 42.5789L206.307 63.532L196.849 95.0484L217.488 132.217L156.214 144.333L163.204 171.573L125.919 190.104L77.5162 183.705L71.5114 223.917L-33.3298 266.631L-54.6279 187.644L-84.1316 183.484L-100.303 125.427L-88.6966 93.7737L-132.518 40.176L-117.538 14.913L-65.4565 0.991989L-40.8497 -26.8441L9.49771 -19.386L54.5174 -31.7625L59.5125 -68.5291L129.093 -87.1275L181.942 -28.3634Z" stroke="#EEEEEE" stroke-width="0.428701"/>
<path d="M171.113 -19.2255L150.427 26.0047L155.963 46.617L193.559 66.1194L184.684 95.2249L203.006 129.231L146.862 140.462L153.149 165.695L118.653 182.791L74.0485 177.223L68.4696 213.332L-26.9606 251.716L-46.5117 179.385L-73.5225 175.079L-88.728 121.69L-78.0937 92.77L-117.848 43.9009L-103.933 20.8552L-56.29 8.1205L-32.5681 -17.5465L13.2274 -10.9757L54.1794 -22.4366L59.1166 -55.9666L122.768 -72.9802L171.113 -19.2255Z" stroke="#EEEEEE" stroke-width="0.428701"/>
<path d="M160.283 -10.0874L141.996 30.9857L147.279 50.6551L180.811 68.7069L172.518 95.4014L188.524 126.245L137.51 136.591L143.095 159.817L111.386 175.477L70.5805 170.741L65.4275 202.748L-20.5917 236.802L-38.3959 171.127L-62.9138 166.674L-77.1538 117.952L-67.4912 91.7664L-103.178 47.6258L-90.3286 26.7976L-47.1238 15.2492L-24.2868 -8.24865L16.9567 -2.56537L53.8412 -13.1105L58.7204 -43.404L116.442 -58.8327L160.283 -10.0874Z" stroke="#EEEEEE" stroke-width="0.428701"/>
<path d="M149.453 -0.949403L133.565 35.9668L138.595 54.6932L168.062 71.2943L160.352 95.578L174.042 123.259L128.158 132.72L133.04 153.938L104.119 168.164L67.1123 164.258L62.3851 192.163L-14.2231 221.887L-30.2803 162.868L-52.3052 158.269L-65.5797 114.215L-56.8888 90.7627L-88.5089 51.3508L-76.7245 32.7399L-37.9578 22.3778L-16.0057 1.04915L20.6859 5.84498L53.5027 -3.78446L58.324 -30.8414L110.116 -44.6852L149.453 -0.949403Z" stroke="#EEEEEE" stroke-width="0.428701"/>
<path d="M138.623 8.18852L125.135 40.9477L129.911 58.7312L155.314 73.8817L148.186 95.7544L159.56 120.273L118.807 128.849L122.986 148.06L96.8528 160.85L63.6443 157.776L59.343 181.578L-7.85423 206.973L-22.1645 154.609L-41.6964 149.864L-54.0054 110.478L-46.2862 89.759L-73.8392 55.0757L-63.1201 38.6822L-28.7915 29.5063L-7.72435 10.3468L24.4153 14.2552L53.1645 5.54149L57.9278 -18.2789L103.791 -30.5379L138.623 8.18852Z" stroke="#EEEEEE" stroke-width="0.428701"/>
<path d="M127.794 17.3263L116.704 45.9285L121.228 62.7691L142.566 76.469L136.021 95.9307L145.078 117.287L109.455 124.978L112.931 142.181L89.5864 153.537L60.1766 151.294L56.3011 170.993L-1.4851 192.058L-14.0484 146.351L-31.0875 141.458L-42.4308 106.74L-35.6834 88.7551L-59.1692 58.8004L-49.5155 44.6243L-19.6251 36.6347L0.557185 19.6444L28.1449 22.6653L52.8266 14.8673L57.5318 -5.71659L97.4654 -16.3906L127.794 17.3263Z" stroke="#EEEEEE" stroke-width="0.428701"/>
<path d="M116.965 26.4644L108.274 50.9096L112.544 66.8072L129.818 79.0565L123.855 96.1073L130.596 114.301L100.103 121.107L102.877 136.303L82.3198 146.223L56.7086 144.812L53.259 160.409L4.88381 177.143L-5.93252 138.092L-20.4787 133.053L-30.8565 103.003L-25.0808 87.7515L-44.4994 62.5254L-35.9111 50.5666L-10.4588 43.7634L8.83852 28.9422L31.8743 31.0757L52.4884 24.1934L57.1357 6.84601L91.1399 -2.24314L116.965 26.4644Z" stroke="#EEEEEE" stroke-width="0.428701"/>
<path d="M106.135 35.6026L99.8429 55.8909L103.86 70.8456L117.069 81.6442L111.69 96.284L116.114 111.315L90.751 117.236L92.8222 130.425L75.0529 138.91L53.2404 138.33L50.2167 149.824L11.2524 162.229L2.18306 129.834L-9.87014 124.649L-19.2824 99.2658L-14.4784 86.7481L-29.8299 66.2506L-22.3069 56.5092L-1.29282 50.8923L17.1196 38.2402L35.6034 39.4863L52.1499 33.5197L56.7392 19.4089L84.8141 11.9046L106.135 35.6026Z" stroke="#EEEEEE" stroke-width="0.428701"/>
<path d="M95.3051 44.7404L91.4124 60.8717L95.176 74.8835L104.321 84.2315L99.524 96.4603L101.632 108.329L81.3992 113.365L82.7677 124.547L67.7863 131.597L49.7724 131.847L47.1746 139.239L17.6213 147.314L10.2989 121.575L0.738639 116.243L-7.70814 95.5282L-3.87586 85.7442L-15.1602 69.9753L-8.70255 62.4513L7.87342 58.0207L25.4009 47.5378L39.3328 47.8964L51.8117 42.8455L56.343 31.9712L78.4885 26.0518L95.3051 44.7404Z" stroke="#EEEEEE" stroke-width="0.428701"/>
<path d="M84.4757 53.8782L82.982 65.8525L86.4924 78.9214L91.5726 86.8187L87.3586 96.6366L87.1498 105.343L72.0476 109.494L72.7134 118.668L60.5199 124.283L46.3047 125.365L44.1327 128.655L23.9904 132.399L18.415 113.316L11.3476 107.838L3.86642 91.7907L6.72698 84.7403L-0.490207 73.7L4.90208 68.3935L17.0399 65.1491L33.6825 56.8354L43.0624 56.3065L51.4737 52.1713L55.9471 44.5336L72.1633 40.1991L84.4757 53.8782Z" stroke="#EEEEEE" stroke-width="0.428701"/>
<path d="M73.6459 63.0164L74.5512 70.8337L77.8083 82.9596L78.8241 89.4063L75.1927 96.8133L72.6675 102.357L62.6956 105.623L62.6587 112.79L53.253 116.97L42.8365 118.883L41.0903 118.07L30.3591 117.485L26.5306 105.058L21.9562 99.4329L15.4405 88.0536L17.3293 83.7368L14.1793 77.4251L18.5062 74.3359L26.2059 72.2778L41.9635 66.1333L46.7916 64.717L51.1353 61.4975L55.5507 57.0963L65.8375 54.3467L73.6459 63.0164Z" stroke="#EEEEEE" stroke-width="0.428701"/>
</g>
<g clip-path="url(#clip4_106_259)">
<g filter="url(#filter3_b_106_259)">
<ellipse rx="9.18745" ry="9.17341" transform="matrix(0.966084 -0.258229 0.25941 0.965767 197.436 113.722)" fill="black" fill-opacity="0.3"/>
</g>
<g filter="url(#filter4_b_106_259)">
<path d="M217.318 108.408C218.632 113.301 215.723 118.33 210.821 119.64C205.919 120.95 200.88 118.046 199.566 113.153C198.252 108.26 201.16 103.232 206.062 101.921C210.964 100.611 216.003 103.515 217.318 108.408Z" fill="black" fill-opacity="0.7"/>
</g>
<g filter="url(#filter5_b_106_259)">
<path d="M201.071 105.3C199.453 107.472 198.809 110.335 199.566 113.153C200.323 115.971 202.315 118.13 204.806 119.203C206.425 117.031 207.068 114.168 206.311 111.35C205.555 108.532 203.562 106.373 201.071 105.3Z" fill="black" fill-opacity="0.6"/>
</g>
</g>
<path d="M46.4623 137.219C45.8803 137.375 45.3499 137.4 44.871 137.294C44.3921 137.188 43.9815 136.982 43.6392 136.675C43.2969 136.368 43.0374 135.983 42.8609 135.519L43.9036 135.24C44.1 135.681 44.407 136.002 44.8247 136.202C45.2401 136.394 45.7065 136.421 46.2237 136.283C46.8299 136.121 47.2547 135.799 47.4981 135.319C47.7393 134.83 47.7796 134.287 47.619 133.689C47.4497 133.058 47.1395 132.613 46.6884 132.353C46.2351 132.084 45.7255 132.025 45.1598 132.177C44.7071 132.298 44.3474 132.506 44.0805 132.803C43.8195 133.089 43.6344 133.416 43.525 133.783L42.5551 134.042L42.0227 129.157L46.5571 127.945L46.8077 128.878L43.0735 129.876L43.3021 132.517L43.3627 132.501C43.4943 132.249 43.6972 132.005 43.9711 131.767C44.2532 131.527 44.6044 131.351 45.0247 131.238C45.5824 131.089 46.0999 131.081 46.5773 131.213C47.0605 131.335 47.479 131.587 47.8328 131.969C48.1844 132.342 48.4394 132.824 48.5978 133.414C48.7454 133.963 48.7638 134.5 48.6532 135.023C48.5484 135.536 48.3106 135.989 47.9399 136.383C47.5772 136.774 47.0847 137.053 46.4623 137.219ZM50.9529 135.863L50.738 135.063C51.4243 134.135 52.0126 133.294 52.503 132.539C53.0014 131.782 53.3557 131.086 53.566 130.449C53.7762 129.813 53.8053 129.212 53.6534 128.646C53.5167 128.137 53.2638 127.776 52.8947 127.563C52.5315 127.34 52.1074 127.293 51.6224 127.422C51.2506 127.522 50.9571 127.687 50.7418 127.918C50.5266 128.148 50.3901 128.414 50.3324 128.715C50.2747 129.017 50.2871 129.321 50.3696 129.628L49.3633 129.897C49.2216 129.337 49.2148 128.828 49.3429 128.369C49.4768 127.901 49.7177 127.507 50.0654 127.189C50.4212 126.869 50.8577 126.64 51.375 126.501C52.2075 126.279 52.916 126.336 53.5004 126.674C54.0848 127.011 54.4812 127.568 54.6896 128.343C54.8263 128.852 54.8485 129.37 54.7561 129.897C54.6616 130.416 54.49 130.938 54.2413 131.464C53.9926 131.989 53.6951 132.51 53.3488 133.027C53.0026 133.544 52.6479 134.046 52.2848 134.533L56.31 133.457L56.5542 134.366L50.9529 135.863ZM61.1108 133.304C60.5531 133.453 60.0248 133.486 59.526 133.403C59.0331 133.309 58.6001 133.1 58.2271 132.776C57.854 132.451 57.5783 132.005 57.3999 131.438L58.4426 131.159C58.589 131.64 58.8775 132.004 59.3081 132.253C59.7366 132.493 60.2539 132.533 60.8601 132.371C61.4502 132.213 61.8667 131.941 62.1097 131.556C62.3505 131.163 62.4004 130.703 62.2593 130.178C62.1617 129.814 61.9884 129.54 61.7396 129.356C61.4886 129.163 61.1902 129.052 60.8446 129.023C60.5049 128.984 60.1451 129.015 59.7653 129.117L59.0257 129.315L58.7783 128.394L59.4208 128.222C59.9705 128.075 60.3755 127.841 60.6358 127.52C60.9043 127.197 60.9777 126.81 60.8562 126.357C60.7542 125.977 60.5373 125.702 60.2054 125.531C59.8817 125.358 59.4773 125.336 58.9924 125.465C58.5236 125.591 58.1795 125.826 57.9601 126.17C57.7386 126.506 57.6641 126.89 57.7365 127.321L56.7181 127.593C56.6105 127.128 56.6233 126.692 56.7563 126.284C56.8871 125.868 57.1193 125.507 57.453 125.201C57.7948 124.894 58.2244 124.67 58.7417 124.532C59.2994 124.383 59.7902 124.356 60.2141 124.45C60.646 124.543 61.0035 124.729 61.2865 125.008C61.5673 125.279 61.7609 125.613 61.8672 126.009C61.9801 126.429 61.9506 126.835 61.7787 127.228C61.6047 127.612 61.3573 127.916 61.0364 128.141L61.0559 128.213C61.5718 128.231 62.0341 128.372 62.4426 128.635C62.8512 128.898 63.1336 129.321 63.2899 129.903C63.4223 130.395 63.4244 130.871 63.2964 131.33C63.1764 131.786 62.9297 132.19 62.5561 132.541C62.1907 132.89 61.7089 133.144 61.1108 133.304ZM68.2714 131.39C67.6894 131.545 67.159 131.57 66.6801 131.465C66.2012 131.359 65.7906 131.152 65.4483 130.845C65.1059 130.539 64.8465 130.153 64.67 129.69L65.7126 129.411C65.9091 129.852 66.2161 130.173 66.6337 130.373C67.0492 130.565 67.5155 130.592 68.0328 130.453C68.639 130.291 69.0638 129.97 69.3072 129.489C69.5484 129 69.5887 128.457 69.4281 127.859C69.2588 127.229 68.9486 126.784 68.4975 126.523C68.0442 126.255 67.5346 126.196 66.9688 126.347C66.5162 126.468 66.1564 126.677 65.8896 126.973C65.6286 127.26 65.4434 127.586 65.3341 127.953L64.3642 128.212L63.8317 123.328L68.3661 122.116L68.6168 123.049L64.8826 124.047L65.1112 126.688L65.1718 126.672C65.3034 126.42 65.5062 126.175 65.7802 125.937C66.0623 125.697 66.4135 125.521 66.8338 125.409C67.3915 125.26 67.909 125.251 68.3863 125.384C68.8696 125.506 69.2881 125.757 69.6418 126.139C69.9934 126.513 70.2485 126.995 70.4069 127.585C70.5545 128.134 70.5729 128.67 70.4622 129.194C70.3575 129.706 70.1197 130.16 69.7489 130.553C69.3863 130.945 68.8937 131.224 68.2714 131.39ZM83.8143 127.079L83.287 125.116L79.2254 126.202L79.0138 125.414L81.3415 118.647L82.5539 118.323L84.058 123.923L85.2704 123.599L85.5178 124.52L84.3054 124.844L84.8328 126.807L83.8143 127.079ZM80.1176 124.976L83.088 124.182L81.903 119.77L80.1176 124.976ZM87.3013 126.147L87.0865 125.347C87.7728 124.419 88.3611 123.578 88.8514 122.823C89.3499 122.066 89.7042 121.37 89.9144 120.733C90.1246 120.097 90.1538 119.496 90.0019 118.93C89.8651 118.421 89.6122 118.06 89.2431 117.847C88.8799 117.624 88.4558 117.577 87.9709 117.707C87.5991 117.806 87.3055 117.971 87.0903 118.202C86.8751 118.433 86.7386 118.699 86.6809 119C86.6232 119.301 86.6356 119.605 86.718 119.912L85.7117 120.181C85.5701 119.621 85.5633 119.112 85.6913 118.654C85.8253 118.185 86.0661 117.791 86.4138 117.473C86.7696 117.153 87.2062 116.924 87.7234 116.786C88.556 116.563 89.2644 116.62 89.8489 116.958C90.4333 117.295 90.8297 117.852 91.038 118.627C91.1748 119.137 91.1969 119.655 91.1046 120.182C91.0101 120.7 90.8385 121.223 90.5898 121.748C90.3411 122.274 90.0436 122.795 89.6973 123.312C89.351 123.829 88.9963 124.33 88.6333 124.817L92.6585 123.741L92.9026 124.65L87.3013 126.147ZM97.3501 123.617C96.7116 123.788 96.0981 123.761 95.5095 123.538C94.9291 123.312 94.4135 122.908 93.9629 122.327C93.5204 121.744 93.1776 121 92.9345 120.095C92.6914 119.19 92.6154 118.375 92.7063 117.649C92.8053 116.921 93.0495 116.314 93.439 115.829C93.8366 115.342 94.3546 115.013 94.9931 114.842C95.6398 114.67 96.2533 114.696 96.8337 114.922C97.4142 115.148 97.9257 115.552 98.3682 116.136C98.8188 116.717 99.1657 117.46 99.4088 118.365C99.6518 119.27 99.7239 120.086 99.6248 120.814C99.5339 121.54 99.2937 122.145 98.9043 122.63C98.5148 123.115 97.9967 123.444 97.3501 123.617ZM93.9772 119.816C94.1248 120.366 94.3148 120.848 94.5473 121.262C94.7858 121.666 95.0502 121.989 95.3407 122.232L96.1268 115.773C95.8394 115.703 95.5461 115.708 95.2471 115.788C94.8187 115.902 94.4768 116.145 94.2213 116.517C93.9638 116.88 93.8115 117.345 93.7645 117.912C93.7153 118.47 93.7862 119.105 93.9772 119.816ZM97.0995 122.684C97.5278 122.57 97.8708 122.331 98.1284 121.967C98.3839 121.596 98.5351 121.127 98.5821 120.56C98.6291 119.993 98.5571 119.354 98.3661 118.643C98.2185 118.094 98.0255 117.617 97.7871 117.213C97.5545 116.799 97.293 116.471 97.0026 116.228L96.2076 122.702C96.5031 122.77 96.8004 122.764 97.0995 122.684ZM104.62 121.674C103.981 121.845 103.368 121.818 102.779 121.595C102.199 121.369 101.683 120.965 101.233 120.384C100.79 119.801 100.447 119.057 100.204 118.152C99.9611 117.247 99.885 116.432 99.976 115.706C100.075 114.978 100.319 114.371 100.709 113.886C101.106 113.399 101.624 113.07 102.263 112.899C102.909 112.726 103.523 112.753 104.103 112.979C104.684 113.205 105.195 113.609 105.638 114.192C106.089 114.773 106.435 115.516 106.678 116.421C106.922 117.326 106.994 118.143 106.895 118.871C106.804 119.597 106.563 120.202 106.174 120.687C105.784 121.172 105.266 121.501 104.62 121.674ZM101.247 117.873C101.394 118.423 101.585 118.904 101.817 119.319C102.055 119.723 102.32 120.046 102.61 120.289L103.397 113.83C103.109 113.76 102.816 113.765 102.517 113.845C102.088 113.959 101.746 114.202 101.491 114.573C101.233 114.937 101.081 115.402 101.034 115.969C100.985 116.527 101.056 117.162 101.247 117.873ZM104.369 120.741C104.798 120.626 105.141 120.387 105.398 120.024C105.654 119.653 105.805 119.184 105.852 118.617C105.899 118.05 105.827 117.411 105.636 116.7C105.488 116.151 105.295 115.674 105.057 115.27C104.824 114.856 104.563 114.527 104.272 114.285L103.477 120.758C103.773 120.827 104.07 120.821 104.369 120.741ZM116.38 118.375L116.165 117.575C116.852 116.647 117.44 115.805 117.93 115.051C118.429 114.294 118.783 113.597 118.993 112.961C119.203 112.324 119.233 111.723 119.081 111.158C118.944 110.649 118.691 110.288 118.322 110.075C117.959 109.851 117.535 109.804 117.05 109.934C116.678 110.033 116.384 110.198 116.169 110.429C115.954 110.66 115.817 110.926 115.76 111.227C115.702 111.528 115.714 111.832 115.797 112.14L114.791 112.408C114.649 111.849 114.642 111.34 114.77 110.881C114.904 110.412 115.145 110.019 115.493 109.701C115.848 109.38 116.285 109.151 116.802 109.013C117.635 108.79 118.343 108.848 118.928 109.185C119.512 109.523 119.908 110.079 120.117 110.855C120.254 111.364 120.276 111.882 120.183 112.409C120.089 112.928 119.917 113.45 119.669 113.975C119.42 114.501 119.122 115.022 118.776 115.539C118.43 116.056 118.075 116.558 117.712 117.045L121.737 115.969L121.981 116.878L116.38 118.375ZM127.432 115.421L126.905 113.457L122.844 114.543L122.632 113.755L124.96 106.988L126.172 106.664L127.676 112.264L128.889 111.94L129.136 112.861L127.924 113.185L128.451 115.148L127.432 115.421ZM123.736 113.317L126.706 112.523L125.521 108.111L123.736 113.317ZM133.808 113.872C133.25 114.021 132.722 114.054 132.223 113.971C131.73 113.878 131.297 113.669 130.924 113.344C130.551 113.02 130.275 112.574 130.097 112.006L131.14 111.728C131.286 112.208 131.574 112.573 132.005 112.821C132.433 113.062 132.951 113.101 133.557 112.939C134.147 112.781 134.564 112.51 134.807 112.124C135.047 111.731 135.097 111.272 134.956 110.746C134.859 110.383 134.685 110.109 134.436 109.924C134.185 109.731 133.887 109.621 133.542 109.592C133.202 109.553 132.842 109.584 132.462 109.685L131.723 109.883L131.475 108.962L132.118 108.79C132.667 108.643 133.072 108.41 133.333 108.089C133.601 107.766 133.675 107.378 133.553 106.926C133.451 106.546 133.234 106.27 132.902 106.099C132.579 105.926 132.174 105.904 131.689 106.034C131.22 106.159 130.876 106.394 130.657 106.739C130.436 107.075 130.361 107.459 130.433 107.889L129.415 108.162C129.307 107.697 129.32 107.26 129.453 106.852C129.584 106.436 129.816 106.076 130.15 105.77C130.492 105.462 130.921 105.239 131.439 105.101C131.996 104.952 132.487 104.924 132.911 105.019C133.343 105.111 133.7 105.297 133.983 105.577C134.264 105.848 134.458 106.182 134.564 106.578C134.677 106.998 134.647 107.404 134.476 107.796C134.302 108.181 134.054 108.485 133.733 108.709L133.753 108.782C134.269 108.8 134.731 108.94 135.14 109.204C135.548 109.467 135.831 109.889 135.987 110.471C136.119 110.964 136.121 111.44 135.993 111.898C135.873 112.355 135.627 112.758 135.253 113.109C134.888 113.458 134.406 113.713 133.808 113.872ZM138.189 112.545L137.974 111.745C138.661 110.817 139.249 109.976 139.739 109.221C140.238 108.464 140.592 107.768 140.802 107.131C141.012 106.495 141.042 105.894 140.89 105.328C140.753 104.819 140.5 104.458 140.131 104.245C139.768 104.022 139.344 103.975 138.859 104.105C138.487 104.204 138.193 104.369 137.978 104.6C137.763 104.83 137.626 105.096 137.569 105.398C137.511 105.699 137.523 106.003 137.606 106.31L136.6 106.579C136.458 106.019 136.451 105.51 136.579 105.052C136.713 104.583 136.954 104.189 137.302 103.871C137.657 103.551 138.094 103.322 138.611 103.183C139.444 102.961 140.152 103.018 140.737 103.356C141.321 103.693 141.717 104.25 141.926 105.025C142.063 105.534 142.085 106.053 141.992 106.579C141.898 107.098 141.726 107.621 141.478 108.146C141.229 108.671 140.931 109.193 140.585 109.71C140.239 110.226 139.884 110.728 139.521 111.215L143.546 110.139L143.79 111.048L138.189 112.545ZM152.729 108.659L152.514 107.859C153.2 106.931 153.788 106.09 154.279 105.335C154.777 104.578 155.131 103.882 155.342 103.245C155.552 102.609 155.581 102.008 155.429 101.442C155.292 100.933 155.039 100.572 154.67 100.359C154.307 100.136 153.883 100.089 153.398 100.218C153.026 100.318 152.733 100.483 152.518 100.713C152.302 100.944 152.166 101.21 152.108 101.511C152.05 101.813 152.063 102.117 152.145 102.424L151.139 102.693C150.997 102.133 150.99 101.624 151.119 101.165C151.252 100.697 151.493 100.303 151.841 99.985C152.197 99.6647 152.633 99.4354 153.151 99.2972C153.983 99.0746 154.692 99.1321 155.276 99.4695C155.86 99.8069 156.257 100.363 156.465 101.139C156.602 101.648 156.624 102.166 156.532 102.693C156.437 103.212 156.266 103.734 156.017 104.26C155.768 104.785 155.471 105.306 155.125 105.823C154.778 106.34 154.424 106.842 154.061 107.329L158.086 106.253L158.33 107.162L152.729 108.659ZM159.998 106.716L159.783 105.916C160.47 104.988 161.058 104.146 161.548 103.392C162.047 102.635 162.401 101.938 162.611 101.302C162.822 100.666 162.851 100.065 162.699 99.4989C162.562 98.9899 162.309 98.6288 161.94 98.4157C161.577 98.1924 161.153 98.1455 160.668 98.2751C160.296 98.3745 160.002 98.5396 159.787 98.7703C159.572 99.001 159.435 99.267 159.378 99.5682C159.32 99.8694 159.332 100.174 159.415 100.481L158.409 100.75C158.267 100.19 158.26 99.6808 158.388 99.2222C158.522 98.7534 158.763 98.3599 159.111 98.0418C159.467 97.7215 159.903 97.4923 160.42 97.354C161.253 97.1315 161.961 97.1889 162.546 97.5263C163.13 97.8638 163.527 98.4203 163.735 99.196C163.872 99.705 163.894 100.223 163.801 100.75C163.707 101.269 163.535 101.791 163.287 102.317C163.038 102.842 162.74 103.363 162.394 103.88C162.048 104.397 161.693 104.899 161.33 105.386L165.355 104.31L165.6 105.219L159.998 106.716ZM167.268 104.773L167.053 103.973C167.739 103.045 168.328 102.203 168.818 101.449C169.316 100.692 169.671 99.9952 169.881 99.3588C170.091 98.7224 170.12 98.1214 169.968 97.5558C169.832 97.0467 169.579 96.6857 169.21 96.4726C168.846 96.2492 168.422 96.2024 167.937 96.332C167.566 96.4314 167.272 96.5964 167.057 96.8272C166.842 97.0579 166.705 97.3239 166.647 97.6251C166.59 97.9263 166.602 98.2304 166.685 98.5375L165.678 98.8064C165.537 98.2467 165.53 97.7376 165.658 97.279C165.792 96.8102 166.033 96.4168 166.38 96.0987C166.736 95.7784 167.173 95.5491 167.69 95.4109C168.523 95.1883 169.231 95.2458 169.815 95.5832C170.4 95.9206 170.796 96.4772 171.005 97.2528C171.141 97.7619 171.164 98.2799 171.071 98.8069C170.977 99.3258 170.805 99.8479 170.556 100.373C170.308 100.899 170.01 101.42 169.664 101.937C169.318 102.454 168.963 102.956 168.6 103.442L172.625 102.367L172.869 103.276L167.268 104.773Z" fill="black"/>
<path d="M48.3952 152.62L47.3979 148.907L47.8141 149.157L46.6429 149.47L46.4756 148.848L48.064 148.423L49.1379 152.421L48.3952 152.62ZM49.8799 152.223L49.7464 151.726L50.9297 149.794C51.0293 149.632 51.0987 149.496 51.1378 149.383C51.177 149.271 51.1954 149.172 51.193 149.087C51.1933 148.997 51.1838 148.916 51.1643 148.843C51.1152 148.661 51.0146 148.537 50.8623 148.471C50.709 148.402 50.5104 148.4 50.2666 148.465C50.0724 148.517 49.9045 148.599 49.7629 148.71C49.6251 148.82 49.518 148.961 49.4416 149.132L48.8143 148.872C48.9142 148.62 49.0802 148.403 49.3124 148.218C49.5473 148.029 49.8285 147.89 50.1561 147.803C50.4456 147.725 50.7098 147.706 50.9487 147.744C51.1903 147.777 51.3913 147.864 51.5516 148.005C51.7157 148.145 51.8295 148.333 51.8929 148.569C51.9276 148.699 51.9453 148.833 51.9458 148.971C51.9452 149.106 51.9163 149.257 51.8589 149.423C51.8015 149.589 51.7049 149.784 51.5692 150.009L50.5519 151.67L50.3224 151.431L52.6593 150.807L52.828 151.435L49.8799 152.223ZM53.0431 151.99L53.4834 146.105L54.1233 145.934L53.683 151.819L53.0431 151.99ZM55.3813 150.753L55.2479 150.256L56.4312 148.323C56.5308 148.162 56.6001 148.025 56.6393 147.913C56.6785 147.8 56.6969 147.701 56.6944 147.616C56.6948 147.526 56.6852 147.445 56.6658 147.373C56.6167 147.19 56.516 147.066 56.3637 147.001C56.2104 146.931 56.0119 146.929 55.7681 146.995C55.5739 147.046 55.4059 147.128 55.2644 147.239C55.1266 147.35 55.0195 147.491 54.9431 147.662L54.3158 147.401C54.4157 147.15 54.5817 146.932 54.8139 146.748C55.0488 146.558 55.33 146.42 55.6576 146.332C55.9471 146.255 56.2113 146.235 56.4501 146.274C56.6918 146.307 56.8928 146.394 57.0531 146.535C57.2172 146.675 57.3309 146.862 57.3943 147.099C57.4291 147.228 57.4467 147.362 57.4472 147.501C57.4467 147.636 57.4178 147.786 57.3604 147.952C57.303 148.119 57.2064 148.314 57.0706 148.538L56.0534 150.2L55.8239 149.961L58.1607 149.336L58.3295 149.965L55.3813 150.753ZM58.3734 148.979L58.2354 148.465L59.5146 145.363L60.3088 145.15L59.0581 148.246L58.656 148.231L61.827 147.383L61.9958 148.011L58.3734 148.979ZM60.8113 149.301L60.5674 148.393L60.4215 147.759L60.2052 146.953L60.9022 146.767L61.5312 149.109L60.8113 149.301Z" fill="black"/>
<rect width="211.921" height="26.2937" transform="matrix(0.966084 -0.258229 0.25941 0.965767 6.41309 78.5909)" fill="#E9FF6B"/>
</g>
<defs>
<filter id="filter0_b_106_259" x="148.954" y="294.025" width="67.661" height="67.6287" filterUnits="userSpaceOnUse" color-interpolation-filters="sRGB">
<feFlood flood-opacity="0" result="BackgroundImageFix"/>
<feGaussianBlur in="BackgroundImage" stdDeviation="12.321"/>
<feComposite in2="SourceAlpha" operator="in" result="effect1_backgroundBlur_106_259"/>
<feBlend mode="normal" in="SourceGraphic" in2="effect1_backgroundBlur_106_259" result="shape"/>
</filter>
<filter id="filter1_b_106_259" x="157.011" y="302.067" width="67.661" height="67.6287" filterUnits="userSpaceOnUse" color-interpolation-filters="sRGB">
<feFlood flood-opacity="0" result="BackgroundImageFix"/>
<feGaussianBlur in="BackgroundImage" stdDeviation="12.321"/>
<feComposite in2="SourceAlpha" operator="in" result="effect1_backgroundBlur_106_259"/>
<feBlend mode="normal" in="SourceGraphic" in2="effect1_backgroundBlur_106_259" result="shape"/>
</filter>
<filter id="filter2_b_106_259" x="157.011" y="302.067" width="59.6044" height="59.5863" filterUnits="userSpaceOnUse" color-interpolation-filters="sRGB">
<feFlood flood-opacity="0" result="BackgroundImageFix"/>
<feGaussianBlur in="BackgroundImage" stdDeviation="12.321"/>
<feComposite in2="SourceAlpha" operator="in" result="effect1_backgroundBlur_106_259"/>
<feBlend mode="normal" in="SourceGraphic" in2="effect1_backgroundBlur_106_259" result="shape"/>
</filter>
<filter id="filter3_b_106_259" x="163.602" y="79.9066" width="67.6672" height="67.6317" filterUnits="userSpaceOnUse" color-interpolation-filters="sRGB">
<feFlood flood-opacity="0" result="BackgroundImageFix"/>
<feGaussianBlur in="BackgroundImage" stdDeviation="12.321"/>
<feComposite in2="SourceAlpha" operator="in" result="effect1_backgroundBlur_106_259"/>
<feBlend mode="normal" in="SourceGraphic" in2="effect1_backgroundBlur_106_259" result="shape"/>
</filter>
<filter id="filter4_b_106_259" x="174.608" y="76.9648" width="67.6672" height="67.6317" filterUnits="userSpaceOnUse" color-interpolation-filters="sRGB">
<feFlood flood-opacity="0" result="BackgroundImageFix"/>
<feGaussianBlur in="BackgroundImage" stdDeviation="12.321"/>
<feComposite in2="SourceAlpha" operator="in" result="effect1_backgroundBlur_106_259"/>
<feBlend mode="normal" in="SourceGraphic" in2="effect1_backgroundBlur_106_259" result="shape"/>
</filter>
<filter id="filter5_b_106_259" x="174.608" y="80.658" width="56.6611" height="63.1871" filterUnits="userSpaceOnUse" color-interpolation-filters="sRGB">
<feFlood flood-opacity="0" result="BackgroundImageFix"/>
<feGaussianBlur in="BackgroundImage" stdDeviation="12.321"/>
<feComposite in2="SourceAlpha" operator="in" result="effect1_backgroundBlur_106_259"/>
<feBlend mode="normal" in="SourceGraphic" in2="effect1_backgroundBlur_106_259" result="shape"/>
</filter>
<clipPath id="clip0_106_259">
<rect width="211.591" height="132.859" rx="8.96746" transform="matrix(0.707731 0.706482 -0.707731 0.706482 135.251 127.687)" fill="white"/>
</clipPath>
<clipPath id="clip1_106_259">
<rect width="15.7463" height="15.7463" fill="white" transform="matrix(0.707731 0.706482 -0.707731 0.706482 245.995 266.048)"/>
</clipPath>
<clipPath id="clip2_106_259">
<rect width="36.7217" height="24.6036" rx="3.94272" transform="matrix(0.707731 0.706482 -0.707731 0.706482 182.265 310.198)" fill="white"/>
</clipPath>
<clipPath id="clip3_106_259">
<rect width="211.752" height="132.758" rx="8.96746" transform="matrix(0.966084 -0.258229 0.25941 0.965767 0 54.7156)" fill="white"/>
</clipPath>
<clipPath id="clip4_106_259">
<rect width="36.7498" height="24.5847" rx="3.94272" transform="matrix(0.966084 -0.258229 0.25941 0.965767 181.868 105.349)" fill="white"/>
</clipPath>
</defs>
</svg>
