<svg width="333" height="419" viewBox="0 0 333 419" fill="none" xmlns="http://www.w3.org/2000/svg">
<g filter="url(#filter0_d_106_259)">
<g clip-path="url(#clip0_106_259)">
<rect width="211.921" height="133.067" transform="matrix(0.707731 0.706482 -0.707731 0.706482 159.251 139.688)" fill="black"/>
<mask id="mask0_106_259" style="mask-type:alpha" maskUnits="userSpaceOnUse" x="65" y="139" width="245" height="245">
<rect width="211.921" height="133.067" transform="matrix(0.707731 0.706482 -0.707731 0.706482 159.251 139.687)" fill="black"/>
</mask>
<g mask="url(#mask0_106_259)">
<path d="M349.111 265.146L285.103 269.842L267.925 286.99L272.168 341.954L235.331 350.909L210.263 394.477L162.398 339.551L139.494 362.415L99.4707 336.037L78.4207 283.587L32.9944 301.83L-73.4874 220.543L-5.84894 153.024L-19.7659 121.269L29.6209 71.9697L68.6011 65.1539L97.2731 -11.2544L131.599 -11.2844L176.255 33.2928L217.369 40.0384L239.131 96.0575L278.071 134.929L318.133 117.761L377.793 177.316L349.111 265.146Z" stroke="#373737" stroke-width="0.428701"/>
<path d="M175.514 196.444L172.474 205.814L164.279 213.995L152.56 213.711L143.58 207.715L138.735 209.651L127.347 200.946L134.551 193.755L142.477 184.393L145.519 176.242L149.183 176.248L153.962 181.018L164.857 191.894L169.13 190.071L175.514 196.444Z" stroke="#373737" stroke-width="0.428701"/>
<path d="M335.762 260.344L276.562 265.039L260.074 281.497L263.54 332.222L229.086 340.477L205.601 380.463L161.073 329.532L139.558 350.786L102.175 326.102L82.3063 277.352L40.6514 293.915L-57.3624 218.604L5.37798 155.919L-7.16359 126.247L38.6582 80.1127L74.7808 73.8214L101.388 3.29089L133.258 3.44661L174.662 44.7782L213.451 51.8417L233.704 103.481L269.813 139.293L307.038 123.69L362.355 178.91L335.762 260.344Z" stroke="#373737" stroke-width="0.428701"/>
<path d="M322.414 255.541L268.02 260.235L252.224 276.004L254.912 322.489L222.841 330.045L200.939 366.449L159.747 319.512L139.621 339.156L104.879 316.167L86.1916 271.116L48.3081 286L-41.2376 216.665L16.6046 158.814L5.43837 131.224L47.6952 88.2553L80.9603 82.4884L105.503 17.8357L134.916 18.1772L173.069 56.2633L209.534 63.6444L228.276 110.905L261.554 143.656L295.944 129.62L346.917 180.503L322.414 255.541Z" stroke="#373737" stroke-width="0.428701"/>
<path d="M309.065 250.739L259.478 255.432L244.373 270.511L246.284 312.757L216.596 319.614L196.277 352.435L158.422 309.493L139.685 327.527L107.584 306.232L90.0773 264.882L55.9653 278.085L-25.1126 214.727L27.8316 161.709L18.0408 136.202L56.7326 96.3983L87.1402 91.1559L109.618 32.381L136.574 32.9083L171.477 67.7488L205.617 75.4477L222.85 118.329L253.297 148.02L284.85 135.549L331.479 182.096L309.065 250.739Z" stroke="#373737" stroke-width="0.428701"/>
<path d="M295.717 245.936L250.936 250.629L236.522 265.017L237.656 303.025L210.351 309.182L191.615 338.421L157.096 299.474L139.749 315.898L110.288 296.297L93.9629 258.646L63.6223 270.17L-8.98757 212.788L39.0584 164.604L30.643 141.179L65.7698 104.541L93.3199 99.8231L113.734 46.9259L138.233 47.639L169.884 79.234L201.699 87.2506L217.423 125.753L245.039 152.383L273.756 141.478L316.041 183.689L295.717 245.936Z" stroke="#373737" stroke-width="0.428701"/>
<path d="M282.368 241.133L242.394 245.825L228.671 259.524L229.028 293.293L204.106 298.749L186.953 324.407L155.771 289.454L139.812 304.269L112.992 286.362L97.8484 252.411L71.2792 262.255L7.13732 210.849L50.2852 167.498L43.2452 146.156L74.807 112.684L99.4995 108.49L117.849 61.4708L139.891 62.3697L168.291 90.7191L197.782 99.0535L211.996 133.176L236.78 156.746L262.662 147.407L300.604 185.282L282.368 241.133Z" stroke="#373737" stroke-width="0.428701"/>
<path d="M269.02 236.331L233.853 241.022L220.821 254.031L220.401 283.561L197.861 288.318L182.291 310.394L154.445 279.435L139.876 292.64L115.697 276.427L101.734 246.176L78.9361 254.34L23.2623 208.91L61.5121 170.393L55.8475 151.134L83.8443 120.827L105.679 117.158L121.964 76.016L141.55 77.1007L166.698 102.205L193.865 110.857L206.569 140.6L228.522 161.11L251.568 153.337L285.166 186.876L269.02 236.331Z" stroke="#373737" stroke-width="0.428701"/>
<path d="M255.672 231.528L225.311 236.218L212.97 248.538L211.773 273.829L191.616 277.886L177.629 296.38L153.12 269.415L139.94 281.01L118.401 266.492L105.62 239.941L86.5932 246.425L39.3874 206.971L72.7391 173.288L68.4498 156.112L92.8816 128.969L111.859 125.825L126.079 90.5611L143.208 91.8315L165.105 113.69L189.948 122.66L201.142 148.024L220.265 165.474L240.474 159.266L269.728 188.469L255.672 231.528Z" stroke="#373737" stroke-width="0.428701"/>
<path d="M242.323 226.726L216.77 231.415L205.119 243.045L203.145 264.097L185.371 267.454L172.967 282.366L151.794 259.396L140.004 269.381L121.106 256.558L109.505 233.706L94.2504 238.51L55.5125 205.033L83.9661 176.183L81.0522 161.089L101.919 137.112L118.039 134.492L130.194 105.106L144.867 106.563L163.513 125.175L186.03 134.463L195.715 155.448L212.007 169.838L229.38 165.195L254.29 190.062L242.323 226.726Z" stroke="#373737" stroke-width="0.428701"/>
<path d="M228.975 221.923L208.228 226.611L197.269 237.551L194.517 254.365L179.126 257.022L168.305 268.352L150.469 249.376L140.067 257.752L123.81 246.622L113.391 227.471L101.907 230.595L71.6372 203.094L95.1927 179.078L93.6543 166.066L110.956 145.255L124.218 143.16L134.309 119.651L146.525 121.293L161.92 136.661L182.113 146.266L190.288 162.871L203.748 174.201L218.285 171.125L238.852 191.655L228.975 221.923Z" stroke="#373737" stroke-width="0.428701"/>
<path d="M215.626 217.121L199.686 221.808L189.418 232.058L185.889 244.633L172.881 246.59L163.643 254.338L149.143 239.357L140.131 246.123L126.514 236.687L117.276 221.235L109.564 222.679L87.7622 201.155L106.42 181.973L106.257 171.044L119.993 153.398L130.398 151.827L138.424 134.196L148.184 136.024L160.327 148.146L178.196 158.069L184.861 170.295L195.49 178.564L207.191 177.054L223.414 193.249L215.626 217.121Z" stroke="#373737" stroke-width="0.428701"/>
<path d="M202.278 212.318L191.144 217.005L181.567 226.565L177.262 234.901L166.636 236.158L158.981 240.324L147.818 229.338L140.194 234.493L129.219 226.752L121.162 215L117.221 214.764L103.887 199.216L117.647 184.868L118.859 176.021L129.031 161.541L136.578 160.494L142.54 148.741L149.842 150.755L158.734 159.631L174.279 169.872L179.434 177.719L187.233 182.928L196.097 182.983L207.977 194.842L202.278 212.318Z" stroke="#373737" stroke-width="0.428701"/>
<path d="M188.929 207.516L182.602 212.201L173.716 221.072L168.634 225.169L160.391 225.726L154.318 226.31L146.492 219.318L140.258 222.864L131.923 216.818L125.047 208.765L124.878 206.849L120.012 197.278L128.873 187.763L131.461 180.999L138.068 169.683L142.758 169.162L146.655 163.287L151.501 165.486L157.141 171.117L170.361 181.675L174.007 185.143L178.974 187.292L185.003 188.912L192.539 196.435L188.929 207.516Z" stroke="#373737" stroke-width="0.428701"/>
</g>
<path d="M112.543 220.462L111.288 221.714L112.766 223.19L113.998 221.961C114.523 222.375 115.067 222.684 115.629 222.889C116.449 223.181 117.243 223.25 118.011 223.095C118.788 222.94 119.488 222.553 120.11 221.932C120.821 221.222 121.199 220.463 121.246 219.654C121.293 218.845 121.014 217.885 120.41 216.774L119.079 214.36C118.716 213.687 118.522 213.123 118.498 212.666C118.475 212.21 118.618 211.827 118.929 211.516C119.211 211.234 119.548 211.068 119.939 211.016C120.34 210.965 120.748 211.024 121.162 211.193C121.587 211.363 121.98 211.639 122.343 212.02C122.735 212.42 123.011 212.855 123.171 213.326C123.337 213.801 123.384 214.281 123.314 214.765C123.248 215.255 123.067 215.713 122.77 216.141L124.546 217.377C125.035 216.625 125.329 215.856 125.427 215.07C125.531 214.289 125.441 213.523 125.157 212.77C124.995 212.334 124.768 211.91 124.478 211.499L125.749 210.23L124.271 208.754L123.027 209.996C122.558 209.636 122.075 209.365 121.578 209.183C120.819 208.905 120.077 208.841 119.351 208.991C118.63 209.145 117.973 209.519 117.38 210.111C116.122 211.366 115.982 212.919 116.959 214.768L118.615 217.888C118.931 218.495 119.085 219.006 119.076 219.419C119.071 219.838 118.9 220.217 118.561 220.555C118.085 221.03 117.491 221.218 116.78 221.118C116.073 221.024 115.399 220.656 114.757 220.016C114.111 219.371 113.734 218.642 113.625 217.828C113.52 217.009 113.699 216.229 114.16 215.486L112.463 214.257C111.931 215.004 111.606 215.79 111.489 216.613C111.381 217.436 111.479 218.252 111.781 219.062C111.962 219.547 112.216 220.013 112.543 220.462Z" fill="#E9FF6B"/>
<path fill-rule="evenodd" clip-rule="evenodd" d="M126.328 233.724C126.503 234.312 126.873 234.889 127.439 235.454C128.151 236.164 128.891 236.621 129.659 236.824C130.242 236.976 130.858 236.996 131.509 236.884L130.402 237.989L131.711 239.295L136.408 234.606C136.729 234.286 137.013 233.974 137.263 233.668C137.513 233.363 137.701 233.024 137.828 232.653C138.096 231.914 138.091 231.176 137.812 230.437C137.543 229.698 137.066 228.987 136.383 228.305C135.501 227.425 134.6 226.911 133.681 226.765C132.767 226.623 131.888 226.785 131.045 227.25L132.001 229.05C132.561 228.754 133.101 228.681 133.619 228.832C134.142 228.978 134.604 229.251 135.005 229.652C135.642 230.287 135.944 230.88 135.911 231.43C135.891 231.911 135.648 232.405 135.183 232.914C134.853 232.666 134.521 232.415 134.187 232.163C133.65 231.758 133.129 231.379 132.624 231.026C132.12 230.673 131.648 230.376 131.21 230.136C130.691 229.872 130.194 229.709 129.718 229.648C129.247 229.582 128.797 229.626 128.368 229.781C127.939 229.936 127.532 230.206 127.146 230.592C126.731 231.005 126.446 231.483 126.291 232.023C126.146 232.564 126.158 233.131 126.328 233.724ZM130.21 235.371C129.762 235.215 129.328 234.928 128.908 234.509C128.592 234.194 128.383 233.885 128.279 233.584C128.175 233.283 128.156 233.001 128.221 232.737C128.292 232.469 128.426 232.237 128.624 232.039C128.826 231.837 129.043 231.71 129.274 231.659C129.51 231.612 129.755 231.617 130.009 231.673C130.268 231.735 130.535 231.831 130.808 231.963C131.124 232.128 131.461 232.338 131.819 232.592C132.187 232.846 132.59 233.136 133.029 233.461C133.31 233.669 133.612 233.892 133.935 234.13C133.807 234.251 133.658 234.388 133.489 234.541C133.197 234.813 132.898 235.022 132.592 235.168C132.285 235.361 131.925 235.48 131.51 235.527C131.096 235.574 130.662 235.522 130.21 235.371Z" fill="#E9FF6B"/>
<path d="M135.337 242.915L140.193 232.531L141.685 234.021L137.937 241.816L145.746 238.074L147.238 239.564L136.837 244.412L135.337 242.915Z" fill="#E9FF6B"/>
<path d="M147.805 240.13L142.949 250.514L144.449 252.011L154.851 247.163L153.358 245.674L145.55 249.415L149.298 241.62L147.805 240.13Z" fill="#E9FF6B"/>
<path d="M146.07 260.398L150.752 258.237L155.257 247.569L156.799 249.108L153.323 257.086L161.213 253.514L162.712 255.011L147.477 261.803L146.07 260.398Z" fill="#E9FF6B"/>
<path d="M156.875 261.298L155.314 262.856L156.877 264.417L158.438 262.858L156.875 261.298Z" fill="#E9FF6B"/>
<path d="M119.796 225.064C119.889 224.412 120.145 223.794 120.559 223.212L120.694 223.022L122.319 224.199L122.206 224.381C121.89 224.891 121.771 225.419 121.842 225.971C121.916 226.521 122.17 227.018 122.619 227.466C123.07 227.917 123.528 228.159 123.991 228.221L123.993 228.222C124.456 228.287 124.823 228.167 125.122 227.869C125.338 227.653 125.435 227.427 125.437 227.185L125.437 227.182C125.442 226.93 125.348 226.592 125.12 226.155L125.12 226.154L123.887 223.834C123.51 223.12 123.337 222.443 123.394 221.809C123.451 221.171 123.739 220.601 124.238 220.102C124.706 219.635 125.233 219.333 125.818 219.208L125.82 219.207C126.405 219.087 127.001 219.14 127.602 219.361C128.204 219.581 128.771 219.963 129.306 220.497L129.307 220.498L129.308 220.499C129.814 221.019 130.181 221.574 130.402 222.165C130.626 222.759 130.698 223.367 130.617 223.986C130.539 224.608 130.307 225.212 129.927 225.797L129.797 225.996L128.093 224.808L128.223 224.62C128.424 224.33 128.544 224.024 128.588 223.698L128.588 223.695C128.635 223.373 128.603 223.053 128.492 222.733L128.492 222.732C128.384 222.418 128.199 222.123 127.929 221.847L127.927 221.846L127.926 221.845C127.676 221.581 127.41 221.397 127.129 221.285L127.127 221.284C126.852 221.171 126.589 221.135 126.335 221.167C126.095 221.198 125.892 221.299 125.717 221.473C125.534 221.656 125.45 221.876 125.465 222.153C125.48 222.443 125.606 222.828 125.87 223.315L126.86 225.111C127.32 225.956 127.549 226.714 127.511 227.376C127.473 228.046 127.159 228.661 126.6 229.219C126.11 229.708 125.55 230.021 124.923 230.145C124.306 230.269 123.673 230.212 123.029 229.982L123.027 229.981C122.383 229.746 121.777 229.34 121.207 228.771C120.661 228.226 120.265 227.635 120.027 226.997C119.789 226.362 119.711 225.717 119.796 225.066L119.796 225.064Z" fill="#E9FF6B"/>
<g clip-path="url(#clip1_106_259)">
<path d="M267.209 283.818C267.175 284.131 267.07 284.444 266.931 284.722C266.791 285 266.582 285.279 266.339 285.522C266.095 285.765 265.816 285.974 265.538 286.113C265.259 286.252 264.946 286.356 264.632 286.391C264.214 286.461 263.901 286.843 263.971 287.26C264.04 287.677 264.423 287.99 264.841 287.921C265.329 287.851 265.747 287.712 266.234 287.503C266.722 287.295 267.105 286.982 267.453 286.634C267.801 286.287 268.08 285.87 268.324 285.418C268.533 285 268.672 284.514 268.742 284.027C268.811 283.61 268.498 283.227 268.08 283.158C267.662 283.088 267.279 283.401 267.209 283.818Z" fill="#FAFAFA"/>
<path d="M270.135 284.722C269.891 285.8 269.334 286.843 268.498 287.677C267.662 288.512 266.617 289.068 265.538 289.311C265.12 289.381 264.876 289.833 264.946 290.25C265.05 290.702 265.468 290.91 265.886 290.841C267.244 290.528 268.533 289.867 269.612 288.79C270.657 287.747 271.354 286.426 271.667 285.07C271.737 284.653 271.493 284.201 271.075 284.131C270.657 284.062 270.239 284.27 270.135 284.722Z" fill="#FAFAFA"/>
<path d="M273.199 285.696C272.816 287.26 271.98 288.72 270.762 289.937C269.543 291.154 268.045 291.953 266.513 292.37C266.095 292.509 265.851 292.892 265.956 293.344C266.095 293.761 266.478 294.004 266.931 293.9C268.776 293.448 270.483 292.509 271.911 291.084C273.339 289.659 274.279 287.955 274.732 286.113C274.871 285.696 274.592 285.279 274.174 285.139C273.722 285.035 273.339 285.279 273.199 285.696Z" fill="#FAFAFA"/>
<path d="M276.264 286.669C275.707 288.685 274.662 290.632 273.06 292.231C271.458 293.83 269.543 294.908 267.488 295.43C267.07 295.569 266.826 295.951 266.931 296.403C267.07 296.82 267.453 297.064 267.906 296.959C270.204 296.333 272.363 295.151 274.174 293.344C275.985 291.536 277.169 289.381 277.796 287.086C277.936 286.669 277.657 286.252 277.239 286.113C276.821 285.974 276.403 286.252 276.264 286.669Z" fill="#FAFAFA"/>
</g>
<g clip-path="url(#clip2_106_259)">
<g filter="url(#filter1_b_106_259)">
<ellipse rx="9.18043" ry="9.18043" transform="matrix(0.707731 0.706482 -0.707731 0.706482 206.785 339.84)" fill="#FAFAFA" fill-opacity="0.3"/>
</g>
<g filter="url(#filter2_b_106_259)">
<path d="M221.339 354.368C217.75 357.95 211.933 357.95 208.344 354.368C204.756 350.786 204.756 344.978 208.344 341.396C211.933 337.814 217.75 337.814 221.339 341.396C224.927 344.978 224.927 350.786 221.339 354.368Z" fill="#FAFAFA" fill-opacity="0.7"/>
</g>
<g filter="url(#filter3_b_106_259)">
<path d="M215.911 338.771C213.217 338.458 210.411 339.333 208.344 341.396C206.278 343.459 205.401 346.26 205.715 348.95C208.409 349.263 211.215 348.388 213.282 346.325C215.349 344.262 216.225 341.461 215.911 338.771Z" fill="#FAFAFA" fill-opacity="0.6"/>
</g>
</g>
<path d="M98.3504 229.988C98.1634 229.801 98.0267 229.592 97.9402 229.361C97.8565 229.133 97.8328 228.9 97.869 228.663L98.5513 228.601C98.5206 228.793 98.5248 228.964 98.5638 229.115C98.6057 229.268 98.6838 229.402 98.7982 229.516C99.1024 229.819 99.4344 229.791 99.7944 229.432L101.31 227.92L100.267 226.879L100.724 226.424L102.31 228.007L100.368 229.946C100.022 230.291 99.6786 230.464 99.3382 230.464C99.0005 230.467 98.6713 230.308 98.3504 229.988ZM101.068 232.676C100.839 232.447 100.685 232.195 100.604 231.92C100.526 231.641 100.521 231.364 100.591 231.088C100.661 230.812 100.806 230.564 101.026 230.344C101.25 230.122 101.498 229.977 101.771 229.91C102.048 229.84 102.324 229.846 102.6 229.927C102.876 230.007 103.129 230.162 103.358 230.39C103.589 230.622 103.746 230.875 103.827 231.151C103.91 231.429 103.917 231.704 103.847 231.974C103.781 232.247 103.634 232.496 103.408 232.722C103.188 232.942 102.939 233.087 102.663 233.156C102.389 233.229 102.112 233.225 101.83 233.144C101.554 233.063 101.3 232.907 101.068 232.676ZM101.516 232.229C101.644 232.357 101.787 232.443 101.943 232.488C102.099 232.532 102.258 232.53 102.42 232.479C102.585 232.432 102.738 232.337 102.881 232.195C103.026 232.051 103.121 231.897 103.165 231.736C103.215 231.574 103.218 231.415 103.174 231.259C103.129 231.103 103.044 230.963 102.918 230.837C102.79 230.709 102.648 230.623 102.491 230.578C102.338 230.537 102.179 230.539 102.014 230.587C101.852 230.631 101.699 230.726 101.554 230.871C101.411 231.013 101.317 231.166 101.269 231.33C101.222 231.495 101.219 231.654 101.261 231.807C101.305 231.963 101.391 232.103 101.516 232.229ZM102.072 235.299C101.963 235.191 101.873 235.064 101.8 234.919C101.728 234.774 101.687 234.634 101.679 234.497L102.273 234.322C102.279 234.422 102.301 234.519 102.34 234.614C102.379 234.709 102.434 234.791 102.503 234.861C102.598 234.955 102.699 235.008 102.805 235.019C102.911 235.03 103.045 235.005 103.207 234.944L103.629 234.781L103.734 234.76L106.555 233.632L107.057 234.134L103.596 235.5C103.359 235.597 103.148 235.652 102.964 235.663C102.782 235.677 102.619 235.65 102.474 235.583C102.332 235.519 102.198 235.425 102.072 235.299ZM103.294 234.998L104.6 231.681L105.145 232.224L104.035 234.969L103.294 234.998ZM106.356 237.896L109.286 234.971L109.83 235.514L107.361 237.98L108.893 239.509L108.432 239.968L106.356 237.896ZM110.193 241.726L110.645 241.275L110.712 241.149L111.503 240.36C111.656 240.206 111.729 240.042 111.72 239.866C111.715 239.688 111.619 239.506 111.432 239.319C111.306 239.194 111.162 239.089 111.001 239.006C110.842 238.925 110.685 238.878 110.532 238.864L110.708 238.279C110.92 238.307 111.13 238.38 111.34 238.5C111.554 238.62 111.751 238.769 111.93 238.947C112.253 239.27 112.425 239.598 112.445 239.929C112.47 240.261 112.32 240.588 111.997 240.911L110.687 242.219L110.193 241.726ZM109.46 241.053C109.293 240.886 109.174 240.712 109.104 240.531C109.038 240.347 109.019 240.17 109.05 240C109.086 239.83 109.169 239.681 109.297 239.553C109.423 239.428 109.565 239.344 109.724 239.302C109.886 239.263 110.064 239.283 110.26 239.361C110.455 239.439 110.666 239.591 110.892 239.816L111.54 240.464L111.193 240.811L110.582 240.201C110.403 240.022 110.254 239.932 110.134 239.929C110.017 239.924 109.916 239.963 109.833 240.046C109.738 240.141 109.7 240.254 109.72 240.385C109.739 240.515 109.816 240.648 109.95 240.782C110.078 240.91 110.222 240.995 110.381 241.036C110.543 241.081 110.703 241.068 110.862 240.999L110.636 241.4C110.455 241.481 110.263 241.492 110.059 241.433C109.858 241.378 109.658 241.251 109.46 241.053ZM111.358 242.889L113.593 240.658L114.091 241.155L113.476 241.769L113.597 241.531C113.815 241.448 114.034 241.438 114.255 241.502C114.478 241.569 114.697 241.709 114.912 241.924L114.414 242.421C114.397 242.393 114.379 242.37 114.359 242.35C114.342 242.328 114.324 242.307 114.305 242.287C114.107 242.09 113.89 241.991 113.656 241.991C113.424 241.988 113.194 242.101 112.965 242.329L111.881 243.411L111.358 242.889ZM114.05 245.635C113.821 245.406 113.666 245.154 113.585 244.879C113.507 244.6 113.503 244.323 113.573 244.047C113.643 243.771 113.788 243.523 114.008 243.303C114.231 243.081 114.48 242.936 114.753 242.869C115.03 242.799 115.306 242.805 115.582 242.886C115.858 242.966 116.111 243.121 116.34 243.349C116.571 243.581 116.727 243.834 116.808 244.11C116.892 244.388 116.899 244.663 116.829 244.933C116.762 245.206 116.616 245.455 116.39 245.681C116.169 245.901 115.921 246.046 115.645 246.115C115.371 246.188 115.094 246.184 114.812 246.103C114.536 246.022 114.282 245.866 114.05 245.635ZM114.498 245.188C114.626 245.316 114.769 245.402 114.925 245.447C115.081 245.491 115.24 245.489 115.402 245.438C115.567 245.391 115.72 245.296 115.862 245.154C116.008 245.009 116.102 244.856 116.147 244.695C116.197 244.533 116.2 244.374 116.155 244.218C116.111 244.062 116.026 243.922 115.9 243.796C115.772 243.668 115.629 243.582 115.473 243.537C115.32 243.496 115.161 243.498 114.996 243.546C114.834 243.59 114.681 243.685 114.536 243.83C114.393 243.972 114.298 244.125 114.251 244.289C114.204 244.454 114.201 244.613 114.243 244.766C114.287 244.922 114.372 245.062 114.498 245.188ZM115.054 248.258C114.945 248.15 114.855 248.023 114.782 247.878C114.71 247.733 114.669 247.592 114.661 247.456L115.255 247.281C115.261 247.381 115.283 247.478 115.322 247.573C115.361 247.668 115.415 247.75 115.485 247.82C115.58 247.914 115.681 247.967 115.787 247.978C115.893 247.989 116.027 247.964 116.188 247.903L116.611 247.74L116.716 247.719L119.537 246.591L120.039 247.093L116.578 248.459C116.34 248.556 116.13 248.611 115.946 248.622C115.764 248.636 115.601 248.609 115.456 248.542C115.314 248.478 115.18 248.384 115.054 248.258ZM116.276 247.957L117.582 244.64L118.126 245.183L117.017 247.928L116.276 247.957Z" fill="#FAFAFA"/>
<path d="M125.708 257.213L128.428 254.497L128.42 254.982L127.562 254.126L128.018 253.67L129.182 254.832L126.252 257.756L125.708 257.213ZM126.795 258.299L127.159 257.935L129.428 257.994C129.618 258 129.771 257.991 129.888 257.969C130.006 257.947 130.1 257.913 130.173 257.869C130.251 257.824 130.317 257.775 130.37 257.722C130.504 257.589 130.561 257.44 130.541 257.275C130.525 257.108 130.427 256.935 130.248 256.757C130.106 256.615 129.951 256.511 129.784 256.444C129.619 256.38 129.443 256.357 129.256 256.377L129.168 255.704C129.436 255.665 129.708 255.7 129.985 255.809C130.266 255.917 130.527 256.091 130.767 256.331C130.979 256.543 131.129 256.761 131.215 256.987C131.307 257.213 131.332 257.43 131.291 257.639C131.251 257.85 131.145 258.043 130.972 258.215C130.878 258.31 130.77 258.392 130.65 258.462C130.533 258.529 130.388 258.579 130.215 258.612C130.042 258.646 129.824 258.66 129.562 258.654L127.611 258.604L127.704 258.286L129.415 259.995L128.955 260.455L126.795 258.299ZM128.582 260.918L133.906 258.361L134.374 258.829L129.05 261.386L128.582 260.918ZM130.826 262.322L131.19 261.959L133.458 262.017C133.648 262.023 133.801 262.014 133.919 261.992C134.036 261.97 134.131 261.936 134.203 261.892C134.281 261.847 134.347 261.798 134.4 261.745C134.534 261.612 134.591 261.463 134.572 261.298C134.555 261.131 134.457 260.959 134.279 260.78C134.136 260.638 133.981 260.534 133.814 260.467C133.649 260.403 133.474 260.381 133.287 260.4L133.199 259.727C133.467 259.688 133.739 259.723 134.015 259.832C134.297 259.941 134.558 260.115 134.798 260.354C135.01 260.566 135.159 260.785 135.245 261.01C135.338 261.236 135.363 261.453 135.321 261.662C135.282 261.874 135.176 262.066 135.003 262.239C134.908 262.333 134.8 262.415 134.68 262.485C134.563 262.552 134.418 262.602 134.245 262.635C134.072 262.669 133.854 262.683 133.592 262.677L131.642 262.627L131.734 262.31L133.446 264.018L132.985 264.478L130.826 262.322ZM133.862 264.024L134.238 263.648L137.57 263.205L138.152 263.786L134.841 264.25L134.653 263.895L136.976 266.214L136.515 266.673L133.862 264.024ZM134.803 266.293L135.469 265.629L135.946 265.186L136.536 264.597L137.047 265.106L135.331 266.819L134.803 266.293Z" fill="#FAFAFA"/>
</g>
</g>
<g filter="url(#filter4_d_106_259)">
<g clip-path="url(#clip3_106_259)">
<rect width="211.921" height="133.067" transform="matrix(0.966084 -0.258229 0.25941 0.965767 24.0001 66.7156)" fill="white"/>
<mask id="mask1_106_259" style="mask-type:alpha" maskUnits="userSpaceOnUse" x="24" y="11" width="240" height="185">
<rect width="211.921" height="133.067" transform="matrix(0.966084 -0.258229 0.25941 0.965767 24 66.7156)" fill="black"/>
</mask>
<g mask="url(#mask1_106_259)">
<path d="M227.601 -34.6395L199.718 23.0616L206.015 46.5027L255.804 70.357L245.18 106.695L270.452 150.188L198.918 164.075L207.313 195.33L164.453 216.731L108.452 208.669L101.596 257.086L-22.0673 308.46L-46.8593 216.161L-81.3489 212.295L-99.451 144.901L-85.9015 107.781L-137.857 44.7261L-120.746 15.0283L-59.7888 -1.2653L-33.412 -33.4397L26.0392 -24.2067L79.194 -38.4147L84.3051 -81.6543L165.744 -103.423L227.601 -34.6395Z" stroke="#EEEEEE" stroke-width="0.428701"/>
<path d="M81.3463 81.0728L87.9549 88.3934L90.9588 99.5764L84.8614 109.569L75.1781 114.331L74.4385 119.49L61.2028 124.979L58.5623 115.149L54.3993 103.606L48.8491 96.8949L50.6834 93.7287L57.2065 91.9851L72.0792 88.0097L72.6314 83.4022L81.3463 81.0728Z" stroke="#EEEEEE" stroke-width="0.428701"/>
<path d="M216.772 -25.5016L191.288 28.0425L197.331 50.5407L243.056 72.9443L233.015 106.872L255.97 147.202L189.566 160.204L197.258 189.451L157.186 209.417L104.984 202.187L98.5538 246.501L-15.6984 293.546L-38.7434 207.902L-70.74 203.889L-87.8766 141.164L-75.2989 106.777L-123.188 48.4509L-107.142 20.9705L-50.6225 5.86321L-25.1307 -24.1421L29.7686 -15.7964L78.8558 -29.0887L83.909 -69.0918L159.419 -89.2752L216.772 -25.5016Z" stroke="#EEEEEE" stroke-width="0.428701"/>
<path d="M205.942 -16.3634L182.857 33.0237L188.647 54.5789L230.307 75.532L220.849 107.048L241.488 144.217L180.214 156.333L187.204 183.573L149.919 202.104L101.516 195.705L95.5114 235.917L-9.32976 278.631L-30.6279 199.644L-60.1316 195.484L-76.3026 137.427L-64.6966 105.774L-108.518 52.176L-93.5376 26.913L-41.4565 12.992L-16.8497 -14.8441L33.4977 -7.38596L78.5174 -19.7625L83.5125 -56.5291L153.093 -75.1275L205.942 -16.3634Z" stroke="#EEEEEE" stroke-width="0.428701"/>
<path d="M195.113 -7.22547L174.427 38.0047L179.963 58.617L217.559 78.1194L208.684 107.225L227.006 141.231L170.862 152.462L177.149 177.695L142.653 194.791L98.0485 189.223L92.4696 225.332L-2.9606 263.716L-22.5117 191.385L-49.5225 187.079L-64.728 133.69L-54.0937 104.77L-93.8481 55.9009L-79.933 32.8552L-32.29 20.1205L-8.56805 -5.54645L37.2274 1.02427L78.1794 -10.4366L83.1166 -43.9666L146.768 -60.9802L195.113 -7.22547Z" stroke="#EEEEEE" stroke-width="0.428701"/>
<path d="M184.283 1.91256L165.996 42.9857L171.279 62.6551L204.811 80.7069L196.518 107.401L212.524 138.245L161.51 148.591L167.095 171.817L135.386 187.477L94.5805 182.741L89.4275 214.748L3.40826 248.802L-14.3959 183.127L-38.9138 178.674L-53.1538 129.952L-43.4912 103.766L-79.1784 59.6258L-66.3286 38.7976L-23.1238 27.2492L-0.286751 3.75135L40.9567 9.43463L77.8412 -1.11053L82.7204 -31.404L140.442 -46.8327L184.283 1.91256Z" stroke="#EEEEEE" stroke-width="0.428701"/>
<path d="M173.453 11.0506L157.565 47.9668L162.595 66.6932L192.062 83.2943L184.352 107.578L198.042 135.259L152.158 144.72L157.04 165.938L128.119 180.164L91.1123 176.258L86.3851 204.163L9.77692 233.887L-6.2803 174.868L-28.3052 170.269L-41.5797 126.215L-32.8888 102.763L-64.5089 63.3508L-52.7245 44.7399L-13.9578 34.3778L7.99433 13.0492L44.6859 17.845L77.5027 8.21554L82.324 -18.8414L134.116 -32.6852L173.453 11.0506Z" stroke="#EEEEEE" stroke-width="0.428701"/>
<path d="M162.623 20.1885L149.135 52.9477L153.911 70.7312L179.314 85.8817L172.186 107.754L183.56 132.273L142.807 140.849L146.986 160.06L120.853 172.85L87.6443 169.776L83.343 193.578L16.1458 218.973L1.83552 166.609L-17.6964 161.864L-30.0054 122.478L-22.2862 101.759L-49.8392 67.0757L-39.1201 50.6822L-4.79155 41.5063L16.2756 22.3468L48.4153 26.2552L77.1645 17.5415L81.9278 -6.27894L127.791 -18.5379L162.623 20.1885Z" stroke="#EEEEEE" stroke-width="0.428701"/>
<path d="M151.794 29.3263L140.704 57.9285L145.228 74.7691L166.566 88.469L160.021 107.931L169.078 129.287L133.455 136.978L136.931 154.181L113.586 165.537L84.1766 163.294L80.3011 182.993L22.5149 204.058L9.95161 158.351L-7.08746 153.458L-18.4308 118.74L-11.6834 100.755L-35.1692 70.8004L-25.5155 56.6243L4.37492 48.6347L24.5572 31.6444L52.1449 34.6653L76.8266 26.8673L81.5318 6.28341L121.465 -4.39062L151.794 29.3263Z" stroke="#EEEEEE" stroke-width="0.428701"/>
<path d="M140.965 38.4644L132.274 62.9096L136.544 78.8072L153.818 91.0565L147.855 108.107L154.596 126.301L124.103 133.107L126.877 148.303L106.32 158.223L80.7086 156.812L77.259 172.409L28.8838 189.143L18.0675 150.092L3.52134 145.053L-6.8565 115.003L-1.08079 99.7515L-20.4994 74.5254L-11.9111 62.5666L13.5412 55.7634L32.8385 40.9422L55.8743 43.0757L76.4884 36.1934L81.1357 18.846L115.14 9.75686L140.965 38.4644Z" stroke="#EEEEEE" stroke-width="0.428701"/>
<path d="M130.135 47.6026L123.843 67.8909L127.86 82.8456L141.069 93.6442L135.69 108.284L140.114 123.315L114.751 129.236L116.822 142.425L99.0529 150.91L77.2404 150.33L74.2167 161.824L35.2524 174.229L26.1831 141.834L14.1299 136.649L4.71755 111.266L9.52155 98.7481L-5.82994 78.2506L1.69307 68.5092L22.7072 62.8923L41.1196 50.2402L59.6034 51.4863L76.1499 45.5197L80.7392 31.4089L108.814 23.9046L130.135 47.6026Z" stroke="#EEEEEE" stroke-width="0.428701"/>
<path d="M119.305 56.7404L115.412 72.8717L119.176 86.8835L128.321 96.2315L123.524 108.46L125.632 120.329L105.399 125.365L106.768 136.547L91.7863 143.597L73.7724 143.847L71.1746 151.239L41.6213 159.314L34.2989 133.575L24.7386 128.243L16.2919 107.528L20.1241 97.7442L8.83981 81.9753L15.2975 74.4513L31.8734 70.0207L49.4009 59.5378L63.3328 59.8964L75.8117 54.8455L80.343 43.9712L102.489 38.0518L119.305 56.7404Z" stroke="#EEEEEE" stroke-width="0.428701"/>
<path d="M108.476 65.8782L106.982 77.8525L110.492 90.9214L115.573 98.8187L111.359 108.637L111.15 117.343L96.0476 121.494L96.7134 130.668L84.5199 136.283L70.3047 137.365L68.1327 140.655L47.9904 144.399L42.415 125.316L35.3476 119.838L27.8664 103.791L30.727 96.7403L23.5098 85.7L28.9021 80.3935L41.0399 77.1491L57.6825 68.8354L67.0624 68.3065L75.4737 64.1713L79.9471 56.5336L96.1633 52.1991L108.476 65.8782Z" stroke="#EEEEEE" stroke-width="0.428701"/>
<path d="M97.6459 75.0164L98.5512 82.8337L101.808 94.9596L102.824 101.406L99.1927 108.813L96.6675 114.357L86.6956 117.623L86.6587 124.79L77.253 128.97L66.8365 130.883L65.0903 130.07L54.3591 129.485L50.5306 117.058L45.9562 111.433L39.4405 100.054L41.3293 95.7368L38.1793 89.4251L42.5062 86.3359L50.2059 84.2778L65.9635 78.1333L70.7916 76.717L75.1353 73.4975L79.5507 69.0963L89.8375 66.3467L97.6459 75.0164Z" stroke="#EEEEEE" stroke-width="0.428701"/>
</g>
<g clip-path="url(#clip4_106_259)">
<g filter="url(#filter5_b_106_259)">
<ellipse rx="9.18745" ry="9.17341" transform="matrix(0.966084 -0.258229 0.25941 0.965767 221.436 125.722)" fill="black" fill-opacity="0.3"/>
</g>
<g filter="url(#filter6_b_106_259)">
<path d="M241.318 120.408C242.632 125.301 239.723 130.33 234.821 131.64C229.919 132.95 224.88 130.046 223.566 125.153C222.252 120.26 225.16 115.232 230.062 113.921C234.964 112.611 240.003 115.515 241.318 120.408Z" fill="black" fill-opacity="0.7"/>
</g>
<g filter="url(#filter7_b_106_259)">
<path d="M225.071 117.3C223.453 119.472 222.809 122.335 223.566 125.153C224.323 127.971 226.315 130.13 228.806 131.203C230.425 129.031 231.068 126.168 230.311 123.35C229.555 120.532 227.562 118.373 225.071 117.3Z" fill="black" fill-opacity="0.6"/>
</g>
</g>
<path d="M70.4623 149.219C69.8803 149.375 69.3499 149.4 68.871 149.294C68.3921 149.188 67.9815 148.982 67.6392 148.675C67.2969 148.368 67.0374 147.983 66.8609 147.519L67.9036 147.24C68.1 147.681 68.407 148.002 68.8247 148.202C69.2401 148.394 69.7065 148.421 70.2237 148.283C70.8299 148.121 71.2547 147.799 71.4981 147.319C71.7393 146.83 71.7796 146.287 71.619 145.689C71.4497 145.058 71.1395 144.613 70.6884 144.353C70.2351 144.084 69.7255 144.025 69.1598 144.177C68.7071 144.298 68.3474 144.506 68.0805 144.803C67.8195 145.089 67.6344 145.416 67.525 145.783L66.5551 146.042L66.0227 141.157L70.5571 139.945L70.8077 140.878L67.0735 141.876L67.3021 144.517L67.3627 144.501C67.4943 144.249 67.6972 144.005 67.9711 143.767C68.2532 143.527 68.6044 143.351 69.0247 143.238C69.5824 143.089 70.0999 143.081 70.5773 143.213C71.0605 143.335 71.479 143.587 71.8328 143.969C72.1844 144.342 72.4394 144.824 72.5978 145.414C72.7454 145.963 72.7638 146.5 72.6532 147.023C72.5484 147.536 72.3106 147.989 71.9399 148.383C71.5772 148.774 71.0847 149.053 70.4623 149.219ZM74.9529 147.863L74.738 147.063C75.4243 146.135 76.0126 145.294 76.503 144.539C77.0014 143.782 77.3557 143.086 77.566 142.449C77.7762 141.813 77.8053 141.212 77.6534 140.646C77.5167 140.137 77.2638 139.776 76.8947 139.563C76.5315 139.34 76.1074 139.293 75.6224 139.422C75.2506 139.522 74.9571 139.687 74.7418 139.918C74.5266 140.148 74.3901 140.414 74.3324 140.715C74.2747 141.017 74.2871 141.321 74.3696 141.628L73.3633 141.897C73.2216 141.337 73.2148 140.828 73.3429 140.369C73.4768 139.901 73.7177 139.507 74.0654 139.189C74.4212 138.869 74.8577 138.64 75.375 138.501C76.2075 138.279 76.916 138.336 77.5004 138.674C78.0848 139.011 78.4812 139.568 78.6896 140.343C78.8263 140.852 78.8485 141.37 78.7561 141.897C78.6616 142.416 78.49 142.938 78.2413 143.464C77.9926 143.989 77.6951 144.51 77.3488 145.027C77.0026 145.544 76.6479 146.046 76.2848 146.533L80.31 145.457L80.5542 146.366L74.9529 147.863ZM85.1108 145.304C84.5531 145.453 84.0248 145.486 83.526 145.403C83.0331 145.309 82.6001 145.1 82.2271 144.776C81.854 144.451 81.5783 144.005 81.3999 143.438L82.4426 143.159C82.589 143.64 82.8775 144.004 83.3081 144.253C83.7366 144.493 84.2539 144.533 84.8601 144.371C85.4502 144.213 85.8667 143.941 86.1097 143.556C86.3505 143.163 86.4004 142.703 86.2593 142.178C86.1617 141.814 85.9884 141.54 85.7396 141.356C85.4886 141.163 85.1902 141.052 84.8446 141.023C84.5049 140.984 84.1451 141.015 83.7653 141.117L83.0257 141.315L82.7783 140.394L83.4208 140.222C83.9705 140.075 84.3755 139.841 84.6358 139.52C84.9043 139.197 84.9777 138.81 84.8562 138.357C84.7542 137.977 84.5373 137.702 84.2054 137.531C83.8817 137.358 83.4773 137.336 82.9924 137.465C82.5236 137.591 82.1795 137.826 81.9601 138.17C81.7386 138.506 81.6641 138.89 81.7365 139.321L80.7181 139.593C80.6105 139.128 80.6233 138.692 80.7563 138.284C80.8871 137.868 81.1193 137.507 81.453 137.201C81.7948 136.894 82.2244 136.67 82.7417 136.532C83.2994 136.383 83.7902 136.356 84.2141 136.45C84.646 136.543 85.0035 136.729 85.2865 137.008C85.5673 137.279 85.7609 137.613 85.8672 138.009C85.9801 138.429 85.9506 138.835 85.7787 139.228C85.6047 139.612 85.3573 139.916 85.0364 140.141L85.0559 140.213C85.5718 140.231 86.0341 140.372 86.4426 140.635C86.8512 140.898 87.1336 141.321 87.2899 141.903C87.4223 142.395 87.4244 142.871 87.2964 143.33C87.1764 143.786 86.9297 144.19 86.5561 144.541C86.1907 144.89 85.7089 145.144 85.1108 145.304ZM92.2714 143.39C91.6894 143.545 91.159 143.57 90.6801 143.465C90.2012 143.359 89.7906 143.152 89.4483 142.845C89.1059 142.539 88.8465 142.153 88.67 141.69L89.7126 141.411C89.9091 141.852 90.2161 142.173 90.6337 142.373C91.0492 142.565 91.5155 142.592 92.0328 142.453C92.639 142.291 93.0638 141.97 93.3072 141.489C93.5484 141 93.5887 140.457 93.4281 139.859C93.2588 139.229 92.9486 138.784 92.4975 138.523C92.0442 138.255 91.5346 138.196 90.9688 138.347C90.5162 138.468 90.1564 138.677 89.8896 138.973C89.6286 139.26 89.4434 139.586 89.3341 139.953L88.3642 140.212L87.8317 135.328L92.3661 134.116L92.6168 135.049L88.8826 136.047L89.1112 138.688L89.1718 138.672C89.3034 138.42 89.5062 138.175 89.7802 137.937C90.0623 137.697 90.4135 137.521 90.8338 137.409C91.3915 137.26 91.909 137.251 92.3863 137.384C92.8696 137.506 93.2881 137.757 93.6418 138.139C93.9934 138.513 94.2485 138.995 94.4069 139.585C94.5545 140.134 94.5729 140.67 94.4622 141.194C94.3575 141.706 94.1197 142.16 93.7489 142.553C93.3863 142.945 92.8937 143.224 92.2714 143.39ZM107.814 139.079L107.287 137.116L103.225 138.202L103.014 137.414L105.342 130.647L106.554 130.323L108.058 135.923L109.27 135.599L109.518 136.52L108.305 136.844L108.833 138.807L107.814 139.079ZM104.118 136.976L107.088 136.182L105.903 131.77L104.118 136.976ZM111.301 138.147L111.086 137.347C111.773 136.419 112.361 135.578 112.851 134.823C113.35 134.066 113.704 133.37 113.914 132.733C114.125 132.097 114.154 131.496 114.002 130.93C113.865 130.421 113.612 130.06 113.243 129.847C112.88 129.624 112.456 129.577 111.971 129.707C111.599 129.806 111.306 129.971 111.09 130.202C110.875 130.433 110.739 130.699 110.681 131C110.623 131.301 110.636 131.605 110.718 131.912L109.712 132.181C109.57 131.621 109.563 131.112 109.691 130.654C109.825 130.185 110.066 129.791 110.414 129.473C110.77 129.153 111.206 128.924 111.723 128.786C112.556 128.563 113.264 128.62 113.849 128.958C114.433 129.295 114.83 129.852 115.038 130.627C115.175 131.137 115.197 131.655 115.105 132.182C115.01 132.7 114.838 133.223 114.59 133.748C114.341 134.274 114.044 134.795 113.697 135.312C113.351 135.829 112.996 136.33 112.633 136.817L116.658 135.741L116.903 136.65L111.301 138.147ZM121.35 135.617C120.712 135.788 120.098 135.761 119.51 135.538C118.929 135.312 118.414 134.908 117.963 134.327C117.52 133.744 117.178 133 116.935 132.095C116.691 131.19 116.615 130.375 116.706 129.649C116.805 128.921 117.05 128.314 117.439 127.829C117.837 127.342 118.355 127.013 118.993 126.842C119.64 126.67 120.253 126.696 120.834 126.922C121.414 127.148 121.926 127.552 122.368 128.136C122.819 128.717 123.166 129.46 123.409 130.365C123.652 131.27 123.724 132.086 123.625 132.814C123.534 133.54 123.294 134.145 122.904 134.63C122.515 135.115 121.997 135.444 121.35 135.617ZM117.977 131.816C118.125 132.366 118.315 132.848 118.547 133.262C118.786 133.666 119.05 133.989 119.341 134.232L120.127 127.773C119.839 127.703 119.546 127.708 119.247 127.788C118.819 127.902 118.477 128.145 118.221 128.517C117.964 128.88 117.811 129.345 117.764 129.912C117.715 130.47 117.786 131.105 117.977 131.816ZM121.099 134.684C121.528 134.57 121.871 134.331 122.128 133.967C122.384 133.596 122.535 133.127 122.582 132.56C122.629 131.993 122.557 131.354 122.366 130.643C122.219 130.094 122.025 129.617 121.787 129.213C121.555 128.799 121.293 128.471 121.003 128.228L120.208 134.702C120.503 134.77 120.8 134.764 121.099 134.684ZM128.62 133.674C127.981 133.845 127.368 133.818 126.779 133.595C126.199 133.369 125.683 132.965 125.233 132.384C124.79 131.801 124.447 131.057 124.204 130.152C123.961 129.247 123.885 128.432 123.976 127.706C124.075 126.978 124.319 126.371 124.709 125.886C125.106 125.399 125.624 125.07 126.263 124.899C126.909 124.726 127.523 124.753 128.103 124.979C128.684 125.205 129.195 125.609 129.638 126.192C130.089 126.773 130.435 127.516 130.678 128.421C130.922 129.326 130.994 130.143 130.895 130.871C130.804 131.597 130.563 132.202 130.174 132.687C129.784 133.172 129.266 133.501 128.62 133.674ZM125.247 129.873C125.394 130.423 125.585 130.904 125.817 131.319C126.055 131.723 126.32 132.046 126.61 132.289L127.397 125.83C127.109 125.76 126.816 125.765 126.517 125.845C126.088 125.959 125.746 126.202 125.491 126.573C125.233 126.937 125.081 127.402 125.034 127.969C124.985 128.527 125.056 129.162 125.247 129.873ZM128.369 132.741C128.798 132.626 129.141 132.387 129.398 132.024C129.654 131.653 129.805 131.184 129.852 130.617C129.899 130.05 129.827 129.411 129.636 128.7C129.488 128.151 129.295 127.674 129.057 127.27C128.824 126.856 128.563 126.527 128.272 126.285L127.477 132.758C127.773 132.827 128.07 132.821 128.369 132.741ZM140.38 130.375L140.165 129.575C140.852 128.647 141.44 127.805 141.93 127.051C142.429 126.294 142.783 125.597 142.993 124.961C143.203 124.324 143.233 123.723 143.081 123.158C142.944 122.649 142.691 122.288 142.322 122.075C141.959 121.851 141.535 121.804 141.05 121.934C140.678 122.033 140.384 122.198 140.169 122.429C139.954 122.66 139.817 122.926 139.76 123.227C139.702 123.528 139.714 123.832 139.797 124.14L138.791 124.408C138.649 123.849 138.642 123.34 138.77 122.881C138.904 122.412 139.145 122.019 139.493 121.701C139.848 121.38 140.285 121.151 140.802 121.013C141.635 120.79 142.343 120.848 142.928 121.185C143.512 121.523 143.908 122.079 144.117 122.855C144.254 123.364 144.276 123.882 144.183 124.409C144.089 124.928 143.917 125.45 143.669 125.975C143.42 126.501 143.122 127.022 142.776 127.539C142.43 128.056 142.075 128.558 141.712 129.045L145.737 127.969L145.981 128.878L140.38 130.375ZM151.432 127.421L150.905 125.457L146.844 126.543L146.632 125.755L148.96 118.988L150.172 118.664L151.676 124.264L152.889 123.94L153.136 124.861L151.924 125.185L152.451 127.148L151.432 127.421ZM147.736 125.317L150.706 124.523L149.521 120.111L147.736 125.317ZM157.808 125.872C157.25 126.021 156.722 126.054 156.223 125.971C155.73 125.878 155.297 125.669 154.924 125.344C154.551 125.02 154.275 124.574 154.097 124.006L155.14 123.728C155.286 124.208 155.574 124.573 156.005 124.821C156.433 125.062 156.951 125.101 157.557 124.939C158.147 124.781 158.564 124.51 158.807 124.124C159.047 123.731 159.097 123.272 158.956 122.746C158.859 122.383 158.685 122.109 158.436 121.924C158.185 121.731 157.887 121.621 157.542 121.592C157.202 121.553 156.842 121.584 156.462 121.685L155.723 121.883L155.475 120.962L156.118 120.79C156.667 120.643 157.072 120.41 157.333 120.089C157.601 119.766 157.675 119.378 157.553 118.926C157.451 118.546 157.234 118.27 156.902 118.099C156.579 117.926 156.174 117.904 155.689 118.034C155.22 118.159 154.876 118.394 154.657 118.739C154.436 119.075 154.361 119.459 154.433 119.889L153.415 120.162C153.307 119.697 153.32 119.26 153.453 118.852C153.584 118.436 153.816 118.076 154.15 117.77C154.492 117.462 154.921 117.239 155.439 117.101C155.996 116.952 156.487 116.924 156.911 117.019C157.343 117.111 157.7 117.297 157.983 117.577C158.264 117.848 158.458 118.182 158.564 118.578C158.677 118.998 158.647 119.404 158.476 119.796C158.302 120.181 158.054 120.485 157.733 120.709L157.753 120.782C158.269 120.8 158.731 120.94 159.14 121.204C159.548 121.467 159.831 121.889 159.987 122.471C160.119 122.964 160.121 123.44 159.993 123.898C159.873 124.355 159.627 124.758 159.253 125.109C158.888 125.458 158.406 125.713 157.808 125.872ZM162.189 124.545L161.974 123.745C162.661 122.817 163.249 121.976 163.739 121.221C164.238 120.464 164.592 119.768 164.802 119.131C165.012 118.495 165.042 117.894 164.89 117.328C164.753 116.819 164.5 116.458 164.131 116.245C163.768 116.022 163.344 115.975 162.859 116.105C162.487 116.204 162.193 116.369 161.978 116.6C161.763 116.83 161.626 117.096 161.569 117.398C161.511 117.699 161.523 118.003 161.606 118.31L160.6 118.579C160.458 118.019 160.451 117.51 160.579 117.052C160.713 116.583 160.954 116.189 161.302 115.871C161.657 115.551 162.094 115.322 162.611 115.183C163.444 114.961 164.152 115.018 164.737 115.356C165.321 115.693 165.717 116.25 165.926 117.025C166.063 117.534 166.085 118.053 165.992 118.579C165.898 119.098 165.726 119.621 165.478 120.146C165.229 120.671 164.931 121.193 164.585 121.71C164.239 122.226 163.884 122.728 163.521 123.215L167.546 122.139L167.79 123.048L162.189 124.545ZM176.729 120.659L176.514 119.859C177.2 118.931 177.788 118.09 178.279 117.335C178.777 116.578 179.131 115.882 179.342 115.245C179.552 114.609 179.581 114.008 179.429 113.442C179.292 112.933 179.039 112.572 178.67 112.359C178.307 112.136 177.883 112.089 177.398 112.218C177.026 112.318 176.733 112.483 176.518 112.713C176.302 112.944 176.166 113.21 176.108 113.511C176.05 113.813 176.063 114.117 176.145 114.424L175.139 114.693C174.997 114.133 174.99 113.624 175.119 113.165C175.252 112.697 175.493 112.303 175.841 111.985C176.197 111.665 176.633 111.435 177.151 111.297C177.983 111.075 178.692 111.132 179.276 111.469C179.86 111.807 180.257 112.363 180.465 113.139C180.602 113.648 180.624 114.166 180.532 114.693C180.437 115.212 180.266 115.734 180.017 116.26C179.768 116.785 179.471 117.306 179.125 117.823C178.778 118.34 178.424 118.842 178.061 119.329L182.086 118.253L182.33 119.162L176.729 120.659ZM183.998 118.716L183.783 117.916C184.47 116.988 185.058 116.146 185.548 115.392C186.047 114.635 186.401 113.938 186.611 113.302C186.822 112.666 186.851 112.065 186.699 111.499C186.562 110.99 186.309 110.629 185.94 110.416C185.577 110.192 185.153 110.146 184.668 110.275C184.296 110.375 184.002 110.54 183.787 110.77C183.572 111.001 183.435 111.267 183.378 111.568C183.32 111.869 183.332 112.174 183.415 112.481L182.409 112.75C182.267 112.19 182.26 111.681 182.388 111.222C182.522 110.753 182.763 110.36 183.111 110.042C183.467 109.722 183.903 109.492 184.42 109.354C185.253 109.131 185.961 109.189 186.546 109.526C187.13 109.864 187.527 110.42 187.735 111.196C187.872 111.705 187.894 112.223 187.801 112.75C187.707 113.269 187.535 113.791 187.287 114.317C187.038 114.842 186.74 115.363 186.394 115.88C186.048 116.397 185.693 116.899 185.33 117.386L189.355 116.31L189.6 117.219L183.998 118.716ZM191.268 116.773L191.053 115.973C191.739 115.045 192.328 114.203 192.818 113.449C193.316 112.692 193.671 111.995 193.881 111.359C194.091 110.722 194.12 110.121 193.968 109.556C193.832 109.047 193.579 108.686 193.21 108.473C192.846 108.249 192.422 108.202 191.937 108.332C191.566 108.431 191.272 108.596 191.057 108.827C190.842 109.058 190.705 109.324 190.647 109.625C190.59 109.926 190.602 110.23 190.685 110.537L189.678 110.806C189.537 110.247 189.53 109.738 189.658 109.279C189.792 108.81 190.033 108.417 190.38 108.099C190.736 107.778 191.173 107.549 191.69 107.411C192.523 107.188 193.231 107.246 193.815 107.583C194.4 107.921 194.796 108.477 195.005 109.253C195.141 109.762 195.164 110.28 195.071 110.807C194.977 111.326 194.805 111.848 194.556 112.373C194.308 112.899 194.01 113.42 193.664 113.937C193.318 114.454 192.963 114.956 192.6 115.442L196.625 114.367L196.869 115.276L191.268 116.773Z" fill="black"/>
<path d="M72.3952 164.62L71.3979 160.907L71.8141 161.157L70.6429 161.47L70.4756 160.848L72.064 160.423L73.1379 164.421L72.3952 164.62ZM73.8799 164.223L73.7464 163.726L74.9297 161.794C75.0293 161.632 75.0987 161.496 75.1378 161.383C75.177 161.271 75.1954 161.172 75.193 161.087C75.1933 160.997 75.1838 160.916 75.1643 160.843C75.1152 160.661 75.0146 160.537 74.8623 160.471C74.709 160.402 74.5104 160.4 74.2666 160.465C74.0724 160.517 73.9045 160.599 73.7629 160.71C73.6251 160.82 73.518 160.961 73.4416 161.132L72.8143 160.872C72.9142 160.62 73.0802 160.403 73.3124 160.218C73.5473 160.029 73.8285 159.89 74.1561 159.803C74.4456 159.725 74.7098 159.706 74.9487 159.744C75.1903 159.777 75.3913 159.864 75.5516 160.005C75.7157 160.145 75.8295 160.333 75.8929 160.569C75.9276 160.699 75.9453 160.833 75.9458 160.971C75.9452 161.106 75.9163 161.257 75.8589 161.423C75.8015 161.589 75.7049 161.784 75.5692 162.009L74.5519 163.67L74.3224 163.431L76.6593 162.807L76.828 163.435L73.8799 164.223ZM77.0431 163.99L77.4834 158.105L78.1233 157.934L77.683 163.819L77.0431 163.99ZM79.3813 162.753L79.2479 162.256L80.4312 160.323C80.5308 160.162 80.6001 160.025 80.6393 159.913C80.6785 159.8 80.6969 159.701 80.6944 159.616C80.6948 159.526 80.6852 159.445 80.6658 159.373C80.6167 159.19 80.516 159.066 80.3637 159.001C80.2104 158.931 80.0119 158.929 79.7681 158.995C79.5739 159.046 79.4059 159.128 79.2644 159.239C79.1266 159.35 79.0195 159.491 78.9431 159.662L78.3158 159.401C78.4157 159.15 78.5817 158.932 78.8139 158.748C79.0488 158.558 79.33 158.42 79.6576 158.332C79.9471 158.255 80.2113 158.235 80.4501 158.274C80.6918 158.307 80.8928 158.394 81.0531 158.535C81.2172 158.675 81.3309 158.862 81.3943 159.099C81.4291 159.228 81.4467 159.362 81.4472 159.501C81.4467 159.636 81.4178 159.786 81.3604 159.952C81.303 160.119 81.2064 160.314 81.0706 160.538L80.0534 162.2L79.8239 161.961L82.1607 161.336L82.3295 161.965L79.3813 162.753ZM82.3734 160.979L82.2354 160.465L83.5146 157.363L84.3088 157.15L83.0581 160.246L82.656 160.231L85.827 159.383L85.9958 160.011L82.3734 160.979ZM84.8113 161.301L84.5674 160.393L84.4215 159.759L84.2052 158.953L84.9022 158.767L85.5312 161.109L84.8113 161.301Z" fill="black"/>
<rect width="211.921" height="26.2937" transform="matrix(0.966084 -0.258229 0.25941 0.965767 30.4131 90.5909)" fill="#E9FF6B"/>
</g>
</g>
<defs>
<filter id="filter0_d_106_259" x="41.3091" y="127.731" width="291.604" height="291.174" filterUnits="userSpaceOnUse" color-interpolation-filters="sRGB">
<feFlood flood-opacity="0" result="BackgroundImageFix"/>
<feColorMatrix in="SourceAlpha" type="matrix" values="0 0 0 0 0 0 0 0 0 0 0 0 0 0 0 0 0 0 127 0" result="hardAlpha"/>
<feOffset dy="11.9566"/>
<feGaussianBlur stdDeviation="11.9566"/>
<feComposite in2="hardAlpha" operator="out"/>
<feColorMatrix type="matrix" values="0 0 0 0 0 0 0 0 0 0 0 0 0 0 0 0 0 0 0.25 0"/>
<feBlend mode="normal" in2="BackgroundImageFix" result="effect1_dropShadow_106_259"/>
<feBlend mode="normal" in="SourceGraphic" in2="effect1_dropShadow_106_259" result="shape"/>
</filter>
<filter id="filter1_b_106_259" x="172.954" y="306.025" width="67.661" height="67.6287" filterUnits="userSpaceOnUse" color-interpolation-filters="sRGB">
<feFlood flood-opacity="0" result="BackgroundImageFix"/>
<feGaussianBlur in="BackgroundImage" stdDeviation="12.321"/>
<feComposite in2="SourceAlpha" operator="in" result="effect1_backgroundBlur_106_259"/>
<feBlend mode="normal" in="SourceGraphic" in2="effect1_backgroundBlur_106_259" result="shape"/>
</filter>
<filter id="filter2_b_106_259" x="181.011" y="314.067" width="67.661" height="67.6287" filterUnits="userSpaceOnUse" color-interpolation-filters="sRGB">
<feFlood flood-opacity="0" result="BackgroundImageFix"/>
<feGaussianBlur in="BackgroundImage" stdDeviation="12.321"/>
<feComposite in2="SourceAlpha" operator="in" result="effect1_backgroundBlur_106_259"/>
<feBlend mode="normal" in="SourceGraphic" in2="effect1_backgroundBlur_106_259" result="shape"/>
</filter>
<filter id="filter3_b_106_259" x="181.011" y="314.067" width="59.6044" height="59.5863" filterUnits="userSpaceOnUse" color-interpolation-filters="sRGB">
<feFlood flood-opacity="0" result="BackgroundImageFix"/>
<feGaussianBlur in="BackgroundImage" stdDeviation="12.321"/>
<feComposite in2="SourceAlpha" operator="in" result="effect1_backgroundBlur_106_259"/>
<feBlend mode="normal" in="SourceGraphic" in2="effect1_backgroundBlur_106_259" result="shape"/>
</filter>
<filter id="filter4_d_106_259" x="0.0867691" y="0.0782967" width="286.836" height="230.72" filterUnits="userSpaceOnUse" color-interpolation-filters="sRGB">
<feFlood flood-opacity="0" result="BackgroundImageFix"/>
<feColorMatrix in="SourceAlpha" type="matrix" values="0 0 0 0 0 0 0 0 0 0 0 0 0 0 0 0 0 0 127 0" result="hardAlpha"/>
<feOffset dy="11.9566"/>
<feGaussianBlur stdDeviation="11.9566"/>
<feComposite in2="hardAlpha" operator="out"/>
<feColorMatrix type="matrix" values="0 0 0 0 0 0 0 0 0 0 0 0 0 0 0 0 0 0 0.25 0"/>
<feBlend mode="normal" in2="BackgroundImageFix" result="effect1_dropShadow_106_259"/>
<feBlend mode="normal" in="SourceGraphic" in2="effect1_dropShadow_106_259" result="shape"/>
</filter>
<filter id="filter5_b_106_259" x="187.602" y="91.9066" width="67.6672" height="67.6317" filterUnits="userSpaceOnUse" color-interpolation-filters="sRGB">
<feFlood flood-opacity="0" result="BackgroundImageFix"/>
<feGaussianBlur in="BackgroundImage" stdDeviation="12.321"/>
<feComposite in2="SourceAlpha" operator="in" result="effect1_backgroundBlur_106_259"/>
<feBlend mode="normal" in="SourceGraphic" in2="effect1_backgroundBlur_106_259" result="shape"/>
</filter>
<filter id="filter6_b_106_259" x="198.608" y="88.9648" width="67.6672" height="67.6317" filterUnits="userSpaceOnUse" color-interpolation-filters="sRGB">
<feFlood flood-opacity="0" result="BackgroundImageFix"/>
<feGaussianBlur in="BackgroundImage" stdDeviation="12.321"/>
<feComposite in2="SourceAlpha" operator="in" result="effect1_backgroundBlur_106_259"/>
<feBlend mode="normal" in="SourceGraphic" in2="effect1_backgroundBlur_106_259" result="shape"/>
</filter>
<filter id="filter7_b_106_259" x="198.608" y="92.658" width="56.6611" height="63.1871" filterUnits="userSpaceOnUse" color-interpolation-filters="sRGB">
<feFlood flood-opacity="0" result="BackgroundImageFix"/>
<feGaussianBlur in="BackgroundImage" stdDeviation="12.321"/>
<feComposite in2="SourceAlpha" operator="in" result="effect1_backgroundBlur_106_259"/>
<feBlend mode="normal" in="SourceGraphic" in2="effect1_backgroundBlur_106_259" result="shape"/>
</filter>
<clipPath id="clip0_106_259">
<rect width="211.591" height="132.859" rx="8.96746" transform="matrix(0.707731 0.706482 -0.707731 0.706482 159.251 139.687)" fill="white"/>
</clipPath>
<clipPath id="clip1_106_259">
<rect width="15.7463" height="15.7463" fill="white" transform="matrix(0.707731 0.706482 -0.707731 0.706482 269.995 278.048)"/>
</clipPath>
<clipPath id="clip2_106_259">
<rect width="36.7217" height="24.6036" rx="3.94272" transform="matrix(0.707731 0.706482 -0.707731 0.706482 206.265 322.198)" fill="white"/>
</clipPath>
<clipPath id="clip3_106_259">
<rect width="211.752" height="132.758" rx="8.96746" transform="matrix(0.966084 -0.258229 0.25941 0.965767 24 66.7156)" fill="white"/>
</clipPath>
<clipPath id="clip4_106_259">
<rect width="36.7498" height="24.5847" rx="3.94272" transform="matrix(0.966084 -0.258229 0.25941 0.965767 205.868 117.349)" fill="white"/>
</clipPath>
</defs>
</svg>
