<svg width="242" height="385" viewBox="0 0 242 385" fill="none" xmlns="http://www.w3.org/2000/svg">
<rect x="241.288" y="0.971924" width="383.21" height="240.62" transform="rotate(90 241.288 0.971924)" fill="black"/>
<mask id="mask0_108_262" style="mask-type:alpha" maskUnits="userSpaceOnUse" x="0" y="0" width="242" height="385">
<rect x="241.288" y="0.971436" width="383.21" height="240.62" transform="rotate(90 241.288 0.971436)" fill="black"/>
</mask>
<g mask="url(#mask0_108_262)">
<path d="M323.278 404.077L235.498 328.317L191.608 328.317L126.687 404.077L68.1666 368.479L-19.6137 392.211L-10.4699 260.772L-68.9902 260.772L-86.3633 175.884L-46.1306 81.8678L-127.51 47.1824L-159.513 -192.877L13.3039 -192.877L36.1634 -251.295L162.348 -251.295L220.868 -210.22L355.281 -271.376L399.171 -227.563L399.171 -113.466L443.062 -52.31L399.171 47.1824L399.171 146.675L472.322 175.884L472.322 328.317L323.278 404.077Z" stroke="#373737" stroke-width="0.775205"/>
<path d="M189.429 94.3838L173.555 102.491L152.616 102.491L138.008 87.1557L134.209 68.011L125.542 64.2993L122.133 38.6102L140.54 38.6102L162.647 36.7544L176.963 30.21L181.638 34.8985L181.638 47.1081L181.638 74.9461L189.429 78.0717L189.429 94.3838Z" stroke="#373737" stroke-width="0.775205"/>
<path d="M312.371 380.878L230.733 311.258L188.608 311.258L128.119 380.6L73.539 347.151L-7.63507 368.321L0.659289 246.256L-54.0261 245.97L-70.1939 166.624L-33.1872 78.8523L-107.599 46.835L-136.432 -174.759L23.9416 -174.83L45.8929 -228.825L163.472 -229.329L217.67 -191.233L341.924 -247.504L382.438 -206.592L382.438 -100.802L422.952 -42.209L382.738 49.7503L383.037 141.71L450.561 169.299L450.561 310.634L312.371 380.878Z" stroke="#373737" stroke-width="0.775205"/>
<path d="M301.465 357.679L225.968 294.198L185.609 294.198L129.552 357.123L78.9113 325.822L4.34354 344.43L11.7884 231.739L-39.0621 231.168L-54.0247 157.364L-20.2439 75.8361L-87.6877 46.4868L-113.351 -156.641L34.5793 -156.783L55.6224 -206.356L164.596 -207.363L214.473 -172.247L328.567 -223.633L365.705 -185.622L365.705 -88.1389L402.842 -32.1089L366.304 52.3175L366.903 136.744L428.8 162.714L428.8 292.95L301.465 357.679Z" stroke="#373737" stroke-width="0.775205"/>
<path d="M290.558 334.48L221.203 277.139L182.609 277.139L130.984 333.646L84.2834 304.494L16.3218 320.54L22.9173 217.224L-24.0985 216.367L-37.8558 148.105L-7.3009 72.8209L-67.7768 46.1398L-90.2708 -138.521L45.2166 -138.736L65.3516 -183.886L165.72 -185.397L211.275 -153.26L315.209 -199.761L348.971 -164.65L348.971 -75.4747L382.733 -22.0076L349.87 54.8857L350.769 131.779L407.038 156.129L407.038 275.268L290.558 334.48Z" stroke="#373737" stroke-width="0.775205"/>
<path d="M279.651 311.282L216.438 260.08L179.61 260.08L132.417 310.17L89.6558 283.166L28.3005 296.65L34.0465 202.708L-9.13445 201.566L-21.6864 138.845L5.64252 69.8053L-47.8654 45.7923L-67.1897 -120.403L55.8543 -120.688L75.0812 -161.417L166.844 -163.43L208.078 -134.273L301.852 -175.89L332.238 -143.679L332.238 -62.8109L362.623 -11.9067L333.436 57.4535L334.635 126.814L385.277 149.545L385.277 257.585L279.651 311.282Z" stroke="#373737" stroke-width="0.775205"/>
<path d="M268.745 288.082L211.673 243.02L176.611 243.02L133.85 286.692L95.0283 261.837L40.2793 272.759L45.1758 188.192L5.82966 186.764L-5.51701 129.585L18.586 66.7892L-27.954 45.4443L-44.1086 -102.285L66.4921 -102.642L84.8108 -138.948L167.969 -141.465L204.88 -115.286L288.495 -152.019L315.505 -122.709L315.505 -50.1477L342.514 -1.80643L317.003 60.0207L318.501 121.848L363.517 142.959L363.517 239.902L268.745 288.082Z" stroke="#373737" stroke-width="0.775205"/>
<path d="M257.838 264.884L206.908 225.96L173.611 225.96L135.283 263.215L100.401 240.508L52.2578 248.869L56.3049 173.676L20.7936 171.963L10.6522 120.326L31.5293 63.7737L-8.04285 45.0969L-21.0276 -84.166L77.1296 -84.5942L94.5402 -116.478L169.093 -119.499L201.683 -96.2994L275.138 -128.148L298.771 -101.738L298.771 -37.4839L322.404 8.29449L300.569 62.5886L302.367 116.883L341.756 136.375L341.756 222.219L257.838 264.884Z" stroke="#373737" stroke-width="0.775205"/>
<path d="M246.932 241.685L202.144 208.901L170.612 208.901L136.715 239.739L105.773 219.18L64.2366 224.979L67.4342 159.16L35.7577 157.162L26.8216 111.066L44.4728 60.7582L11.8686 44.7495L2.05351 -66.0472L87.7674 -66.5469L104.27 -94.0085L170.217 -97.5324L198.485 -77.3124L261.781 -104.276L282.038 -80.7672L282.038 -24.82L302.295 18.3954L284.136 65.1565L286.233 111.918L319.995 129.79L319.995 204.536L246.932 241.685Z" stroke="#373737" stroke-width="0.775205"/>
<path d="M236.025 218.486L197.379 191.842L167.613 191.842L138.148 216.262L111.146 197.852L76.2152 201.089L78.5634 144.645L50.7217 142.36L42.9909 101.807L57.4162 57.7427L31.7799 44.4022L25.1346 -47.9284L98.4051 -48.4995L113.999 -71.5388L171.342 -75.5661L195.288 -58.3255L248.424 -80.4043L265.305 -59.7963L265.305 -12.1561L282.185 28.4964L267.702 67.7245L270.099 106.952L298.234 123.206L298.234 186.853L236.025 218.486Z" stroke="#373737" stroke-width="0.775205"/>
<path d="M225.118 195.287L192.614 174.782L164.613 174.782L139.581 192.785L116.518 176.523L88.1938 177.198L89.6925 130.128L65.6856 127.559L59.1601 92.5468L70.3595 54.7265L51.6911 44.054L48.2155 -29.8105L109.043 -30.4529L123.729 -49.0699L172.466 -53.6006L192.09 -39.3393L235.067 -56.5335L248.571 -38.8261L248.571 0.506985L262.076 38.5966L251.268 70.2916L253.965 101.987L276.473 116.62L276.473 169.169L225.118 195.287Z" stroke="#373737" stroke-width="0.775205"/>
<path d="M214.212 172.088L187.849 157.723L161.614 157.723L141.013 169.308L121.89 155.194L100.172 153.308L100.822 115.612L80.6495 112.757L75.3293 83.2871L83.3028 51.7108L71.6023 43.7064L71.2964 -11.6919L119.68 -12.4057L133.458 -26.6005L173.59 -31.6346L188.893 -20.3525L221.709 -32.6622L231.838 -17.8554L231.838 13.1706L241.966 48.6973L234.834 72.8593L237.831 97.0212L254.712 110.036L254.712 151.486L214.212 172.088Z" stroke="#373737" stroke-width="0.775205"/>
<path d="M203.305 148.889L183.084 140.664L158.615 140.664L142.446 145.831L127.263 133.866L112.151 129.418L111.951 101.097L95.6137 97.9561L91.4989 74.0279L96.2464 48.6955L91.5138 43.3593L94.3777 6.42706L130.318 5.64189L143.188 -4.1306L174.715 -9.66811L185.696 -1.36532L208.352 -8.79033L215.105 3.11578L215.105 25.8347L221.857 58.7985L218.401 75.4274L221.697 92.0563L232.951 103.451L232.951 133.804L203.305 148.889Z" stroke="#373737" stroke-width="0.775205"/>
<path d="M192.398 125.69L178.319 123.604L155.615 123.604L143.879 122.354L132.635 112.538L124.13 105.527L123.08 86.5805L110.577 83.1543L107.668 64.768L109.189 45.6796L111.425 43.0114L117.458 24.5453L140.955 23.6888L152.917 18.3386L175.839 12.2976L182.498 17.6212L194.995 15.0808L198.371 24.0862L198.371 38.4981L201.747 68.899L201.967 77.9948L205.563 87.0907L211.19 96.8662L211.19 116.12L192.398 125.69Z" stroke="#373737" stroke-width="0.775205"/>
</g>
<path d="M78.2457 44.6735L75.0393 44.6735L75.0393 48.4508L78.1856 48.4508C78.3276 49.6526 78.6263 50.7431 79.082 51.7221C79.7558 53.1438 80.6823 54.2463 81.8614 55.0295C83.0526 55.8247 84.4422 56.2223 86.0305 56.2223C87.8473 56.2223 89.3031 55.7343 90.398 54.7584C91.493 53.7824 92.3653 52.198 93.015 50.0051L94.4047 45.2157C94.8017 43.8903 95.277 42.9204 95.8305 42.3059C96.3839 41.6914 97.0577 41.3841 97.8518 41.3841C98.5737 41.3841 99.2174 41.601 99.7829 42.0348C100.36 42.4806 100.806 43.077 101.118 43.824C101.443 44.5831 101.594 45.4386 101.57 46.3904C101.558 47.4026 101.353 48.3122 100.956 49.1195C100.559 49.9388 100.006 50.6136 99.2957 51.1437C98.5858 51.6859 97.7676 52.0414 96.8411 52.2101L97.527 56.0597C99.1152 55.7223 100.475 55.1138 101.606 54.2343C102.737 53.3667 103.603 52.2703 104.205 50.9449C104.555 50.1791 104.808 49.3477 104.963 48.4508L108.211 48.4508L108.211 44.6735L105.034 44.6735C104.895 43.6139 104.625 42.65 104.223 41.7817C103.609 40.4564 102.743 39.4262 101.624 38.6912C100.505 37.9683 99.1874 37.6068 97.6713 37.6068C94.4588 37.6068 92.2931 39.4142 91.1741 43.0288L89.2971 49.1376C88.9241 50.3184 88.4669 51.1678 87.9255 51.6859C87.3841 52.2161 86.6802 52.4812 85.8139 52.4812C84.5987 52.4812 83.6 51.9631 82.8179 50.9268C82.0359 49.9027 81.6448 48.5713 81.6448 46.9326C81.6448 45.2819 82.096 43.8662 82.9984 42.6854C83.9128 41.5046 85.1401 40.7335 86.6802 40.372L86.0846 36.6309C84.4483 36.908 83.0285 37.4984 81.8253 38.402C80.6342 39.3178 79.7137 40.4865 79.064 41.9083C78.6744 42.7607 78.4017 43.6824 78.2457 44.6735Z" fill="#E9FF6B"/>
<path fill-rule="evenodd" clip-rule="evenodd" d="M78.8835 79.2568C78.3541 80.2328 78.0894 81.4437 78.0894 82.8896C78.0894 84.709 78.4504 86.2392 79.1723 87.4802C79.7218 88.4185 80.4839 89.2318 81.4584 89.9201L78.6308 89.9201L78.6308 93.2637L90.6327 93.2637C91.4508 93.2637 92.2149 93.2275 92.9248 93.1552C93.6346 93.0829 94.3084 92.8901 94.9461 92.5769C96.2335 91.9744 97.172 91.0226 97.7616 89.7213C98.3632 88.4321 98.664 86.9139 98.664 85.1668C98.664 82.9137 98.1707 81.1064 97.184 79.7448C96.1974 78.3954 94.8679 77.4796 93.1955 76.9977L92.1126 80.522C93.2075 80.8594 93.9896 81.4558 94.4588 82.3112C94.9401 83.1667 95.1807 84.1065 95.1807 85.1307C95.1807 86.7573 94.8077 87.9019 94.0618 88.5646C93.4212 89.1535 92.4781 89.4763 91.2325 89.5328C91.1288 88.7929 91.0251 88.0485 90.9214 87.2995C90.753 86.0946 90.5725 84.9439 90.38 83.8475C90.1875 82.751 89.9649 81.769 89.7122 80.9015C89.3874 79.9015 88.9602 79.058 88.4308 78.3713C87.9135 77.6845 87.2818 77.1664 86.5358 76.817C85.7898 76.4675 84.9235 76.2928 83.9369 76.2928C82.8781 76.2928 81.9035 76.5398 81.0132 77.0338C80.1348 77.5399 79.4249 78.2809 78.8835 79.2568ZM81.7351 86.3235C81.3621 85.5524 81.1756 84.6307 81.1756 83.5583C81.1756 82.751 81.3019 82.0883 81.5546 81.5702C81.8073 81.0521 82.1442 80.6666 82.5653 80.4136C82.9984 80.1605 83.4677 80.034 83.973 80.034C84.4904 80.034 84.9295 80.1485 85.2905 80.3774C85.6515 80.6184 85.9583 80.9377 86.2109 81.3353C86.4636 81.745 86.6802 82.2088 86.8607 82.7269C87.0532 83.3414 87.2156 84.0403 87.348 84.8234C87.4923 85.6187 87.6367 86.5043 87.7811 87.4802C87.8738 88.1069 87.974 88.7783 88.0816 89.4944C87.7637 89.4856 87.3988 89.4708 86.987 89.4502C86.2651 89.4261 85.6154 89.3116 85.0378 89.1068C84.4001 88.9622 83.7865 88.655 83.1969 88.1851C82.6074 87.7152 82.1201 87.0946 81.7351 86.3235Z" fill="#E9FF6B"/>
<path d="M78.6308 102.528L98.1225 95.4435L98.1225 99.2569L83.3594 104.444L98.1225 109.631L98.1225 113.444L78.6308 106.36L78.6308 102.528Z" fill="#E9FF6B"/>
<path d="M98.1225 114.893L78.6308 121.978L78.6308 125.81L98.1225 132.894L98.1225 129.081L83.3594 123.894L98.1225 118.707L98.1225 114.893Z" fill="#E9FF6B"/>
<path d="M69.9678 138.613L78.7145 141.83L98.1225 133.932L98.1225 137.872L83.4723 143.642L98.1225 149.15L98.1225 152.981L69.9678 142.21L69.9678 138.613Z" fill="#E9FF6B"/>
<path d="M82.6194 153.569L78.6308 153.569L78.6308 157.563L82.6194 157.563L82.6194 153.569Z" fill="#E9FF6B"/>
<path d="M81.6226 59.8298C82.575 59.1135 83.6934 58.6504 84.968 58.4343L85.3821 58.364L85.9516 61.9458L85.575 62.0343C84.518 62.2827 83.6912 62.8063 83.0738 63.6041C82.4653 64.4018 82.1542 65.3635 82.1542 66.5105C82.1542 67.6636 82.4283 68.558 82.9406 69.2298L82.942 69.2317C83.4508 69.9067 84.0737 70.2226 84.8362 70.2226C85.3881 70.2226 85.8011 70.057 86.1144 69.7498L86.1178 69.7465C86.4466 69.4314 86.7593 68.8769 87.0275 68.0274L87.028 68.0257L88.422 63.4825C88.8536 62.0864 89.4994 60.9987 90.3835 60.26C91.2732 59.5165 92.3707 59.1546 93.6473 59.1546C94.8426 59.1546 95.9024 59.441 96.8101 60.0282L96.8127 60.0299C97.7149 60.6233 98.4075 61.4527 98.893 62.5027C99.3791 63.5542 99.6154 64.7682 99.6154 66.134L99.6154 66.1369L99.6154 66.1399C99.5969 67.4515 99.3554 68.6307 98.8806 69.6689C98.4061 70.7153 97.7203 71.5855 96.8252 72.2733C95.9291 72.9708 94.8594 73.4471 93.6264 73.7093L93.206 73.7988L92.5482 70.102L92.9559 70.0277C93.5832 69.9133 94.1295 69.6743 94.6019 69.3129L94.6054 69.3102C95.0781 68.9568 95.447 68.5075 95.7139 67.9561L95.7149 67.9539C95.9794 67.4155 96.1199 66.801 96.1282 66.1021L96.1283 66.0993L96.1283 66.0965C96.1449 65.439 96.041 64.8632 95.8265 64.3613L95.8252 64.3583C95.6175 63.8617 95.3285 63.479 94.9628 63.1961C94.6163 62.9302 94.2274 62.7984 93.7814 62.7984C93.3146 62.7984 92.9246 62.9728 92.5884 63.3465C92.2374 63.7368 91.9065 64.3898 91.6189 65.3508L90.5861 68.9151C90.0926 70.583 89.4146 71.8455 88.5194 72.6446C87.6126 73.454 86.4239 73.8395 84.9972 73.8395C83.7443 73.8395 82.6295 73.5242 81.6688 72.8821C80.7229 72.2529 79.9874 71.3711 79.4581 70.2527L79.4568 70.2501C78.9348 69.1269 78.6804 67.832 78.6804 66.376C78.6804 64.9807 78.931 63.7189 79.4422 62.5987C79.952 61.4816 80.6778 60.5571 81.6189 59.8327L81.6226 59.8298Z" fill="#E9FF6B"/>
<path d="M194.679 323.847C194.234 324.204 193.699 324.471 193.164 324.649C192.629 324.828 192.006 324.917 191.382 324.917C190.758 324.917 190.134 324.828 189.599 324.649C189.065 324.471 188.53 324.204 188.084 323.847C187.461 323.402 186.569 323.491 186.124 324.115C185.678 324.739 185.767 325.63 186.391 326.075C187.104 326.61 187.817 326.966 188.708 327.323C189.599 327.679 190.491 327.769 191.382 327.769C192.273 327.769 193.164 327.59 194.055 327.323C194.857 327.056 195.659 326.61 196.372 326.075C196.996 325.63 197.085 324.739 196.64 324.115C196.194 323.491 195.303 323.402 194.679 323.847Z" fill="#FAFAFA"/>
<path d="M197.264 328.749C195.57 329.818 193.521 330.442 191.382 330.442C189.243 330.442 187.193 329.818 185.5 328.749C184.876 328.303 183.985 328.571 183.539 329.194C183.094 329.907 183.361 330.709 183.985 331.155C186.124 332.492 188.619 333.294 191.382 333.294C194.055 333.294 196.64 332.492 198.779 331.155C199.402 330.709 199.67 329.818 199.224 329.194C198.779 328.571 197.977 328.303 197.264 328.749Z" fill="#FAFAFA"/>
<path d="M199.937 333.918C197.442 335.433 194.501 336.235 191.382 336.235C188.263 336.235 185.322 335.344 182.826 333.918C182.113 333.561 181.311 333.739 180.866 334.452C180.509 335.165 180.688 335.967 181.4 336.413C184.341 338.195 187.728 339.176 191.382 339.176C195.036 339.176 198.422 338.195 201.363 336.413C202.076 336.057 202.254 335.165 201.898 334.452C201.452 333.739 200.65 333.561 199.937 333.918Z" fill="#FAFAFA"/>
<path d="M202.611 339.087C199.313 340.958 195.481 342.117 191.382 342.117C187.282 342.117 183.45 341.047 180.153 339.087C179.44 338.73 178.638 338.908 178.192 339.621C177.836 340.334 178.014 341.136 178.727 341.582C182.47 343.721 186.748 344.968 191.382 344.968C196.016 344.968 200.294 343.721 204.037 341.582C204.75 341.225 204.928 340.334 204.571 339.621C204.215 338.908 203.324 338.73 202.611 339.087Z" fill="#FAFAFA"/>
<g clip-path="url(#clip0_108_262)">
<g filter="url(#filter0_b_108_262)">
<ellipse cx="45.5599" cy="318.34" rx="16.6266" ry="16.6266" transform="rotate(90 45.5599 318.34)" fill="#FAFAFA" fill-opacity="0.3"/>
</g>
<g filter="url(#filter1_b_108_262)">
<path d="M45.5599 355.583C36.3773 355.583 28.9333 348.139 28.9333 338.957C28.9333 329.774 36.3773 322.33 45.5599 322.33C54.7425 322.33 62.1865 329.774 62.1865 338.957C62.1865 348.139 54.7425 355.583 45.5599 355.583Z" fill="#FAFAFA" fill-opacity="0.7"/>
</g>
<g filter="url(#filter2_b_108_262)">
<path d="M58.606 328.648C55.5607 324.8 50.8487 322.33 45.5598 322.33C40.271 322.33 35.559 324.8 32.5137 328.648C35.559 332.497 40.271 334.967 45.5598 334.967C50.8487 334.967 55.5607 332.497 58.606 328.648Z" fill="#FAFAFA" fill-opacity="0.6"/>
</g>
</g>
<path d="M48.4883 38.7898C48.4883 38.3121 48.581 37.8701 48.7663 37.4637C48.9588 37.0645 49.2262 36.7365 49.5684 36.4799L50.5202 37.2712C49.9498 37.6848 49.6646 38.1803 49.6646 38.7577C49.6646 39.5349 50.1245 39.9234 51.0442 39.9234L54.9155 39.9234L54.9155 37.2605L56.0812 37.2605L56.0812 41.3137L51.1191 41.3137C50.2421 41.3137 49.5826 41.0998 49.1406 40.672C48.7057 40.2442 48.4883 39.6168 48.4883 38.7898ZM48.5204 45.702C48.5204 45.1245 48.6451 44.604 48.8947 44.1406C49.1442 43.6772 49.49 43.3136 49.932 43.0498C50.3811 42.7931 50.8873 42.6648 51.4506 42.6648C52.0138 42.6648 52.5164 42.7931 52.9585 43.0498C53.4005 43.3136 53.7463 43.6772 53.9958 44.1406C54.2453 44.604 54.3701 45.1245 54.3701 45.702C54.3701 46.2866 54.2453 46.8106 53.9958 47.274C53.7463 47.7374 53.4005 48.0975 52.9585 48.3541C52.5164 48.6179 52.0138 48.7498 51.4506 48.7498C50.8873 48.7498 50.3811 48.6179 49.932 48.3541C49.49 48.0975 49.1442 47.7374 48.8947 47.274C48.6451 46.8106 48.5204 46.2866 48.5204 45.702ZM49.6646 45.702C49.6646 46.1939 49.8286 46.6003 50.1566 46.9211C50.4845 47.2419 50.9159 47.4024 51.4506 47.4024C51.9853 47.4024 52.4166 47.2419 52.7446 46.9211C53.0725 46.6003 53.2365 46.1939 53.2365 45.702C53.2365 45.21 53.0725 44.8037 52.7446 44.4828C52.4166 44.1691 51.9853 44.0123 51.4506 44.0123C50.9159 44.0123 50.4845 44.1691 50.1566 44.4828C49.8286 44.8037 49.6646 45.21 49.6646 45.702ZM54.3059 55.2186L48.1354 52.545C47.5151 52.2955 47.0802 51.9925 46.8307 51.636C46.574 51.2795 46.4457 50.8482 46.4457 50.342C46.4457 50.0568 46.492 49.7752 46.5847 49.4972C46.6774 49.2191 46.8057 48.991 46.9697 48.8127L47.9536 49.3474C47.8324 49.4758 47.7361 49.6255 47.6648 49.7966C47.5935 49.9748 47.5579 50.1531 47.5579 50.3313C47.5579 50.5666 47.6185 50.7591 47.7397 50.9088C47.8609 51.0656 48.0641 51.2082 48.3492 51.3366L48.5738 51.4328L54.3059 48.9411L54.3059 50.3313L50.0817 52.1279L54.3059 53.9353L54.3059 55.2186ZM56.0812 59.1379L56.0812 60.5282L49.7716 60.5282L49.7716 64.4423L48.5952 64.4423L48.5952 59.1379L56.0812 59.1379ZM54.3701 67.6453C54.3701 68.4866 54.1669 69.1283 53.7605 69.5703C53.3613 70.0195 52.7553 70.244 51.9425 70.244L48.5952 70.244L48.5952 68.9821L49.2903 68.9821C49.0408 68.8181 48.8483 68.5829 48.7128 68.2763C48.5845 67.9769 48.5204 67.6133 48.5204 67.1855C48.5204 66.7577 48.5916 66.3834 48.7342 66.0626C48.884 65.7418 49.0871 65.4922 49.3438 65.314C49.6076 65.1429 49.9035 65.0573 50.2314 65.0573C50.7448 65.0573 51.1547 65.2463 51.4613 65.6241C51.775 66.0091 51.9318 66.6116 51.9318 67.4315L51.9318 68.9073L52.0174 68.9073C52.4166 68.9073 52.7232 68.7861 52.9371 68.5437C53.151 68.3084 53.2579 67.9555 53.2579 67.4849C53.2579 67.1641 53.208 66.8468 53.1082 66.5331C53.0084 66.2266 52.8693 65.9664 52.6911 65.7525L53.6643 65.2285C53.8924 65.5279 54.0671 65.8879 54.1883 66.3086C54.3095 66.7292 54.3701 67.1748 54.3701 67.6453ZM49.4935 67.4635C49.4935 67.7986 49.5684 68.0945 49.7181 68.3512C49.875 68.615 50.096 68.8003 50.3811 68.9073L51.0442 68.9073L51.0442 67.5277C51.0442 66.7577 50.7911 66.3727 50.2849 66.3727C50.0425 66.3727 49.85 66.469 49.7074 66.6615C49.5648 66.854 49.4935 67.1213 49.4935 67.4635ZM53.4718 73.2322C54.0707 73.6172 54.3701 74.2945 54.3701 75.2641L53.0975 75.2641C53.1189 75.1501 53.1296 75.0467 53.1296 74.954C53.1296 74.4336 52.9763 74.0272 52.6697 73.7349C52.3703 73.4426 51.9354 73.2964 51.365 73.2964L48.5952 73.2964L48.5952 71.9596L54.3059 71.9596L54.3059 73.2322L53.4718 73.2322ZM48.5204 78.9125C48.5204 78.3351 48.6451 77.8146 48.8947 77.3512C49.1442 76.8878 49.49 76.5242 49.932 76.2604C50.3811 76.0037 50.8873 75.8754 51.4506 75.8754C52.0138 75.8754 52.5164 76.0037 52.9585 76.2604C53.4005 76.5242 53.7463 76.8878 53.9958 77.3512C54.2453 77.8146 54.3701 78.3351 54.3701 78.9125C54.3701 79.4972 54.2453 80.0212 53.9958 80.4846C53.7463 80.948 53.4005 81.3081 52.9585 81.5647C52.5164 81.8285 52.0138 81.9604 51.4506 81.9604C50.8873 81.9604 50.3811 81.8285 49.932 81.5647C49.49 81.3081 49.1442 80.948 48.8947 80.4846C48.6451 80.0212 48.5204 79.4972 48.5204 78.9125ZM49.6646 78.9125C49.6646 79.4045 49.8286 79.8109 50.1566 80.1317C50.4845 80.4525 50.9159 80.6129 51.4506 80.6129C51.9853 80.6129 52.4166 80.4525 52.7446 80.1317C53.0725 79.8109 53.2365 79.4045 53.2365 78.9125C53.2365 78.4206 53.0725 78.0142 52.7446 77.6934C52.4166 77.3797 51.9853 77.2229 51.4506 77.2229C50.9159 77.2229 50.4845 77.3797 50.1566 77.6934C49.8286 78.0142 49.6646 78.4206 49.6646 78.9125ZM54.3059 88.4292L48.1354 85.7556C47.5151 85.5061 47.0802 85.2031 46.8307 84.8466C46.574 84.4901 46.4457 84.0588 46.4457 83.5526C46.4457 83.2674 46.492 82.9858 46.5847 82.7077C46.6774 82.4297 46.8057 82.2015 46.9697 82.0233L47.9536 82.558C47.8324 82.6864 47.7361 82.8361 47.6648 83.0072C47.5935 83.1854 47.5579 83.3637 47.5579 83.5419C47.5579 83.7772 47.6185 83.9697 47.7397 84.1194C47.8609 84.2762 48.0641 84.4188 48.3492 84.5471L48.5738 84.6434L54.3059 82.1516L54.3059 83.5419L50.0817 85.3385L54.3059 87.1458L54.3059 88.4292Z" fill="#FAFAFA"/>
<path d="M56.0813 110.081L48.5953 110.081L48.5953 108.691L54.9156 108.691L54.9156 107.108L56.0813 107.108L56.0813 110.081ZM49.7717 116.988L48.5953 116.988L48.5953 111.47L49.5257 111.47L52.349 114.443C52.6698 114.778 52.9479 115.002 53.1832 115.116C53.4256 115.238 53.6644 115.298 53.8997 115.298C54.249 115.298 54.5164 115.181 54.7017 114.945C54.8871 114.71 54.9798 114.364 54.9798 113.908C54.9798 113.145 54.7196 112.561 54.1991 112.154L54.9477 111.181C55.3398 111.473 55.6428 111.865 55.8567 112.357C56.0777 112.856 56.1882 113.413 56.1882 114.026C56.1882 114.838 55.9957 115.487 55.6107 115.972C55.2258 116.457 54.7017 116.699 54.0387 116.699C53.6323 116.699 53.2509 116.614 52.8944 116.443C52.5379 116.271 52.1316 115.944 51.6753 115.459L49.7717 113.459L49.7717 116.988ZM57.5999 120.633L57.5999 121.83L47.5259 118.301L47.5259 117.103L57.5999 120.633ZM49.7717 127.285L48.5953 127.285L48.5953 121.767L49.5257 121.767L52.349 124.74C52.6698 125.075 52.9479 125.3 53.1832 125.414C53.4256 125.535 53.6644 125.596 53.8997 125.596C54.249 125.596 54.5164 125.478 54.7017 125.243C54.8871 125.007 54.9798 124.662 54.9798 124.205C54.9798 123.443 54.7196 122.858 54.1991 122.452L54.9477 121.478C55.3398 121.771 55.6428 122.163 55.8567 122.655C56.0777 123.154 56.1882 123.71 56.1882 124.323C56.1882 125.136 55.9957 125.785 55.6107 126.269C55.2258 126.754 54.7017 126.997 54.0387 126.997C53.6323 126.997 53.2509 126.911 52.8944 126.74C52.5379 126.569 52.1316 126.241 51.6753 125.756L49.7717 123.756L49.7717 127.285ZM50.2957 134.604L50.2957 133.278L48.5953 133.278L48.5953 131.931L50.2957 131.931L50.2957 127.824L51.2582 127.824L56.0813 131.514L56.0813 133L51.4721 129.525L51.4721 131.974L52.98 131.974L52.98 133.278L51.4721 133.278L51.4721 134.604L50.2957 134.604Z" fill="#FAFAFA"/>
<defs>
<filter id="filter0_b_108_262" x="-15.6259" y="257.154" width="122.372" height="122.372" filterUnits="userSpaceOnUse" color-interpolation-filters="sRGB">
<feFlood flood-opacity="0" result="BackgroundImageFix"/>
<feGaussianBlur in="BackgroundImage" stdDeviation="22.2796"/>
<feComposite in2="SourceAlpha" operator="in" result="effect1_backgroundBlur_108_262"/>
<feBlend mode="normal" in="SourceGraphic" in2="effect1_backgroundBlur_108_262" result="shape"/>
</filter>
<filter id="filter1_b_108_262" x="-15.6259" y="277.771" width="122.372" height="122.372" filterUnits="userSpaceOnUse" color-interpolation-filters="sRGB">
<feFlood flood-opacity="0" result="BackgroundImageFix"/>
<feGaussianBlur in="BackgroundImage" stdDeviation="22.2796"/>
<feComposite in2="SourceAlpha" operator="in" result="effect1_backgroundBlur_108_262"/>
<feBlend mode="normal" in="SourceGraphic" in2="effect1_backgroundBlur_108_262" result="shape"/>
</filter>
<filter id="filter2_b_108_262" x="-12.0455" y="277.771" width="115.211" height="101.755" filterUnits="userSpaceOnUse" color-interpolation-filters="sRGB">
<feFlood flood-opacity="0" result="BackgroundImageFix"/>
<feGaussianBlur in="BackgroundImage" stdDeviation="22.2796"/>
<feComposite in2="SourceAlpha" operator="in" result="effect1_backgroundBlur_108_262"/>
<feBlend mode="normal" in="SourceGraphic" in2="effect1_backgroundBlur_108_262" result="shape"/>
</filter>
<clipPath id="clip0_108_262">
<rect x="67.507" y="295.062" width="66.5064" height="44.5593" rx="7.12948" transform="rotate(90 67.507 295.062)" fill="white"/>
</clipPath>
</defs>
</svg>
