<svg width="129" height="156" viewBox="0 0 129 156" fill="none" xmlns="http://www.w3.org/2000/svg">
<rect width="128.043" height="155.878" fill="#121212"/>
<path d="M31.2444 117.182V112.243H33.1776C33.4457 112.243 33.6832 112.307 33.8902 112.434C34.1019 112.561 34.2688 112.735 34.3911 112.956C34.5134 113.177 34.5746 113.429 34.5746 113.711C34.5746 113.998 34.5134 114.257 34.3911 114.487C34.2688 114.717 34.1019 114.901 33.8902 115.037C33.6832 115.174 33.4457 115.242 33.1776 115.242H31.8018V117.182H31.2444ZM31.8018 114.699H33.1776C33.3375 114.699 33.4786 114.656 33.6009 114.572C33.7279 114.482 33.8267 114.362 33.8973 114.212C33.9678 114.061 34.0031 113.894 34.0031 113.711C34.0031 113.532 33.9678 113.375 33.8973 113.238C33.8267 113.097 33.7279 112.987 33.6009 112.907C33.4786 112.822 33.3375 112.78 33.1776 112.78H31.8018V114.699ZM37.695 117.182V114.713C37.695 114.473 37.6104 114.28 37.441 114.134C37.2717 113.988 37.0483 113.916 36.7708 113.916C36.5403 113.916 36.331 113.963 36.1428 114.057C35.9547 114.151 35.7877 114.292 35.6419 114.48L35.2891 114.127C35.5008 113.887 35.7313 113.709 35.9806 113.591C36.2346 113.473 36.5097 113.415 36.806 113.415C37.0883 113.415 37.3328 113.462 37.5398 113.556C37.7468 113.65 37.9043 113.786 38.0125 113.965C38.1254 114.144 38.1818 114.36 38.1818 114.614V117.182H37.695ZM36.4251 117.253C36.1852 117.253 35.9712 117.206 35.783 117.112C35.5949 117.018 35.4444 116.888 35.3315 116.724C35.2233 116.554 35.1692 116.357 35.1692 116.131C35.1692 115.947 35.2021 115.785 35.268 115.644C35.3385 115.503 35.4397 115.385 35.5714 115.291C35.7031 115.197 35.87 115.127 36.0723 115.08C36.2745 115.028 36.505 115.002 36.7637 115.002H37.9349L37.8926 115.447H36.6932C36.5285 115.447 36.3827 115.461 36.2557 115.489C36.1334 115.517 36.0276 115.562 35.9382 115.623C35.8536 115.679 35.7877 115.75 35.7407 115.835C35.6984 115.915 35.6772 116.011 35.6772 116.124C35.6772 116.256 35.7101 116.373 35.776 116.477C35.8465 116.575 35.9382 116.653 36.0511 116.709C36.1687 116.761 36.3004 116.787 36.4462 116.787C36.6391 116.787 36.8202 116.754 36.9895 116.688C37.1588 116.618 37.3093 116.524 37.441 116.406C37.5774 116.284 37.6856 116.147 37.7656 115.997L37.9137 116.335C37.8103 116.514 37.6809 116.672 37.5257 116.808C37.3705 116.945 37.1988 117.053 37.0107 117.133C36.8272 117.213 36.632 117.253 36.4251 117.253ZM39.6665 118.805L40.3862 117.09L40.4074 117.514L38.6082 113.478H39.2291L40.4991 116.399C40.5273 116.455 40.5532 116.521 40.5767 116.597C40.6049 116.667 40.6284 116.735 40.6472 116.801L40.4991 116.843C40.532 116.759 40.5626 116.676 40.5908 116.597C40.6237 116.512 40.6543 116.43 40.6825 116.35L41.769 113.478H42.397L40.866 117.21L40.2451 118.805H39.6665ZM44.9297 117.182V113.478H45.4659V114.268L45.3601 114.332C45.4118 114.167 45.5059 114.017 45.6423 113.88C45.7787 113.744 45.9433 113.633 46.1362 113.549C46.329 113.459 46.5289 113.415 46.7359 113.415C47.0134 113.415 47.2462 113.469 47.4344 113.577C47.6272 113.68 47.773 113.843 47.8718 114.064C47.9706 114.285 48.02 114.565 48.02 114.903V117.182H47.4838V114.939C47.4838 114.699 47.4485 114.501 47.3779 114.346C47.3121 114.191 47.211 114.078 47.0746 114.007C46.9429 113.937 46.7759 113.904 46.5736 113.908C46.4137 113.908 46.2655 113.934 46.1291 113.986C45.9974 114.038 45.8822 114.108 45.7834 114.198C45.6847 114.282 45.607 114.379 45.5506 114.487C45.4942 114.59 45.4659 114.694 45.4659 114.797V117.182H45.2049C45.1626 117.182 45.1179 117.182 45.0708 117.182C45.0238 117.182 44.9768 117.182 44.9297 117.182ZM50.6738 117.253C50.3117 117.253 49.9871 117.17 49.7002 117.006C49.418 116.836 49.1946 116.608 49.0299 116.321C48.8653 116.03 48.783 115.698 48.783 115.327C48.783 114.955 48.8653 114.626 49.0299 114.339C49.1946 114.052 49.418 113.826 49.7002 113.662C49.9871 113.497 50.3117 113.415 50.6738 113.415C51.036 113.415 51.3582 113.497 51.6404 113.662C51.9273 113.826 52.1507 114.052 52.3107 114.339C52.4753 114.626 52.5576 114.955 52.5576 115.327C52.5576 115.698 52.4753 116.03 52.3107 116.321C52.1507 116.608 51.9273 116.836 51.6404 117.006C51.3582 117.17 51.036 117.253 50.6738 117.253ZM50.6738 116.759C50.9325 116.759 51.163 116.698 51.3653 116.575C51.5722 116.448 51.7321 116.277 51.845 116.06C51.9626 115.844 52.019 115.599 52.0143 115.327C52.019 115.049 51.9626 114.804 51.845 114.593C51.7321 114.381 51.5722 114.214 51.3653 114.092C51.163 113.97 50.9325 113.908 50.6738 113.908C50.4151 113.908 50.1823 113.97 49.9754 114.092C49.7731 114.214 49.6132 114.384 49.4956 114.6C49.378 114.812 49.3216 115.054 49.3263 115.327C49.3216 115.599 49.378 115.844 49.4956 116.06C49.6132 116.277 49.7731 116.448 49.9754 116.575C50.1823 116.698 50.4151 116.759 50.6738 116.759ZM54.1218 117.182L52.8377 113.478L53.388 113.471L54.404 116.498L54.2629 116.491L55.3 114.057H55.6246L56.6688 116.498L56.5065 116.505L57.5295 113.478H58.0728L56.8028 117.182H56.443L55.3635 114.614L55.5117 114.628L54.4816 117.182H54.1218ZM61.9358 117.253C61.6253 117.253 61.3455 117.199 61.0962 117.09C60.8469 116.978 60.6446 116.818 60.4894 116.611L60.8563 116.293C60.9927 116.462 61.155 116.589 61.3431 116.674C61.5313 116.759 61.7453 116.801 61.9852 116.801C62.1074 116.801 62.2156 116.787 62.3097 116.759C62.4038 116.726 62.4837 116.684 62.5496 116.632C62.6154 116.575 62.6625 116.512 62.6907 116.441C62.7236 116.366 62.7401 116.286 62.7401 116.201C62.7401 116.046 62.6789 115.922 62.5566 115.828C62.4908 115.78 62.3991 115.736 62.2815 115.693C62.1686 115.646 62.0298 115.602 61.8652 115.559C61.6112 115.498 61.3972 115.428 61.2232 115.348C61.0538 115.263 60.9198 115.167 60.821 115.058C60.7458 114.974 60.6893 114.882 60.6517 114.783C60.6141 114.68 60.5952 114.567 60.5952 114.445C60.5952 114.242 60.6517 114.064 60.7646 113.908C60.8775 113.753 61.0303 113.633 61.2232 113.549C61.4207 113.459 61.6441 113.415 61.8934 113.415C62.0628 113.415 62.2297 113.438 62.3944 113.485C62.5637 113.532 62.7189 113.6 62.86 113.69C63.0011 113.779 63.1234 113.887 63.2269 114.014L62.9165 114.353C62.8177 114.254 62.7119 114.169 62.599 114.099C62.4908 114.024 62.3779 113.967 62.2603 113.93C62.1427 113.887 62.0275 113.866 61.9146 113.866C61.7923 113.866 61.6818 113.88 61.583 113.908C61.4842 113.932 61.3996 113.97 61.329 114.021C61.2632 114.068 61.2138 114.127 61.1808 114.198C61.1479 114.264 61.1315 114.341 61.1315 114.431C61.1362 114.496 61.1526 114.562 61.1808 114.628C61.2091 114.689 61.249 114.741 61.3008 114.783C61.3666 114.835 61.4607 114.887 61.583 114.939C61.7053 114.986 61.8535 115.028 62.0275 115.066C62.2533 115.122 62.4437 115.185 62.599 115.256C62.7542 115.322 62.8788 115.402 62.9729 115.496C63.0717 115.581 63.1422 115.679 63.1846 115.792C63.2269 115.905 63.2481 116.034 63.2481 116.18C63.2481 116.392 63.1916 116.58 63.0787 116.745C62.9658 116.905 62.8106 117.029 62.6131 117.119C62.4155 117.208 62.1898 117.253 61.9358 117.253ZM64.1901 117.182V113.478H64.7263V117.182H64.1901ZM64.4511 112.61C64.3288 112.61 64.2324 112.577 64.1618 112.511C64.096 112.441 64.0631 112.349 64.0631 112.236C64.0631 112.123 64.096 112.034 64.1618 111.968C64.2324 111.898 64.3288 111.862 64.4511 111.862C64.5734 111.862 64.6675 111.895 64.7333 111.961C64.8039 112.027 64.8392 112.119 64.8392 112.236C64.8392 112.345 64.8062 112.434 64.7404 112.504C64.6745 112.575 64.5781 112.61 64.4511 112.61ZM66.3631 117.182V112.533H66.8993V117.182H66.3631ZM65.5094 114V113.478H67.8236V114H65.5094ZM68.4659 117.182V111.961H69.0021V114.268L68.8963 114.332C68.948 114.167 69.0421 114.017 69.1785 113.88C69.3196 113.739 69.4843 113.626 69.6724 113.542C69.8652 113.457 70.0651 113.415 70.2721 113.415C70.5496 113.415 70.7824 113.469 70.9706 113.577C71.1634 113.68 71.3092 113.843 71.408 114.064C71.5068 114.285 71.5562 114.565 71.5562 114.903V117.182H71.02V114.939C71.02 114.699 70.9847 114.501 70.9141 114.346C70.8483 114.191 70.7472 114.078 70.6108 114.007C70.4791 113.937 70.3121 113.904 70.1098 113.908C69.9499 113.908 69.8017 113.934 69.6653 113.986C69.5336 114.038 69.4184 114.108 69.3196 114.198C69.2209 114.282 69.1432 114.379 69.0868 114.487C69.0304 114.59 69.0021 114.694 69.0021 114.797V117.182H68.7411C68.6988 117.182 68.6541 117.182 68.607 117.182C68.56 117.182 68.513 117.182 68.4659 117.182ZM76.2016 117.253C75.7924 117.253 75.4325 117.175 75.1221 117.02C74.8164 116.86 74.5577 116.627 74.346 116.321L74.7411 115.884C74.9528 116.194 75.1762 116.415 75.4114 116.547C75.6513 116.679 75.9335 116.745 76.258 116.745C76.465 116.745 76.6508 116.709 76.8154 116.639C76.9847 116.568 77.1188 116.472 77.2175 116.35C77.3163 116.227 77.3657 116.089 77.3657 115.933C77.3657 115.83 77.3469 115.736 77.3093 115.651C77.2763 115.566 77.2222 115.491 77.147 115.425C77.0764 115.359 76.9871 115.298 76.8789 115.242C76.7707 115.185 76.6461 115.136 76.505 115.094C76.3685 115.047 76.2133 115.002 76.0393 114.96C75.7947 114.908 75.5807 114.84 75.3973 114.755C75.2185 114.67 75.0657 114.569 74.9387 114.452C74.8117 114.334 74.7176 114.2 74.6564 114.05C74.5953 113.894 74.5647 113.72 74.5647 113.527C74.5647 113.264 74.6376 113.031 74.7834 112.829C74.934 112.627 75.1339 112.467 75.3831 112.349C75.6371 112.232 75.9217 112.173 76.2368 112.173C76.6178 112.173 76.9424 112.243 77.2105 112.384C77.4833 112.521 77.702 112.721 77.8666 112.984L77.4715 113.372C77.321 113.151 77.1423 112.982 76.9353 112.864C76.7331 112.742 76.4955 112.681 76.2227 112.681C76.0111 112.681 75.8229 112.716 75.6583 112.787C75.4937 112.857 75.3643 112.956 75.2703 113.083C75.1762 113.205 75.1292 113.349 75.1292 113.513C75.1292 113.631 75.1503 113.739 75.1927 113.838C75.2397 113.932 75.3079 114.014 75.3973 114.085C75.4866 114.155 75.6019 114.219 75.743 114.275C75.8841 114.332 76.0511 114.381 76.2439 114.423C76.5073 114.485 76.7425 114.558 76.9494 114.642C77.1611 114.727 77.3398 114.826 77.4856 114.939C77.6315 115.051 77.742 115.178 77.8172 115.32C77.8925 115.461 77.9301 115.621 77.9301 115.799C77.9301 116.091 77.8572 116.347 77.7114 116.568C77.5703 116.785 77.3704 116.954 77.1117 117.076C76.853 117.194 76.5496 117.253 76.2016 117.253ZM80.0289 117.253C79.7184 117.253 79.4386 117.199 79.1893 117.09C78.94 116.978 78.7377 116.818 78.5825 116.611L78.9494 116.293C79.0858 116.462 79.2481 116.589 79.4362 116.674C79.6244 116.759 79.8384 116.801 80.0783 116.801C80.2006 116.801 80.3087 116.787 80.4028 116.759C80.4969 116.726 80.5768 116.684 80.6427 116.632C80.7085 116.575 80.7556 116.512 80.7838 116.441C80.8167 116.366 80.8332 116.286 80.8332 116.201C80.8332 116.046 80.772 115.922 80.6497 115.828C80.5839 115.78 80.4922 115.736 80.3746 115.693C80.2617 115.646 80.1229 115.602 79.9583 115.559C79.7043 115.498 79.4903 115.428 79.3163 115.348C79.147 115.263 79.0129 115.167 78.9141 115.058C78.8389 114.974 78.7824 114.882 78.7448 114.783C78.7072 114.68 78.6884 114.567 78.6884 114.445C78.6884 114.242 78.7448 114.064 78.8577 113.908C78.9706 113.753 79.1234 113.633 79.3163 113.549C79.5138 113.459 79.7373 113.415 79.9865 113.415C80.1559 113.415 80.3228 113.438 80.4875 113.485C80.6568 113.532 80.812 113.6 80.9531 113.69C81.0942 113.779 81.2165 113.887 81.32 114.014L81.0096 114.353C80.9108 114.254 80.805 114.169 80.6921 114.099C80.5839 114.024 80.471 113.967 80.3534 113.93C80.2358 113.887 80.1206 113.866 80.0077 113.866C79.8854 113.866 79.7749 113.88 79.6761 113.908C79.5773 113.932 79.4927 113.97 79.4221 114.021C79.3563 114.068 79.3069 114.127 79.274 114.198C79.241 114.264 79.2246 114.341 79.2246 114.431C79.2293 114.496 79.2457 114.562 79.274 114.628C79.3022 114.689 79.3422 114.741 79.3939 114.783C79.4597 114.835 79.5538 114.887 79.6761 114.939C79.7984 114.986 79.9466 115.028 80.1206 115.066C80.3464 115.122 80.5369 115.185 80.6921 115.256C80.8473 115.322 80.9719 115.402 81.066 115.496C81.1648 115.581 81.2353 115.679 81.2777 115.792C81.32 115.905 81.3412 116.034 81.3412 116.18C81.3412 116.392 81.2847 116.58 81.1718 116.745C81.059 116.905 80.9037 117.029 80.7062 117.119C80.5086 117.208 80.2829 117.253 80.0289 117.253ZM84.5056 117.182V114.713C84.5056 114.473 84.4209 114.28 84.2516 114.134C84.0823 113.988 83.8589 113.916 83.5814 113.916C83.3509 113.916 83.1416 113.963 82.9534 114.057C82.7653 114.151 82.5983 114.292 82.4525 114.48L82.0997 114.127C82.3114 113.887 82.5419 113.709 82.7912 113.591C83.0451 113.473 83.3203 113.415 83.6166 113.415C83.8988 113.415 84.1434 113.462 84.3504 113.556C84.5573 113.65 84.7149 113.786 84.8231 113.965C84.936 114.144 84.9924 114.36 84.9924 114.614V117.182H84.5056ZM83.2356 117.253C82.9958 117.253 82.7817 117.206 82.5936 117.112C82.4055 117.018 82.2549 116.888 82.1421 116.724C82.0339 116.554 81.9798 116.357 81.9798 116.131C81.9798 115.947 82.0127 115.785 82.0786 115.644C82.1491 115.503 82.2502 115.385 82.3819 115.291C82.5136 115.197 82.6806 115.127 82.8829 115.08C83.0851 115.028 83.3156 115.002 83.5743 115.002H84.7455L84.7032 115.447H83.5037C83.3391 115.447 83.1933 115.461 83.0663 115.489C82.944 115.517 82.8382 115.562 82.7488 115.623C82.6642 115.679 82.5983 115.75 82.5513 115.835C82.5089 115.915 82.4878 116.011 82.4878 116.124C82.4878 116.256 82.5207 116.373 82.5866 116.477C82.6571 116.575 82.7488 116.653 82.8617 116.709C82.9793 116.761 83.111 116.787 83.2568 116.787C83.4497 116.787 83.6307 116.754 83.8001 116.688C83.9694 116.618 84.1199 116.524 84.2516 116.406C84.388 116.284 84.4962 116.147 84.5762 115.997L84.7243 116.335C84.6208 116.514 84.4915 116.672 84.3363 116.808C84.1811 116.945 84.0094 117.053 83.8212 117.133C83.6378 117.213 83.4426 117.253 83.2356 117.253ZM87.0345 117.182L85.4894 113.478H86.075L87.2956 116.505L87.1756 116.547L88.4526 113.478H89.01L87.4155 117.182H87.0345ZM91.1823 117.182L89.6372 113.478H90.2228L91.4433 116.505L91.3234 116.547L92.6004 113.478H93.1578L91.5633 117.182H91.1823ZM94.4213 118.805L95.1409 117.09L95.1621 117.514L93.363 113.478H93.9839L95.2538 116.399C95.2821 116.455 95.3079 116.521 95.3314 116.597C95.3597 116.667 95.3832 116.735 95.402 116.801L95.2538 116.843C95.2868 116.759 95.3173 116.676 95.3456 116.597C95.3785 116.512 95.409 116.43 95.4373 116.35L96.5238 113.478H97.1517L95.6207 117.21L94.9998 118.805H94.4213ZM58.8724 129.253C58.5243 129.253 58.2045 129.192 57.9128 129.069C57.6259 128.947 57.3743 128.773 57.1579 128.547C56.9463 128.321 56.7816 128.053 56.664 127.743C56.5512 127.432 56.4947 127.091 56.4947 126.72C56.4947 126.362 56.5559 126.031 56.6782 125.725C56.8004 125.415 56.9698 125.146 57.1861 124.921C57.4072 124.69 57.6636 124.511 57.9552 124.384C58.2468 124.257 58.5666 124.194 58.9147 124.194C59.1593 124.194 59.3921 124.229 59.6132 124.3C59.839 124.37 60.0436 124.469 60.227 124.596C60.4151 124.718 60.5727 124.864 60.6997 125.034L60.3187 125.422C60.1165 125.205 59.8954 125.041 59.6555 124.928C59.4203 124.81 59.1734 124.751 58.9147 124.751C58.6513 124.751 58.4067 124.801 58.1809 124.9C57.9552 124.998 57.7576 125.135 57.5883 125.309C57.4237 125.483 57.2943 125.692 57.2002 125.937C57.1062 126.177 57.0591 126.438 57.0591 126.72C57.0591 127.016 57.1062 127.287 57.2002 127.531C57.2943 127.771 57.4237 127.978 57.5883 128.152C57.7576 128.321 57.9575 128.453 58.188 128.547C58.4185 128.641 58.6748 128.688 58.957 128.688C59.1311 128.688 59.3004 128.667 59.465 128.625C59.6296 128.578 59.7825 128.512 59.9236 128.427C60.0647 128.343 60.1941 128.244 60.3117 128.131L60.6009 128.589C60.4833 128.716 60.3328 128.832 60.1494 128.935C59.9659 129.034 59.7637 129.112 59.5426 129.168C59.3263 129.224 59.1028 129.253 58.8724 129.253ZM63.7943 129.182V126.713C63.7943 126.473 63.7096 126.28 63.5403 126.134C63.371 125.988 63.1476 125.916 62.87 125.916C62.6396 125.916 62.4303 125.963 62.2421 126.057C62.054 126.151 61.887 126.292 61.7412 126.48L61.3884 126.127C61.6001 125.887 61.8306 125.709 62.0798 125.591C62.3338 125.473 62.609 125.415 62.9053 125.415C63.1875 125.415 63.4321 125.462 63.6391 125.556C63.846 125.65 64.0036 125.786 64.1118 125.965C64.2247 126.144 64.2811 126.36 64.2811 126.614V129.182H63.7943ZM62.5243 129.253C62.2845 129.253 62.0704 129.206 61.8823 129.112C61.6942 129.018 61.5436 128.888 61.4308 128.724C61.3226 128.554 61.2685 128.357 61.2685 128.131C61.2685 127.947 61.3014 127.785 61.3673 127.644C61.4378 127.503 61.5389 127.385 61.6706 127.291C61.8023 127.197 61.9693 127.127 62.1716 127.08C62.3738 127.028 62.6043 127.002 62.863 127.002H64.0342L63.9918 127.447H62.7924C62.6278 127.447 62.482 127.461 62.355 127.489C62.2327 127.517 62.1269 127.562 62.0375 127.623C61.9529 127.679 61.887 127.75 61.84 127.835C61.7976 127.915 61.7765 128.011 61.7765 128.124C61.7765 128.256 61.8094 128.373 61.8752 128.477C61.9458 128.575 62.0375 128.653 62.1504 128.709C62.268 128.761 62.3997 128.787 62.5455 128.787C62.7383 128.787 62.9194 128.754 63.0888 128.688C63.2581 128.618 63.4086 128.524 63.5403 128.406C63.6767 128.284 63.7849 128.147 63.8649 127.997L64.013 128.335C63.9095 128.514 63.7802 128.672 63.625 128.808C63.4698 128.945 63.2981 129.053 63.1099 129.133C62.9265 129.213 62.7313 129.253 62.5243 129.253ZM65.2276 129.182V125.478H65.7638L65.7709 126.55L65.7074 126.367C65.7544 126.198 65.8344 126.04 65.9473 125.894C66.0649 125.749 66.206 125.633 66.3706 125.549C66.5352 125.459 66.7163 125.415 66.9139 125.415C66.9938 125.415 67.0691 125.422 67.1396 125.436C67.2102 125.445 67.269 125.459 67.316 125.478L67.1749 126.064C67.1091 126.04 67.0409 126.021 66.9703 126.007C66.9045 125.988 66.841 125.979 66.7798 125.979C66.634 125.979 66.4976 126.01 66.3706 126.071C66.2483 126.127 66.1425 126.205 66.0531 126.304C65.9637 126.402 65.8932 126.515 65.8415 126.642C65.7944 126.764 65.7709 126.891 65.7709 127.023V129.182H65.2276ZM69.2535 129.253C68.9101 129.253 68.6044 129.17 68.3363 129.006C68.0729 128.836 67.8636 128.608 67.7084 128.321C67.5531 128.034 67.4755 127.708 67.4755 127.341C67.4755 126.969 67.5531 126.64 67.7084 126.353C67.8636 126.061 68.0729 125.833 68.3363 125.669C68.6044 125.499 68.9031 125.415 69.2323 125.415C69.4158 125.415 69.5945 125.445 69.7685 125.506C69.9426 125.567 70.0978 125.652 70.2342 125.76C70.3753 125.864 70.4882 125.981 70.5728 126.113C70.6575 126.245 70.7045 126.381 70.7139 126.522H70.5658V123.961H71.102V129.182H70.5658V128.187L70.6787 128.18C70.6646 128.321 70.6152 128.455 70.5305 128.582C70.4458 128.709 70.3377 128.825 70.206 128.928C70.079 129.027 69.9332 129.107 69.7685 129.168C69.6039 129.224 69.4322 129.253 69.2535 129.253ZM69.317 128.78C69.5616 128.78 69.7779 128.719 69.9661 128.597C70.1589 128.47 70.3094 128.298 70.4176 128.081C70.5258 127.865 70.5799 127.616 70.5799 127.334C70.5799 127.051 70.5258 126.802 70.4176 126.586C70.3094 126.369 70.1589 126.198 69.9661 126.071C69.7779 125.944 69.5592 125.88 69.3099 125.88C69.0606 125.88 68.8372 125.944 68.6397 126.071C68.4468 126.198 68.294 126.372 68.1811 126.593C68.0729 126.809 68.0188 127.058 68.0188 127.341C68.0188 127.613 68.0729 127.86 68.1811 128.081C68.294 128.298 68.4468 128.47 68.6397 128.597C68.8372 128.719 69.063 128.78 69.317 128.78Z" fill="white"/>
<rect x="7.81702" y="17.8599" width="112.582" height="70.6912" rx="6.73569" fill="black"/>
<mask id="mask0_117_356" style="mask-type:alpha" maskUnits="userSpaceOnUse" x="7" y="17" width="114" height="72">
<rect x="7.81702" y="17.8599" width="112.582" height="70.6912" rx="6.73569" fill="black"/>
</mask>
<g mask="url(#mask0_117_356)">
<path d="M126.245 -6.22698L103.987 19.5618L103.987 32.4562L126.245 51.5291L115.786 68.7216L122.758 94.5104L84.1431 91.824L84.1431 109.017L59.204 114.121L31.5833 102.301L21.3932 126.209L-49.1334 135.611L-49.1334 84.8396L-66.2958 78.1238L-66.2957 41.0524L-54.2285 23.8599L-72.1953 -15.6291L-59.3235 -28.5235L-25.8033 -28.5235L-7.83646 -41.4179L21.3932 -28.5235L50.6228 -28.5235L59.204 -50.0142L103.987 -50.0142L126.245 -6.22698Z" stroke="#373737" stroke-width="0.227746"/>
<path d="M35.2604 33.0952L37.6422 37.7589L37.6422 43.9105L33.1369 48.2022L27.5124 49.3181L26.422 51.8646L18.8748 52.866L18.8748 47.4583L18.3296 40.9635L16.407 36.7575L17.7844 35.3842L21.3714 35.3842L29.5499 35.3842L30.4681 33.0952L35.2604 33.0952Z" stroke="#373737" stroke-width="0.227746"/>
<path d="M119.429 -3.02376L98.9754 20.9606L98.9754 33.3363L119.347 51.1072L109.52 67.1423L115.74 90.9902L79.8786 88.5534L79.7947 104.619L56.4838 109.369L30.6975 98.4971L21.2912 120.358L-43.8103 128.829L-43.8312 81.7134L-59.6944 75.2644L-59.8423 40.7211L-48.6503 24.7983L-65.1821 -11.706L-53.1625 -23.6085L-22.0827 -23.6085L-4.86884 -35.511L22.1477 -23.6965L49.1642 -23.7846L57.2696 -43.6221L98.7921 -43.6221L119.429 -3.02376Z" stroke="#373737" stroke-width="0.227746"/>
<path d="M112.613 0.18092L93.9633 22.3609L93.9633 34.218L112.45 50.6867L103.254 65.5644L108.721 87.4715L75.6138 85.2843L75.446 100.224L53.7632 104.619L29.8113 94.695L21.1889 114.509L-38.4875 122.049L-38.5294 78.5886L-53.0934 72.4064L-53.3891 40.3913L-43.0724 25.7381L-58.1692 -7.78136L-47.0018 -18.692L-18.3625 -18.692L-1.9016 -29.6026L22.9018 -18.8681L47.7052 -19.0441L55.3349 -37.2285L93.5968 -37.2285L112.613 0.18092Z" stroke="#373737" stroke-width="0.227746"/>
<path d="M105.798 3.38463L88.9516 23.7603L88.9516 35.0986L105.553 50.2653L96.9881 63.9855L101.702 83.9518L71.3493 82.0141L71.0977 95.8268L51.043 99.8685L28.9255 90.8919L21.0869 108.659L-33.1643 115.267L-33.2272 75.4629L-46.4919 69.5475L-46.9356 40.0604L-37.4942 26.677L-51.1559 -3.85771L-40.8406 -13.7765L-14.6419 -13.7765L1.06603 -23.6952L23.6563 -14.0406L46.2466 -14.3047L53.4005 -30.8359L88.4019 -30.8359L105.798 3.38463Z" stroke="#373737" stroke-width="0.227746"/>
<path d="M98.9823 6.58981L83.9397 25.1611L83.9397 35.9807L98.6556 49.8454L90.7221 62.4081L94.6837 80.4336L67.0847 78.7455L66.7492 91.4315L48.3226 95.1191L28.0395 87.0902L20.9848 102.81L-27.8413 108.487L-27.9252 72.3386L-39.8907 66.69L-40.4823 39.7311L-31.9161 27.6173L-44.1428 0.067411L-34.6797 -8.85947L-10.9215 -8.85947L4.03352 -17.7864L24.4107 -9.21161L44.7879 -9.56376L51.466 -24.4419L83.2069 -24.4419L98.9823 6.58981Z" stroke="#373737" stroke-width="0.227746"/>
<path d="M92.1666 9.79254L78.9278 26.5594L78.9278 36.8604L91.7583 49.4229L84.456 60.8283L87.6649 76.9129L62.82 75.4743L62.4006 87.0338L45.6021 90.3673L27.1534 83.2861L20.8826 96.959L-22.5184 101.705L-22.6232 69.2119L-33.2896 63.8301L-34.029 39.3993L-26.3381 28.5552L-37.1297 3.99008L-28.5189 -3.94492L-7.2012 -3.94492L7.00088 -11.8799L25.1649 -4.3851L43.329 -4.82528L49.5313 -18.0503L78.0117 -18.0503L92.1666 9.79254Z" stroke="#373737" stroke-width="0.227746"/>
<path d="M85.3511 12.9977L73.9159 27.9602L73.9159 37.7425L84.861 49.003L78.1899 59.2509L80.6462 73.3947L58.5554 72.2057L58.0521 82.6385L42.8818 85.6179L26.2675 79.4844L20.7805 91.1103L-17.1954 94.925L-17.3212 66.0876L-26.6883 60.9726L-27.5757 39.0699L-20.7601 29.4955L-30.1166 7.9152L-22.3579 0.972066L-3.48077 0.972067L9.96835 -5.97106L25.9193 0.44385L41.8703 -0.0843677L47.5968 -11.6563L72.8167 -11.6563L85.3511 12.9977Z" stroke="#373737" stroke-width="0.227746"/>
<path d="M78.5356 16.2014L68.9042 29.3595L68.9042 38.6232L77.9639 48.5815L71.924 57.672L73.6277 69.875L54.291 68.9355L53.7038 78.2417L40.1616 80.867L25.3816 75.6813L20.6785 85.26L-11.8722 88.1436L-12.019 62.9619L-20.0869 58.1137L-21.1222 38.7391L-15.1818 30.4343L-23.1034 11.8388L-16.1968 5.88759L0.239807 5.88759L12.936 -0.063663L26.6738 5.27134L40.4116 4.65508L45.6624 -5.26367L67.6217 -5.26367L78.5356 16.2014Z" stroke="#373737" stroke-width="0.227746"/>
<path d="M71.7201 19.4061L63.8924 30.7599L63.8924 39.5048L71.0667 48.1611L65.658 56.0941L66.609 66.3562L50.0264 65.6664L49.3553 73.8459L37.4412 76.1171L24.4957 71.8792L20.5764 79.4108L-6.54923 81.3631L-6.717 59.8372L-13.4857 55.2557L-14.6688 38.4092L-9.60375 31.3741L-16.0902 15.7635L-10.0359 10.8041L3.96024 10.8041L15.9034 5.84472L27.4282 10.0998L38.9529 9.39551L43.7279 1.12988L62.4267 1.12988L71.7201 19.4061Z" stroke="#373737" stroke-width="0.227746"/>
<path d="M64.9044 22.6103L58.8804 32.1597L58.8804 40.3859L64.1694 47.7401L59.3919 54.5158L59.5902 62.837L45.7617 62.3967L45.0067 69.4496L34.7207 71.3668L23.6096 68.0765L20.4742 73.5611L-1.22633 74.5822L-1.41506 56.7119L-6.88452 52.3973L-8.21558 38.0789L-4.02577 32.3135L-9.07723 19.6876L-3.87502 15.7201L7.68056 15.7201L18.8708 11.7526L28.1824 14.9278L37.494 14.1355L41.7933 7.52295L57.2315 7.52295L64.9044 22.6103Z" stroke="#373737" stroke-width="0.227746"/>
<path d="M58.0889 25.8145L53.8686 33.5595L53.8686 41.2671L57.2721 47.3192L53.1259 52.9374L52.5716 59.3178L41.4971 59.1271L40.6583 65.0534L32.0004 66.6164L22.7236 64.2739L20.372 67.7113L4.09667 67.8012L3.88697 53.5866L-0.283277 49.5388L-1.76224 37.7485L1.55229 33.2528L-2.06413 23.6117L2.28592 20.6361L11.401 20.6361L21.8383 17.6605L28.9368 19.7558L36.0353 18.8754L39.8587 13.916L52.0365 13.916L58.0889 25.8145Z" stroke="#373737" stroke-width="0.227746"/>
<path d="M51.2734 29.0182L48.8569 34.9588L48.8569 42.1477L50.375 46.8978L46.86 51.3585L45.553 55.7981L37.2326 55.8569L36.3099 60.6566L29.2801 61.8655L21.8378 60.4707L20.2701 61.8611L9.41982 61.0198L9.18914 50.4609L6.31811 46.6799L4.69125 37.4177L7.13051 34.1917L4.94913 27.5354L8.447 25.5516L15.1216 25.5516L24.8059 23.5679L29.6913 24.5832L34.5766 23.6148L37.9243 20.3086L46.8415 20.3086L51.2734 29.0182Z" stroke="#373737" stroke-width="0.227746"/>
<path d="M44.4578 32.2239L43.8449 36.3601L43.8449 43.0303L43.4777 46.4783L40.5938 49.7816L38.5342 52.2804L32.9679 52.5887L31.9613 56.2618L26.5597 57.1166L20.9517 56.6696L20.1678 56.0129L14.7427 54.2403L14.4911 47.3371L12.9192 43.8229L11.1445 37.0888L12.7085 35.1325L11.9622 31.461L14.6078 30.4691L18.8419 30.4691L27.7733 29.4772L30.4455 29.4127L33.1178 28.3563L35.9897 26.7031L41.6464 26.7031L44.4578 32.2239Z" stroke="#373737" stroke-width="0.227746"/>
</g>
<path d="M20.6562 65.7606V66.7026H21.7659V65.7782C22.119 65.7365 22.4393 65.6487 22.7269 65.5149C23.1446 65.3169 23.4685 65.0447 23.6986 64.6983C23.9323 64.3484 24.0491 63.9401 24.0491 63.4735C24.0491 62.9397 23.9057 62.512 23.619 62.1904C23.3323 61.8687 22.8668 61.6124 22.2225 61.4215L20.8155 61.0132C20.4261 60.8966 20.1411 60.757 19.9606 60.5944C19.7801 60.4318 19.6898 60.2338 19.6898 60.0005C19.6898 59.7884 19.7535 59.5993 19.8809 59.4332C20.0119 59.2635 20.1871 59.1327 20.4066 59.0408C20.6296 58.9454 20.8809 58.9012 21.1606 58.9083C21.4579 58.9118 21.7252 58.9719 21.9623 59.0885C22.2031 59.2052 22.4013 59.3678 22.557 59.5763C22.7163 59.7849 22.8208 60.0253 22.8703 60.2974L24.0013 60.096C23.9022 59.6294 23.7234 59.2299 23.465 58.8977C23.2101 58.5654 22.888 58.3109 22.4986 58.1341C22.2736 58.0311 22.0294 57.9569 21.7659 57.9115V56.957H20.6562V57.8906C20.3449 57.9313 20.0617 58.0107 19.8066 58.1288C19.4172 58.3091 19.1146 58.5636 18.8986 58.8924C18.6863 59.2211 18.5801 59.6082 18.5801 60.0535C18.5801 60.9973 19.111 61.6336 20.173 61.9624L21.9677 62.5138C22.3146 62.6234 22.5641 62.7577 22.7163 62.9168C22.8721 63.0758 22.95 63.2826 22.95 63.5371C22.95 63.8941 22.7977 64.1875 22.4933 64.4173C22.1924 64.6471 21.8013 64.7619 21.3199 64.7619C20.8349 64.7619 20.419 64.6294 20.0721 64.3643C19.7252 64.0956 19.4986 63.7351 19.3924 63.2826L18.2933 63.4576C18.3748 63.9383 18.5482 64.3554 18.8137 64.7089C19.0827 65.0589 19.4261 65.3293 19.8438 65.5202C20.0942 65.6346 20.365 65.7147 20.6562 65.7606Z" fill="#E9FF6B"/>
<path fill-rule="evenodd" clip-rule="evenodd" d="M30.8163 65.5732C31.1031 65.7287 31.4588 65.8065 31.8836 65.8065C32.4181 65.8065 32.8676 65.7004 33.2322 65.4883C33.5079 65.3269 33.7468 65.103 33.9491 64.8167V65.6474H34.9314V62.1214C34.9314 61.881 34.9207 61.6566 34.8995 61.448C34.8783 61.2395 34.8216 61.0415 34.7296 60.8542C34.5526 60.476 34.273 60.2002 33.8907 60.027C33.5119 59.8503 33.0659 59.7619 32.5526 59.7619C31.8907 59.7619 31.3597 59.9068 30.9597 60.1967C30.5632 60.4866 30.2942 60.8772 30.1526 61.3685L31.188 61.6866C31.2871 61.365 31.4623 61.1352 31.7137 60.9973C31.965 60.8559 32.2411 60.7853 32.542 60.7853C33.0199 60.7853 33.3561 60.8948 33.5508 61.114C33.7239 61.3022 33.8187 61.5793 33.8353 61.9452C33.6179 61.9757 33.3992 62.0061 33.1792 62.0366C32.8252 62.0861 32.4871 62.1391 32.165 62.1957C31.8429 62.2522 31.5544 62.3176 31.2995 62.3918C31.0057 62.4873 30.7579 62.6128 30.5562 62.7683C30.3544 62.9203 30.2022 63.1059 30.0995 63.325C29.9969 63.5442 29.9455 63.7987 29.9455 64.0886C29.9455 64.3996 30.0181 64.6859 30.1632 64.9475C30.3119 65.2056 30.5296 65.4141 30.8163 65.5732ZM32.8924 64.7354C32.6659 64.845 32.3951 64.8998 32.08 64.8998C31.8429 64.8998 31.6482 64.8627 31.496 64.7884C31.3438 64.7142 31.2305 64.6152 31.1562 64.4915C31.0818 64.3643 31.0446 64.2264 31.0446 64.0779C31.0446 63.9259 31.0783 63.7969 31.1455 63.6909C31.2163 63.5848 31.3101 63.4947 31.4269 63.4205C31.5473 63.3462 31.6836 63.2826 31.8358 63.2296C32.0163 63.173 32.2216 63.1253 32.4517 63.0864C32.6853 63.044 32.9455 63.0016 33.2322 62.9592C33.4164 62.9319 33.6136 62.9025 33.824 62.8709C33.8214 62.9643 33.8171 63.0715 33.811 63.1925C33.8039 63.4046 33.7703 63.5954 33.7101 63.7651C33.6676 63.9525 33.5774 64.1327 33.4393 64.3059C33.3013 64.4792 33.119 64.6223 32.8924 64.7354Z" fill="#E9FF6B"/>
<path d="M37.6532 65.6474L35.5718 59.921H36.6921L38.216 64.2582L39.7399 59.921H40.8602L38.7788 65.6474H37.6532Z" fill="#E9FF6B"/>
<path d="M41.2859 59.921L43.3673 65.6474H44.493L46.5744 59.921H45.4541L43.9302 64.2582L42.4063 59.921H41.2859Z" fill="#E9FF6B"/>
<path d="M48.2544 68.1925L49.1996 65.6228L46.8792 59.921H48.0367L49.7319 64.2251L51.35 59.921H52.4757L49.3111 68.1925H48.2544Z" fill="#E9FF6B"/>
<path d="M52.6482 64.4756V65.6474H53.8217V64.4756H52.6482Z" fill="#E9FF6B"/>
<path d="M25.1089 64.7685C24.8985 64.4887 24.7624 64.1601 24.6989 63.7856L24.6783 63.664L25.7305 63.4967L25.7565 63.6073C25.8295 63.9178 25.9834 64.1608 26.2177 64.3421C26.4521 64.5209 26.7346 64.6123 27.0716 64.6123C27.4104 64.6123 27.6731 64.5318 27.8705 64.3813L27.8711 64.3808C28.0694 64.2314 28.1622 64.0484 28.1622 63.8243C28.1622 63.6622 28.1135 63.5409 28.0233 63.4488L28.0223 63.4478C27.9297 63.3512 27.7668 63.2594 27.5172 63.1806L27.5168 63.1804L26.182 62.7709C25.7719 62.6441 25.4523 62.4544 25.2353 62.1946C25.0168 61.9332 24.9105 61.6108 24.9105 61.2357C24.9105 60.8846 24.9947 60.5732 25.1672 60.3066L25.1677 60.3058C25.342 60.0407 25.5857 59.8373 25.8942 59.6946C26.2031 59.5518 26.5597 59.4824 26.961 59.4824H26.9618L26.9627 59.4824C27.3481 59.4878 27.6945 59.5588 27.9995 59.6983C28.3069 59.8377 28.5626 60.0392 28.7646 60.3021C28.9696 60.5654 29.1095 60.8797 29.1865 61.2419L29.2128 61.3654L28.1267 61.5586L28.1049 61.4389C28.0713 61.2546 28.0011 61.0941 27.8949 60.9553L27.8941 60.9543C27.7903 60.8154 27.6583 60.707 27.4963 60.6286L27.4957 60.6283C27.3375 60.5506 27.1569 60.5093 26.9516 60.5069L26.9508 60.5069L26.95 60.5069C26.7568 60.502 26.5877 60.5325 26.4402 60.5955L26.4393 60.5959C26.2934 60.6569 26.181 60.7418 26.0979 60.8493C26.0198 60.9511 25.981 61.0653 25.981 61.1964C25.981 61.3335 26.0323 61.4481 26.1421 61.5468C26.2567 61.65 26.4486 61.7472 26.7309 61.8317L27.778 62.1351C28.2681 62.2801 28.639 62.4793 28.8737 62.7423C29.1115 63.0087 29.2248 63.3579 29.2248 63.7771C29.2248 64.1451 29.1322 64.4727 28.9435 64.7549C28.7587 65.0328 28.4996 65.2489 28.171 65.4044L28.1703 65.4047C27.8403 65.5581 27.4599 65.6329 27.0321 65.6329C26.6222 65.6329 26.2515 65.5592 25.9224 65.409C25.5942 65.2593 25.3226 65.046 25.1097 64.7695L25.1089 64.7685Z" fill="#E9FF6B"/>
<g clip-path="url(#clip0_117_356)">
<path d="M102.674 31.5527C102.779 31.6836 102.858 31.8407 102.91 31.9978C102.962 32.1549 102.988 32.3382 102.988 32.5215C102.988 32.7048 102.962 32.8881 102.91 33.0452C102.858 33.2023 102.779 33.3594 102.674 33.4903C102.543 33.6736 102.569 33.9355 102.753 34.0664C102.936 34.1973 103.198 34.1712 103.329 33.9879C103.486 33.7784 103.591 33.5689 103.695 33.307C103.8 33.0452 103.826 32.7833 103.826 32.5215C103.826 32.2596 103.774 31.9978 103.695 31.7359C103.617 31.5003 103.486 31.2646 103.329 31.0551C103.198 30.8718 102.936 30.8457 102.753 30.9766C102.569 31.1075 102.543 31.3694 102.674 31.5527Z" fill="#FAFAFA"/>
<path d="M104.114 30.7933C104.429 31.2908 104.612 31.8931 104.612 32.5215C104.612 33.1499 104.429 33.7522 104.114 34.2497C103.983 34.433 104.062 34.6949 104.245 34.8258C104.455 34.9567 104.69 34.8781 104.821 34.6949C105.214 34.0664 105.45 33.3332 105.45 32.5215C105.45 31.7359 105.214 30.9766 104.821 30.3481C104.69 30.1648 104.429 30.0863 104.245 30.2172C104.062 30.3481 103.983 30.5838 104.114 30.7933Z" fill="#FAFAFA"/>
<path d="M105.633 30.0077C106.078 30.7409 106.314 31.605 106.314 32.5215C106.314 33.438 106.052 34.3021 105.633 35.0353C105.528 35.2447 105.581 35.4804 105.79 35.6113C106 35.7161 106.235 35.6637 106.366 35.4542C106.89 34.5901 107.178 33.5951 107.178 32.5215C107.178 31.4479 106.89 30.4529 106.366 29.5888C106.262 29.3793 106 29.3269 105.79 29.4317C105.581 29.5626 105.528 29.7983 105.633 30.0077Z" fill="#FAFAFA"/>
<path d="M107.152 29.2222C107.702 30.191 108.042 31.317 108.042 32.5215C108.042 33.726 107.728 34.852 107.152 35.8208C107.047 36.0303 107.099 36.266 107.309 36.3969C107.518 36.5016 107.754 36.4492 107.885 36.2398C108.513 35.14 108.88 33.8831 108.88 32.5215C108.88 31.1599 108.513 29.903 107.885 28.8032C107.78 28.5937 107.518 28.5414 107.309 28.6461C107.099 28.7509 107.047 29.0127 107.152 29.2222Z" fill="#FAFAFA"/>
</g>
<g filter="url(#filter0_b_117_356)">
<ellipse cx="101.057" cy="75.3633" rx="4.88526" ry="4.88526" fill="#FAFAFA" fill-opacity="0.3"/>
</g>
<g filter="url(#filter1_b_117_356)">
<path d="M112 75.3633C112 78.0613 109.813 80.2485 107.115 80.2485C104.416 80.2485 102.229 78.0613 102.229 75.3633C102.229 72.6652 104.416 70.478 107.115 70.478C109.813 70.478 112 72.6652 112 75.3633Z" fill="#FAFAFA" fill-opacity="0.7"/>
</g>
<g filter="url(#filter2_b_117_356)">
<path d="M104.086 71.5298C102.955 72.4245 102.229 73.809 102.229 75.363C102.229 76.917 102.955 78.3015 104.086 79.1963C105.216 78.3015 105.942 76.917 105.942 75.363C105.942 73.809 105.216 72.4245 104.086 71.5298Z" fill="#FAFAFA" fill-opacity="0.6"/>
</g>
<path d="M18.9276 74.5646C18.7873 74.5646 18.6574 74.5374 18.538 74.4829C18.4207 74.4264 18.3244 74.3478 18.249 74.2473L18.4814 73.9677C18.6029 74.1352 18.7485 74.219 18.9182 74.219C19.1465 74.219 19.2606 74.0839 19.2606 73.8137V72.6764H18.4783V72.3339H19.6691V73.7917C19.6691 74.0494 19.6062 74.2431 19.4805 74.373C19.3549 74.5007 19.1706 74.5646 18.9276 74.5646ZM20.9583 74.5552C20.7886 74.5552 20.6357 74.5185 20.4996 74.4452C20.3634 74.3719 20.2566 74.2703 20.1791 74.1405C20.1037 74.0085 20.066 73.8598 20.066 73.6943C20.066 73.5289 20.1037 73.3812 20.1791 73.2513C20.2566 73.1215 20.3634 73.0199 20.4996 72.9466C20.6357 72.8733 20.7886 72.8366 20.9583 72.8366C21.13 72.8366 21.284 72.8733 21.4201 72.9466C21.5563 73.0199 21.6621 73.1215 21.7375 73.2513C21.815 73.3812 21.8537 73.5289 21.8537 73.6943C21.8537 73.8598 21.815 74.0085 21.7375 74.1405C21.6621 74.2703 21.5563 74.3719 21.4201 74.4452C21.284 74.5185 21.13 74.5552 20.9583 74.5552ZM20.9583 74.219C21.1028 74.219 21.2222 74.1708 21.3165 74.0745C21.4107 73.9781 21.4578 73.8514 21.4578 73.6943C21.4578 73.5372 21.4107 73.4105 21.3165 73.3142C21.2222 73.2178 21.1028 73.1696 20.9583 73.1696C20.8138 73.1696 20.6944 73.2178 20.6001 73.3142C20.508 73.4105 20.4619 73.5372 20.4619 73.6943C20.4619 73.8514 20.508 73.9781 20.6001 74.0745C20.6944 74.1708 20.8138 74.219 20.9583 74.219ZM23.7542 72.8555L22.9687 74.6683C22.8954 74.8505 22.8064 74.9783 22.7016 75.0516C22.5969 75.127 22.4702 75.1647 22.3215 75.1647C22.2377 75.1647 22.155 75.1511 22.0733 75.1239C21.9916 75.0966 21.9246 75.0589 21.8722 75.0108L22.0293 74.7217C22.067 74.7573 22.111 74.7856 22.1612 74.8065C22.2136 74.8275 22.266 74.838 22.3183 74.838C22.3875 74.838 22.444 74.8202 22.488 74.7845C22.5341 74.7489 22.576 74.6892 22.6137 74.6055L22.6419 74.5395L21.9099 72.8555H22.3183L22.8462 74.0965L23.3771 72.8555H23.7542ZM24.9056 72.3339H25.314V74.1876H26.464V74.5332H24.9056V72.3339ZM27.405 72.8366C27.6521 72.8366 27.8407 72.8963 27.9705 73.0157C28.1025 73.133 28.1685 73.311 28.1685 73.5498V74.5332H27.7977V74.329C27.7495 74.4023 27.6804 74.4588 27.5904 74.4986C27.5024 74.5363 27.3956 74.5552 27.2699 74.5552C27.1442 74.5552 27.0342 74.5343 26.94 74.4924C26.8457 74.4484 26.7724 74.3887 26.7201 74.3133C26.6698 74.2358 26.6447 74.1489 26.6447 74.0525C26.6447 73.9017 26.7002 73.7813 26.8112 73.6912C26.9243 73.599 27.1013 73.553 27.3421 73.553H27.7757V73.5278C27.7757 73.4105 27.7401 73.3205 27.6689 73.2576C27.5998 73.1948 27.4961 73.1634 27.3579 73.1634C27.2636 73.1634 27.1704 73.178 27.0782 73.2074C26.9882 73.2367 26.9117 73.2775 26.8489 73.3299L26.6949 73.044C26.7829 72.9769 26.8887 72.9256 27.0123 72.89C27.1358 72.8544 27.2667 72.8366 27.405 72.8366ZM27.3516 74.2693C27.45 74.2693 27.5369 74.2473 27.6123 74.2033C27.6898 74.1572 27.7443 74.0923 27.7757 74.0085V73.8137H27.3704C27.1442 73.8137 27.0311 73.8881 27.0311 74.0368C27.0311 74.108 27.0594 74.1646 27.1159 74.2065C27.1725 74.2483 27.251 74.2693 27.3516 74.2693ZM29.0463 73.1005C29.1595 72.9246 29.3584 72.8366 29.6433 72.8366V73.2105C29.6098 73.2042 29.5794 73.2011 29.5522 73.2011C29.3993 73.2011 29.2799 73.2461 29.194 73.3362C29.1081 73.4241 29.0652 73.5519 29.0652 73.7195V74.5332H28.6725V72.8555H29.0463V73.1005ZM30.7152 74.5552C30.5455 74.5552 30.3926 74.5185 30.2564 74.4452C30.1203 74.3719 30.0135 74.2703 29.936 74.1405C29.8606 74.0085 29.8229 73.8598 29.8229 73.6943C29.8229 73.5289 29.8606 73.3812 29.936 73.2513C30.0135 73.1215 30.1203 73.0199 30.2564 72.9466C30.3926 72.8733 30.5455 72.8366 30.7152 72.8366C30.8869 72.8366 31.0409 72.8733 31.177 72.9466C31.3131 73.0199 31.4189 73.1215 31.4943 73.2513C31.5718 73.3812 31.6106 73.5289 31.6106 73.6943C31.6106 73.8598 31.5718 74.0085 31.4943 74.1405C31.4189 74.2703 31.3131 74.3719 31.177 74.4452C31.0409 74.5185 30.8869 74.5552 30.7152 74.5552ZM30.7152 74.219C30.8597 74.219 30.9791 74.1708 31.0733 74.0745C31.1676 73.9781 31.2147 73.8514 31.2147 73.6943C31.2147 73.5372 31.1676 73.4105 31.0733 73.3142C30.9791 73.2178 30.8597 73.1696 30.7152 73.1696C30.5706 73.1696 30.4512 73.2178 30.357 73.3142C30.2648 73.4105 30.2187 73.5372 30.2187 73.6943C30.2187 73.8514 30.2648 73.9781 30.357 74.0745C30.4512 74.1708 30.5706 74.219 30.7152 74.219ZM33.511 72.8555L32.7256 74.6683C32.6522 74.8505 32.5632 74.9783 32.4585 75.0516C32.3538 75.127 32.2271 75.1647 32.0783 75.1647C31.9946 75.1647 31.9118 75.1511 31.8301 75.1239C31.7484 75.0966 31.6814 75.0589 31.6291 75.0108L31.7861 74.7217C31.8238 74.7573 31.8678 74.7856 31.9181 74.8065C31.9705 74.8275 32.0228 74.838 32.0752 74.838C32.1443 74.838 32.2009 74.8202 32.2449 74.7845C32.2909 74.7489 32.3328 74.6892 32.3705 74.6055L32.3988 74.5395L31.6668 72.8555H32.0752L32.603 74.0965L33.134 72.8555H33.511Z" fill="#FAFAFA"/>
<path d="M39.8721 72.3349V74.5342H39.4636V72.6774H38.9986V72.3349H39.8721ZM41.9013 74.1886V74.5342H40.2801V74.2608L41.1535 73.4314C41.2519 73.3371 41.3179 73.2555 41.3514 73.1863C41.387 73.1151 41.4048 73.045 41.4048 72.9758C41.4048 72.8732 41.3703 72.7947 41.3012 72.7402C41.232 72.6857 41.1305 72.6585 40.9964 72.6585C40.7723 72.6585 40.6005 72.735 40.4811 72.8879L40.1952 72.6679C40.2811 72.5527 40.3963 72.4637 40.5408 72.4009C40.6875 72.3359 40.8508 72.3035 41.031 72.3035C41.2697 72.3035 41.4604 72.36 41.6028 72.4731C41.7452 72.5862 41.8164 72.7402 41.8164 72.935C41.8164 73.0544 41.7913 73.1664 41.741 73.2712C41.6908 73.3759 41.5944 73.4953 41.452 73.6293L40.8645 74.1886H41.9013ZM42.972 71.8888H43.3239L42.2871 74.8484H41.9352L42.972 71.8888ZM44.9265 74.1886V74.5342H43.3053V74.2608L44.1787 73.4314C44.2772 73.3371 44.3432 73.2555 44.3767 73.1863C44.4123 73.1151 44.4301 73.045 44.4301 72.9758C44.4301 72.8732 44.3955 72.7947 44.3264 72.7402C44.2573 72.6857 44.1557 72.6585 44.0216 72.6585C43.7975 72.6585 43.6258 72.735 43.5064 72.8879L43.2205 72.6679C43.3064 72.5527 43.4216 72.4637 43.5661 72.4009C43.7127 72.3359 43.8761 72.3035 44.0562 72.3035C44.295 72.3035 44.4856 72.36 44.628 72.4731C44.7705 72.5862 44.8417 72.7402 44.8417 72.935C44.8417 73.0544 44.8165 73.1664 44.7663 73.2712C44.716 73.3759 44.6196 73.4953 44.4772 73.6293L43.8897 74.1886H44.9265ZM47.0767 74.0346H46.6871V74.5342H46.2913V74.0346H45.0848V73.7519L46.1687 72.3349H46.6054L45.5843 73.689H46.3038V73.246H46.6871V73.689H47.0767V74.0346Z" fill="#FAFAFA"/>
<defs>
<filter id="filter0_b_117_356" x="83.079" y="57.3855" width="35.9555" height="35.9555" filterUnits="userSpaceOnUse" color-interpolation-filters="sRGB">
<feFlood flood-opacity="0" result="BackgroundImageFix"/>
<feGaussianBlur in="BackgroundImage" stdDeviation="6.54625"/>
<feComposite in2="SourceAlpha" operator="in" result="effect1_backgroundBlur_117_356"/>
<feBlend mode="normal" in="SourceGraphic" in2="effect1_backgroundBlur_117_356" result="shape"/>
</filter>
<filter id="filter1_b_117_356" x="89.1368" y="57.3855" width="35.9555" height="35.9555" filterUnits="userSpaceOnUse" color-interpolation-filters="sRGB">
<feFlood flood-opacity="0" result="BackgroundImageFix"/>
<feGaussianBlur in="BackgroundImage" stdDeviation="6.54625"/>
<feComposite in2="SourceAlpha" operator="in" result="effect1_backgroundBlur_117_356"/>
<feBlend mode="normal" in="SourceGraphic" in2="effect1_backgroundBlur_117_356" result="shape"/>
</filter>
<filter id="filter2_b_117_356" x="89.1368" y="58.4373" width="29.8978" height="33.8515" filterUnits="userSpaceOnUse" color-interpolation-filters="sRGB">
<feFlood flood-opacity="0" result="BackgroundImageFix"/>
<feGaussianBlur in="BackgroundImage" stdDeviation="6.54625"/>
<feComposite in2="SourceAlpha" operator="in" result="effect1_backgroundBlur_117_356"/>
<feBlend mode="normal" in="SourceGraphic" in2="effect1_backgroundBlur_117_356" result="shape"/>
</filter>
<clipPath id="clip0_117_356">
<rect width="8.3792" height="8.3792" fill="white" transform="translate(101.548 28.332)"/>
</clipPath>
</defs>
</svg>
